<svg xmlns="http://www.w3.org/2000/svg" version="1.1" xmlns:xlink="http://www.w3.org/1999/xlink" width="154.178px" height="94.3883px"><svg xmlns="http://www.w3.org/2000/svg" viewBox="106.4424 293.3571 154.1783 94.3883" width="154.178px" height="94.3883px" preserveAspectRatio="none"><defs><clipPath id="SvgjsClipPath2869"><rect x="473.5" y="188.5" width="480" height="480" id="SvgjsRect2868" fill="none"></rect></clipPath><clipPath id="SvgjsClipPath2867"><path d="M473.5,188.50001h479.99999v479.99999h-479.99999z" id="SvgjsPath2866"></path></clipPath><clipPath id="SvgjsClipPath2865"><path d="M473.50001,188.50002h479.99999v479.99999h-479.99999z" id="SvgjsPath2864" fill="none"></path></clipPath><clipPath id="SvgjsClipPath2863"><path d="M473.5,188.50001h479.99999v479.99999h-479.99999z" id="SvgjsPath2862" fill="none"></path></clipPath><clipPath id="SvgjsClipPath2861"><path d="M473.49999,188.50001h479.99999v479.99999h-479.99999z" id="SvgjsPath2860" fill="none"></path></clipPath><clipPath id="SvgjsClipPath2859"><path d="M473.5,188.50001h479.99999v479.99999h-479.99999z" id="SvgjsPath2858" fill="none"></path></clipPath><clipPath id="SvgjsClipPath2857"><path d="M473.5,188.50001h479.99999v479.99999h-479.99999z" id="SvgjsPath2856" fill="none"></path></clipPath><clipPath id="SvgjsClipPath2855"><path d="M473.49999,188.50001h479.99999v479.99999h-479.99999z" id="SvgjsPath2854" fill="none"></path></clipPath><clipPath id="SvgjsClipPath2853"><path d="M473.5,188.50002h479.99999v479.99999h-479.99999z" id="SvgjsPath2852" fill="none"></path></clipPath><clipPath id="SvgjsClipPath2851"><path d="M473.5,188.50002h479.99999v479.99999h-479.99999z" id="SvgjsPath2850" fill="none"></path></clipPath><clipPath id="SvgjsClipPath2849"><path d="M473.5,188.50001h479.99999v479.99999h-479.99999z" id="SvgjsPath2848" fill="none"></path></clipPath><clipPath id="SvgjsClipPath2847"><path d="M473.5,188.50002h479.99999v479.99999h-479.99999z" id="SvgjsPath2846" fill="none"></path></clipPath><clipPath id="SvgjsClipPath2845"><path d="M473.50001,188.50002h479.99999v479.99999h-479.99999z" id="SvgjsPath2844" fill="none"></path></clipPath><clipPath id="SvgjsClipPath2843"><path d="M473.50001,188.50001h479.99999v479.99999h-479.99999z" id="SvgjsPath2842" fill="none"></path></clipPath><clipPath id="SvgjsClipPath2841"><path d="M473.5,188.50001h479.99999v479.99999h-479.99999z" id="SvgjsPath2840" fill="none"></path></clipPath><clipPath id="SvgjsClipPath2839"><path d="M473.5,188.50002h479.99999v479.99999h-479.99999z" id="SvgjsPath2838" fill="none"></path></clipPath><clipPath id="SvgjsClipPath2837"><path d="M473.5,188.50001h479.99999v479.99999h-479.99999z" id="SvgjsPath2836" fill="none"></path></clipPath><clipPath id="SvgjsClipPath2835"><path d="M473.50001,188.50001h479.99999v479.99999h-479.99999z" id="SvgjsPath2834" fill="none"></path></clipPath><clipPath id="SvgjsClipPath2833"><path d="M473.5,188.50001h479.99999v479.99999h-479.99999z" id="SvgjsPath2832" fill="none"></path></clipPath><clipPath id="SvgjsClipPath2831"><path d="M473.5,188.50002h479.99999v479.99999h-479.99999z" id="SvgjsPath2830" fill="none"></path></clipPath><clipPath id="SvgjsClipPath2829"><path d="M473.49999,188.50001h479.99999v479.99999h-479.99999z" id="SvgjsPath2828" fill="none"></path></clipPath><clipPath id="SvgjsClipPath2827"><path d="M473.49999,188.50002h479.99999v479.99999h-479.99999z" id="SvgjsPath2826" fill="none"></path></clipPath><clipPath id="SvgjsClipPath2825"><path d="M473.50001,188.50002h479.99999v479.99999h-479.99999z" id="SvgjsPath2824" fill="none"></path></clipPath><clipPath id="SvgjsClipPath2823"><path d="M473.5,188.50001h479.99999v479.99999h-479.99999z" id="SvgjsPath2822" fill="none"></path></clipPath><clipPath id="SvgjsClipPath2821"><path d="M473.5,188.50001h479.99999v479.99999h-479.99999z" id="SvgjsPath2820" fill="none"></path></clipPath><clipPath id="SvgjsClipPath2819"><path d="M473.50001,188.50001h479.99999v479.99999h-479.99999z" id="SvgjsPath2818" fill="none"></path></clipPath><clipPath id="SvgjsClipPath2817"><path d="M473.49999,188.50001h479.99999v479.99999h-479.99999z" id="SvgjsPath2816" fill="none"></path></clipPath><clipPath id="SvgjsClipPath2815"><path d="M473.5,188.50001h479.99999v479.99999h-479.99999z" id="SvgjsPath2814" fill="none"></path></clipPath><clipPath id="SvgjsClipPath2813"><path d="M473.5,188.50002h479.99999v479.99999h-479.99999z" id="SvgjsPath2812" fill="none"></path></clipPath><clipPath id="SvgjsClipPath2811"><path d="M473.5,188.50002h479.99999v479.99999h-479.99999z" id="SvgjsPath2810" fill="none"></path></clipPath><clipPath id="SvgjsClipPath2809"><path d="M473.50001,188.50001h479.99999v479.99999h-479.99999z" id="SvgjsPath2808" fill="none"></path></clipPath><clipPath id="SvgjsClipPath2807"><path d="M473.5,188.50002h479.99999v479.99999h-479.99999z" id="SvgjsPath2806" fill="none"></path></clipPath><clipPath id="SvgjsClipPath2805"><path d="M473.5,188.50002h479.99999v479.99999h-479.99999z" id="SvgjsPath2804" fill="none"></path></clipPath><clipPath id="SvgjsClipPath2803"><path d="M473.50001,188.50001h479.99999v479.99999h-479.99999z" id="SvgjsPath2802" fill="none"></path></clipPath><clipPath id="SvgjsClipPath2801"><path d="M473.5,188.50001h479.99999v479.99999h-479.99999z" id="SvgjsPath2800" fill="none"></path></clipPath><clipPath id="SvgjsClipPath2799"><path d="M473.5,188.50002h479.99999v479.99999h-479.99999z" id="SvgjsPath2798" fill="none"></path></clipPath><clipPath id="SvgjsClipPath2797"><path d="M473.49999,188.50001h479.99999v479.99999h-479.99999z" id="SvgjsPath2796" fill="none"></path></clipPath><clipPath id="SvgjsClipPath2795"><path d="M473.50001,188.50001h479.99999v479.99999h-479.99999z" id="SvgjsPath2794" fill="none"></path></clipPath><clipPath id="SvgjsClipPath2793"><path d="M473.5,188.50001h479.99999v479.99999h-479.99999z" id="SvgjsPath2792" fill="none"></path></clipPath><clipPath id="SvgjsClipPath2791"><path d="M473.5,188.50002h479.99999v479.99999h-479.99999z" id="SvgjsPath2790" fill="none"></path></clipPath><clipPath id="SvgjsClipPath2789"><path d="M473.5,188.50001h479.99999v479.99999h-479.99999z" id="SvgjsPath2788" fill="none"></path></clipPath><clipPath id="SvgjsClipPath2787"><path d="M473.5,188.50002h479.99999v479.99999h-479.99999z" id="SvgjsPath2786" fill="none"></path></clipPath><clipPath id="SvgjsClipPath2785"><path d="M473.5,188.50002h479.99999v479.99999h-479.99999z" id="SvgjsPath2784" fill="none"></path></clipPath><clipPath id="SvgjsClipPath2783"><path d="M473.5,188.50001h479.99999v479.99999h-479.99999z" id="SvgjsPath2782" fill="none"></path></clipPath><clipPath id="SvgjsClipPath2781"><path d="M473.5,188.50001h479.99999v479.99999h-479.99999z" id="SvgjsPath2780" fill="none"></path></clipPath><clipPath id="SvgjsClipPath2779"><path d="M473.5,188.50001h479.99999v479.99999h-479.99999z" id="SvgjsPath2778" fill="none"></path></clipPath><clipPath id="SvgjsClipPath2777"><path d="M473.5,188.50001h479.99999v479.99999h-479.99999z" id="SvgjsPath2776" fill="none"></path></clipPath><clipPath id="SvgjsClipPath2775"><path d="M473.49999,188.50001h479.99999v479.99999h-479.99999z" id="SvgjsPath2774" fill="none"></path></clipPath><clipPath id="SvgjsClipPath2773"><path d="M473.5,188.50001h479.99999v479.99999h-479.99999z" id="SvgjsPath2772" fill="none"></path></clipPath><clipPath id="SvgjsClipPath2771"><path d="M473.49999,188.50002h479.99999v479.99999h-479.99999z" id="SvgjsPath2770" fill="none"></path></clipPath><clipPath id="SvgjsClipPath2769"><path d="M473.5,188.50001h479.99999v479.99999h-479.99999z" id="SvgjsPath2768" fill="none"></path></clipPath><clipPath id="SvgjsClipPath2767"><path d="M473.49999,188.50002h479.99999v479.99999h-479.99999z" id="SvgjsPath2766" fill="none"></path></clipPath><clipPath id="SvgjsClipPath2765"><path d="M473.5,188.50001h479.99999v479.99999h-479.99999z" id="SvgjsPath2764" fill="none"></path></clipPath><clipPath id="SvgjsClipPath2763"><path d="M473.49999,188.50001h479.99999v479.99999h-479.99999z" id="SvgjsPath2762" fill="none"></path></clipPath><clipPath id="SvgjsClipPath2761"><path d="M473.5,188.50001h479.99999v479.99999h-479.99999z" id="SvgjsPath2760" fill="none"></path></clipPath><clipPath id="SvgjsClipPath2759"><path d="M473.5,188.50001h479.99999v479.99999h-479.99999z" id="SvgjsPath2758" fill="none"></path></clipPath><clipPath id="SvgjsClipPath2757"><path d="M473.50001,188.50002h479.99999v479.99999h-479.99999z" id="SvgjsPath2756" fill="none"></path></clipPath><clipPath id="SvgjsClipPath2755"><path d="M473.5,188.50001h479.99999v479.99999h-479.99999z" id="SvgjsPath2754" fill="none"></path></clipPath><clipPath id="SvgjsClipPath2753"><path d="M473.49999,188.50001h479.99999v479.99999h-479.99999z" id="SvgjsPath2752" fill="none"></path></clipPath><clipPath id="SvgjsClipPath2751"><path d="M473.5,188.50001h479.99999v479.99999h-479.99999z" id="SvgjsPath2750" fill="none"></path></clipPath><clipPath id="SvgjsClipPath2749"><path d="M473.5,188.50002h479.99999v479.99999h-479.99999z" id="SvgjsPath2748" fill="none"></path></clipPath><clipPath id="SvgjsClipPath2747"><path d="M473.5,188.50001h479.99999v479.99999h-479.99999z" id="SvgjsPath2746" fill="none"></path></clipPath><clipPath id="SvgjsClipPath2745"><path d="M473.5,188.50002h479.99999v479.99999h-479.99999z" id="SvgjsPath2744" fill="none"></path></clipPath><clipPath id="SvgjsClipPath2743"><path d="M473.49999,188.50001h479.99999v479.99999h-479.99999z" id="SvgjsPath2742" fill="none"></path></clipPath><clipPath id="SvgjsClipPath2741"><path d="M473.49999,188.50002h479.99999v479.99999h-479.99999z" id="SvgjsPath2740" fill="none"></path></clipPath><clipPath id="SvgjsClipPath2739"><path d="M473.49999,188.50001h479.99999v479.99999h-479.99999z" id="SvgjsPath2738" fill="none"></path></clipPath><clipPath id="SvgjsClipPath2737"><path d="M473.5,188.50001h479.99999v479.99999h-479.99999z" id="SvgjsPath2736" fill="none"></path></clipPath><clipPath id="SvgjsClipPath2735"><path d="M473.5,188.50001h479.99999v479.99999h-479.99999z" id="SvgjsPath2734" fill="none"></path></clipPath><clipPath id="SvgjsClipPath2733"><path d="M473.5,188.50002h479.99999v479.99999h-479.99999z" id="SvgjsPath2732" fill="none"></path></clipPath><clipPath id="SvgjsClipPath2731"><path d="M473.5,188.50001h479.99999v479.99999h-479.99999z" id="SvgjsPath2730" fill="none"></path></clipPath></defs><g fill="none" fill-rule="nonzero" stroke="none" stroke-width="1" stroke-linecap="butt" stroke-linejoin="miter" stroke-miterlimit="10" stroke-dasharray="" stroke-dashoffset="0" font-family="none" font-weight="none" font-size="none" text-anchor="none" style="mix-blend-mode: normal;" transform="matrix(0.4850010275840759, 0, 0, 0.4653320014476776, -160.56039428710938, 137.67735290527344)" id="SvgjsG2729"><g><g id="SvgjsG2728"><g id="SvgjsG2727"><g clip-path="url(#clip-1)" id="SvgjsG2726"><g id="SvgjsG2725"><g clip-path="url(#clip-2)" id="SvgjsG2724" fill="none"></g><g clip-path="url(#clip-3)" id="SvgjsG2723"><path d="M706.024,417.39253c0,0 -40.61867,-59.23333 -94.32133,-76.68266c-53.70267,-17.45067 -62.36933,6.71867 -61.06267,16.89067c1.30533,10.17333 9.97067,11.03733 9.97067,11.03733c0,0 0.59333,7.80133 9.14,9.93867c0,0 -1.068,9.02133 8.54667,14.6c0,0 -2.18667,10.20933 4.42667,16.5c0,0 -1.256,11.752 5.528,17.80533c0,0 -1.28933,12.108 7.852,16.916c9.14,4.808 13.42933,3.85733 13.42933,3.85733c0,0 -6.90133,7.716 -7.376,15.66933c-0.47467,7.95333 3.79867,10.84 3.79867,10.84c0,0 -1.424,8.03467 1.128,11.71467c2.552,3.67867 4.27333,4.98533 4.27333,4.98533c0,0 0.296,7.47867 3.50133,11.692c3.20533,4.21467 6.35067,4.452 6.35067,4.452c0,0 0,7.00267 5.34133,10.68267c5.34267,3.68 6.82667,2.908 6.82667,2.908c0,0 1.12667,7.716 8.19067,10.38667c7.06267,2.67067 9.08,1.84 9.08,1.84c0,0 6.944,4.51067 13.05733,3.91733c6.11333,-0.59333 26.056,-26.74667 35.908,-59.46l9.85333,-32.71333v-27.06533z" id="SvgjsPath2722" fill="#050505"></path></g><g clip-path="url(#clip-4)" id="SvgjsG2721"><path d="M632.766,360.30147c0.03867,0.10133 0.07333,0.20133 0.10533,0.30267c-5.048,-0.88533 -10.984,-1.89067 -16.144,-2.664c-15.07733,-2.26267 -28.084,-1.964 -38.85733,0.86667c-0.56,0.05467 -1.22,0.132 -2.004,0.24c-3.80133,0.536 -7.18267,-1.54133 -6.65067,-4.864c0.536,-3.324 8.48667,-9.08133 23.92,-7.18267c7.90133,0.97067 17.82133,2.03733 29.016,5.63733c3.46267,1.93333 9.81467,5.696 10.61467,7.664" id="SvgjsPath2720" fill="#5fc1ed"></path></g><g clip-path="url(#clip-5)" id="SvgjsG2719"><path d="M643.89347,362.59613c-1.32,-0.244 -5.07467,-0.94 -9.78,-1.77467c-0.05467,-0.31867 -0.14,-0.64 -0.272,-0.95867c-1.28933,-3.18 -5.98,-5.12933 -6.17733,-5.21067l-1.66133,-0.69467c5.69867,2.08933 11.69467,4.868 17.89067,8.63867" id="SvgjsPath2718" fill="#5fc1ed"></path></g><g clip-path="url(#clip-6)" id="SvgjsG2717"><path d="M595.7476,421.7252c2.21067,-0.11067 4.26133,-0.47333 5.49867,-0.732c10.27867,-4.048 33.56667,-12.176 63.42133,-16.09067c-7.73867,-3.75867 -15.04133,-7.68667 -20.89333,-11.22c-3.90267,0.31733 -27.488,2.472 -47.904,9.608c-2.28933,1.184 -6.73867,4.16933 -7.48267,9.76933c-1.00933,7.59733 3.79867,8.844 7.36,8.66533" id="SvgjsPath2716" fill="#5fc1ed"></path></g><g clip-path="url(#clip-7)" id="SvgjsG2715"><path d="M616.04133,369.21227c-2.604,-0.41333 -15.424,-2.03467 -30.41467,3.04c-2.452,1.34667 -5.26667,3.344 -5.78533,5.612c-0.94933,4.15467 3.264,8.112 6.05333,7.94267c0.88,-0.052 2.11467,-0.26667 3.392,-0.53333c15.552,-5.10533 31.01467,-5.768 35.74667,-5.84667c-4.436,-3.712 -8.46933,-7.38533 -8.992,-10.21467" id="SvgjsPath2714" fill="#5fc1ed"></path></g><g clip-path="url(#clip-8)" id="SvgjsG2713"><path d="M642.10267,392.66027c-4.26933,-2.65067 -7.62667,-5.036 -9.6,-6.896c-1.40533,-1.324 -3.264,-2.85733 -5.23067,-4.48133c-0.28267,-0.23333 -0.56533,-0.46667 -0.848,-0.7c-1.11867,-0.012 -19.208,-0.07867 -37.24,5.95067c-2.41467,1.632 -4.904,4.15467 -6.01867,7.94933c-2.084,7.09467 3.68667,9.372 7.50133,9.51467c19.652,-7.892 44.12933,-10.65733 51.436,-11.33733" id="SvgjsPath2712" fill="#5fc1ed"></path></g><g clip-path="url(#clip-9)" id="SvgjsG2711"><path d="M644.19,363.8356c-0.08133,-0.01467 -4.33733,-0.81333 -10.04933,-1.824c-0.05333,0.416 -0.168,0.83333 -0.34933,1.24667c-1.24667,2.86267 -4.248,2.75467 -7.42667,2.64133c-2.60267,-0.09467 -5.55067,-0.2 -8.14267,1.2c-0.66533,0.35867 -1.01467,0.80133 -1.06933,1.35333c-0.268,2.744 5.90267,7.83867 10.86133,11.932c1.98267,1.636 3.85333,3.18133 5.288,4.532c2.132,2.01067 5.916,4.648 10.74133,7.576c0.124,-0.00933 0.2,-0.01467 0.21467,-0.016l0.01067,0.152c8.98133,5.43067 21.496,11.84 33.73333,17.10667c11.596,4.99067 19.14267,7.996 23.18533,9.55333c-4.98933,-6.704 -22.812,-29.79067 -44.192,-47.36c-4.27867,-3.516 -8.676,-5.55067 -12.80533,-8.09333" id="SvgjsPath2710" fill="#5fc1ed"></path></g><g clip-path="url(#clip-10)" id="SvgjsG2709"><path d="M581.20613,372.1068c0.82,-0.10533 1.59467,-0.224 2.32133,-0.34533c15.62667,-5.76267 29.30933,-4.212 32.516,-3.72667c0.17467,-0.812 0.71867,-1.47067 1.62533,-1.96c2.87067,-1.55067 5.98533,-1.43867 8.73733,-1.34c3.33733,0.12 5.432,0.09067 6.31867,-1.94133c0.144,-0.332 0.23067,-0.65867 0.26533,-0.98533c-5.10933,-0.89867 -11.17867,-1.928 -16.43733,-2.71733c-15.312,-2.296 -28.44133,-1.93467 -39.216,1.06267c-2.056,1.08133 -4.448,2.75467 -5.212,4.94933c-1.424,4.096 4.22533,7.63067 9.08133,7.004" id="SvgjsPath2708" fill="#5fc1ed"></path></g><g clip-path="url(#clip-11)" id="SvgjsG2707"><path d="M606.02187,440.6892c7.26,-3.76933 20.93067,-9.49867 41.97733,-13.06933c29.20933,-4.95333 49.04,-6.604 53.56133,-6.94c-3.82133,-1.46 -11.60533,-4.532 -24.01867,-9.87467c-3.75333,-1.61467 -7.532,-3.34 -11.232,-5.11067l0.02,0.168c-36.02133,4.516 -62.72267,15.296 -68.952,17.976c-2.32133,1.932 -4.436,4.70133 -3.82667,8.15467c1.24667,7.06267 6.82533,9.25867 8.60667,9.25867c1.04933,0 2.69067,-0.30933 3.864,-0.56267" id="SvgjsPath2706" fill="#5fc1ed"></path></g><g clip-path="url(#clip-12)" id="SvgjsG2705"><path d="M615.51173,444.21973c4.86667,-0.53467 17.68667,-4.15467 29.26,-7.53733c11.57467,-3.384 34.85067,-8.552 42.02267,-9.85333c8.128,-1.47467 15.78667,-1.84 15.78667,-1.84v-3.21467c-0.96933,0.064 -21.83867,1.47333 -54.388,6.99467c-22.90533,3.88533 -36.96667,10.324 -43.48533,13.94267c-0.15733,0.224 -0.23333,0.42 -0.176,0.55867c0.296,0.712 6.11333,1.484 10.98,0.94933" id="SvgjsPath2704" fill="#5fc1ed"></path></g><g clip-path="url(#clip-13)" id="SvgjsG2703"><path d="M702.63,429.40053c-1.25867,0.33333 -5.36533,1.432 -10.47467,2.904h-0.004c-6.924,1.988 -15.69067,4.652 -21.708,6.99333c-1.324,-0.08933 -12.65733,-0.688 -26.604,3.19867h-0.004c-1.37867,0.384 -2.784,0.812 -4.20533,1.28933c-14.16,4.744 -26.41733,11.53467 -29.80667,13.488c-0.20933,-0.05867 -0.33333,-0.21733 -0.276,-0.55867c0.22133,-1.29333 7.47867,-8.68133 12.596,-11.57467c5.12133,-2.892 31.38267,-10.14933 37.88267,-11.30667c6.5,-1.156 39.708,-7.47733 42.2,-7.47733c0,0 0.11333,1.62667 0.404,3.044" id="SvgjsPath2702" fill="#5fc1ed"></path></g><g clip-path="url(#clip-14)" id="SvgjsG2701"><path d="M702.5816,421.19107v0v0.00133z" id="SvgjsPath2700" fill="#5fc1ed"></path></g><g clip-path="url(#clip-15)" id="SvgjsG2699"><path d="M703.11907,430.9924c-1.16533,1.08267 -3.66933,3.436 -6.25067,6.076c-2.22933,2.276 -4.52,4.764 -6.06133,6.83333c-3.936,5.28133 -20.04933,22.83067 -25.28,25.74667c-4.84133,2.69733 -14.54,6.53733 -16.61733,4.58133c-0.808,-0.76133 -0.21333,-2.49733 0.424,-3.82133c4.53467,-9.40267 20.17333,-28.37333 21.548,-30.032c6.496,-2.52667 16.20533,-5.428 23.31067,-7.44667h0.004c4.28267,-1.21467 7.61867,-2.108 8.728,-2.40267c0.05867,0.17067 0.12533,0.32533 0.19067,0.45733c0.004,0.004 0.004,0.004 0.004,0.008" id="SvgjsPath2698" fill="#5fc1ed"></path></g><g clip-path="url(#clip-16)" id="SvgjsG2697"><path d="M703.98107,434.99933c-0.48133,0.88133 -2.47733,4.59333 -4.95867,9.72667v0.00267c-2.64,5.468 -5.824,12.54533 -8.29733,19.53733c-3.08933,8.732 -6.26533,19.92667 -9.06933,29.8c-1.716,6.03333 -3.34267,11.76 -4.67867,15.95733c0,0.004 0,0.004 -0.004,0.008c-0.104,0.33733 -0.21333,0.668 -0.31733,0.98667c-1.03733,3.16 -2.30267,6.38667 -3.56933,9.356c-1.20667,2.84667 -2.41467,5.456 -3.412,7.53333c-1.67733,1.956 -4.368,4.18133 -8.13467,4.56933c-6.90267,0.70667 -7.948,-5.808 -7.74933,-7.796c0.97467,-2.268 2.492,-5.80933 4.27467,-9.96667l0.004,-0.004c4.84133,-11.30667 11.624,-27.19467 14.692,-34.62533c4.736,-11.46933 8.2,-22.28267 8.612,-23.58667c4.488,-4.792 8.576,-9.50133 10.36933,-11.90133c1.39067,-1.86267 3.444,-4.11467 5.50667,-6.23867c2.56133,-2.644 5.14,-5.08667 6.444,-6.30533c0.31067,0.544 0.48933,0.83067 0.48933,0.83067c0,0 -0.33733,0.384 -0.20133,2.116" id="SvgjsPath2696" fill="#5fc1ed"></path></g><g clip-path="url(#clip-17)" id="SvgjsG2695"><path d="M662.0176,472.6724c-3.38933,5.156 -13.59733,20.768 -18.43067,28.972c-0.08933,0.156 -0.17867,0.30667 -0.268,0.46267l-0.004,0.004c-2.71333,4.67867 -4.79067,9.35333 -6.228,12.964c-0.62933,0.536 -1.432,0.916 -2.43467,0.88533c-3.24933,-0.08533 -9.124,-5.07467 -9.26,-9.21467c-0.04267,-1.35467 0.32667,-2.76 0.83467,-4.03333c1.52267,-2.112 4.236,-5.808 7.552,-10.03733c0,-0.00267 0.004,-0.00267 0.004,-0.00667c4.392,-5.59467 9.84267,-12.12267 14.99467,-17.15333c0.57067,0.26667 1.28533,0.388 2.10133,0.388c3.11733,0 7.69067,-1.69333 11.13867,-3.23067" id="SvgjsPath2694" fill="#5fc1ed"></path></g><g clip-path="url(#clip-18)" id="SvgjsG2693"><path d="M706.5592,441.8444c0,0 -2.28267,6.30533 -5.38133,15.57733c-2.788,8.35067 -6.24,19.11333 -9.28,29.82933c-6.40933,22.61333 -20.11867,39.88267 -20.11867,39.88267v-0.95067c1.92533,-4.14267 4.26667,-9.56267 5.98267,-14.80533c1.40133,-4.27867 3.156,-10.45467 5.012,-16.99333c2.8,-9.85867 5.972,-21.032 9.05067,-29.72933c2.27867,-6.44533 5.164,-12.96 7.664,-18.20533c2.016,-4.232 3.78267,-7.63733 4.772,-9.50933c0.60933,2.88533 2.29867,4.904 2.29867,4.904" id="SvgjsPath2692" fill="#5fc1ed"></path></g><g clip-path="url(#clip-19)" id="SvgjsG2691"><path d="M679.50893,458.466c-1.324,4.00667 -4.20133,12.39733 -7.824,21.172c-3.34267,8.09467 -11.104,26.25067 -15.94933,37.556l-0.004,0.004c-1.40533,3.28133 -2.56667,5.984 -3.3,7.696c-1.10267,1.22267 -2.75333,2.54267 -4.86933,2.776c-4.096,0.44267 -8.992,-5.032 -9.392,-8.10267c-0.18667,-1.41733 -0.01067,-3.16533 0.22533,-4.632c1.456,-3.604 3.52533,-8.16533 6.19733,-12.7c0.66667,-1.13467 1.436,-2.408 2.28267,-3.77867v-0.008c0,-0.00267 0.004,-0.00667 0.008,-0.00667c0,-0.004 0.00267,-0.008 0.00267,-0.008c6.18133,-10.064 16.164,-25.22133 17.14267,-26.70133c0.86933,-0.42267 1.584,-0.8 2.06933,-1.068c2.73733,-1.52533 8.16933,-6.716 13.41067,-12.19867" id="SvgjsPath2690" fill="#5fc1ed"></path></g><g clip-path="url(#clip-20)" id="SvgjsG2689"><path d="M669.34413,440.41173c-0.33067,0.396 -0.75733,0.92 -1.26133,1.53733c-1.44133,0.71867 -15.888,7.87867 -26.77067,11.81067c-5.79733,2.09733 -12.88267,5.80933 -19.02533,9.544l-0.004,0.004c-3.34267,2.02667 -6.41067,4.06533 -8.82933,5.85067c-1.75867,0.56 -3.89467,0.72667 -5.10933,-1.048c-2.17467,-3.18 0.03067,-7.828 1.51067,-9.508c2.20933,-1.29733 14.36533,-8.24 28.78533,-13.244c0,-0.004 0.004,-0.004 0.004,-0.004c0.45067,-0.156 0.904,-0.31067 1.35867,-0.46267c13.72133,-4.6 25.696,-4.608 29.34133,-4.48" id="SvgjsPath2688" fill="#5fc1ed"></path></g><g clip-path="url(#clip-21)" id="SvgjsG2687"><path d="M666.35067,444.10027c-2.94667,3.67733 -7.164,9.06933 -10.91067,14.35467c-9.908,3.832 -19.688,11.02933 -27.228,17.53733c-4.392,3.78533 -8.02133,7.34133 -10.476,9.85733c-0.908,0.16 -2.32133,0.19467 -4.13867,-0.46933c-3.292,-1.2 -3.724,-9.54667 -1.95733,-12.50933c0.428,-0.71867 0.928,-1.39067 1.43733,-1.988c2.81467,-2.16667 6.82133,-4.84133 11.228,-7.44667l0.004,-0.004c5.716,-3.38667 12.09867,-6.65867 17.39867,-8.57333c8.78267,-3.176 19.85867,-8.43333 24.64267,-10.75867" id="SvgjsPath2686" fill="#5fc1ed"></path></g><g clip-path="url(#clip-22)" id="SvgjsG2685"><path d="M648.28467,469.90413c-1.068,2.21733 -1.21067,3.856 -0.42667,4.884c-5.14533,5.036 -10.56533,11.528 -14.94,17.10267c-2.532,3.22267 -4.71467,6.14267 -6.29467,8.29733c-1.25733,1.00267 -2.784,1.92667 -3.90133,1.66267c-2.268,-0.532 -7.3,-5.07467 -6.58533,-9.17067c0.368,-2.128 1.09467,-3.98 1.708,-5.26933c1.89067,-1.968 4.69467,-4.776 8.13867,-7.90133c0.004,0 0.004,-0.004 0.004,-0.004c7.36533,-6.67733 17.66133,-14.812 28.22667,-19.296c-2.46533,3.568 -4.628,6.992 -5.92933,9.69467" id="SvgjsPath2684" fill="#5fc1ed"></path></g><g clip-path="url(#clip-23)" id="SvgjsG2683"><path d="M712.9088,417.39253c0,0 40.61867,-59.23333 94.32133,-76.68266c53.70267,-17.45067 62.36933,6.71867 61.06267,16.89067c-1.30533,10.17333 -9.97067,11.03733 -9.97067,11.03733c0,0 -0.59333,7.80133 -9.14,9.93867c0,0 1.068,9.02133 -8.54667,14.6c0,0 2.18667,10.20933 -4.42667,16.5c0,0 1.256,11.752 -5.528,17.80533c0,0 1.28933,12.108 -7.852,16.916c-9.14,4.808 -13.42933,3.85733 -13.42933,3.85733c0,0 6.90133,7.716 7.376,15.66933c0.47467,7.95333 -3.79867,10.84 -3.79867,10.84c0,0 1.424,8.03467 -1.128,11.71467c-2.552,3.67867 -4.27333,4.98533 -4.27333,4.98533c0,0 -0.296,7.47867 -3.50133,11.692c-3.20533,4.21467 -6.35067,4.452 -6.35067,4.452c0,0 0,7.00267 -5.34133,10.68267c-5.34267,3.68 -6.82667,2.908 -6.82667,2.908c0,0 -1.12667,7.716 -8.19067,10.38667c-7.06267,2.67067 -9.08,1.84 -9.08,1.84c0,0 -6.944,4.51067 -13.05733,3.91733c-6.11333,-0.59333 -26.056,-26.74667 -35.908,-59.46l-9.85333,-32.71333v-27.06533z" id="SvgjsPath2682" fill="#050505"></path></g><g clip-path="url(#clip-24)" id="SvgjsG2681"><path d="M786.16693,360.30147c-0.03867,0.10133 -0.07333,0.20133 -0.10533,0.30267c5.048,-0.88533 10.984,-1.89067 16.144,-2.664c15.07733,-2.26267 28.084,-1.964 38.85733,0.86667c0.56,0.05467 1.22,0.132 2.004,0.24c3.80133,0.536 7.18267,-1.54133 6.65067,-4.864c-0.536,-3.324 -8.48667,-9.08133 -23.92,-7.18267c-7.90133,0.97067 -17.82133,2.03733 -29.016,5.63733c-3.46267,1.93333 -9.81467,5.696 -10.61467,7.664" id="SvgjsPath2680" fill="#5fc1ed"></path></g><g clip-path="url(#clip-25)" id="SvgjsG2679"><path d="M775.03947,362.59613c1.32,-0.244 5.07467,-0.94 9.78,-1.77467c0.05467,-0.31867 0.14,-0.64 0.272,-0.95867c1.28933,-3.18 5.98,-5.12933 6.17733,-5.21067l1.66133,-0.69467c-5.69867,2.08933 -11.69467,4.868 -17.89067,8.63867" id="SvgjsPath2678" fill="#5fc1ed"></path></g><g clip-path="url(#clip-26)" id="SvgjsG2677"><path d="M823.18533,421.7252c-2.21067,-0.11067 -4.26133,-0.47333 -5.49867,-0.732c-10.27867,-4.048 -33.56667,-12.176 -63.42133,-16.09067c7.73867,-3.75867 15.04133,-7.68667 20.89333,-11.22c3.90267,0.31733 27.488,2.472 47.904,9.608c2.28933,1.184 6.73867,4.16933 7.48267,9.76933c1.00933,7.59733 -3.79867,8.844 -7.36,8.66533" id="SvgjsPath2676" fill="#5fc1ed"></path></g><g clip-path="url(#clip-27)" id="SvgjsG2675"><path d="M802.8916,369.21227c2.604,-0.41333 15.424,-2.03467 30.41467,3.04c2.452,1.34667 5.26667,3.344 5.78533,5.612c0.94933,4.15467 -3.264,8.112 -6.05333,7.94267c-0.88,-0.052 -2.11467,-0.26667 -3.392,-0.53333c-15.552,-5.10533 -31.01467,-5.768 -35.74667,-5.84667c4.436,-3.712 8.46933,-7.38533 8.992,-10.21467" id="SvgjsPath2674" fill="#5fc1ed"></path></g><g clip-path="url(#clip-28)" id="SvgjsG2673"><path d="M776.83013,392.66027c4.26933,-2.65067 7.62667,-5.036 9.6,-6.896c1.40533,-1.324 3.264,-2.85733 5.23067,-4.48133c0.28267,-0.23333 0.56533,-0.46667 0.848,-0.7c1.11867,-0.012 19.208,-0.07867 37.24,5.95067c2.41467,1.632 4.904,4.15467 6.01867,7.94933c2.084,7.09467 -3.68667,9.372 -7.50133,9.51467c-19.652,-7.892 -44.12933,-10.65733 -51.436,-11.33733" id="SvgjsPath2672" fill="#5fc1ed"></path></g><g clip-path="url(#clip-29)" id="SvgjsG2671"><path d="M774.74293,363.8356c0.08133,-0.01467 4.33733,-0.81333 10.04933,-1.824c0.05333,0.416 0.168,0.83333 0.34933,1.24667c1.24667,2.86267 4.248,2.75467 7.42667,2.64133c2.60267,-0.09467 5.55067,-0.2 8.14267,1.2c0.66533,0.35867 1.01467,0.80133 1.06933,1.35333c0.268,2.744 -5.90267,7.83867 -10.86133,11.932c-1.98267,1.636 -3.85333,3.18133 -5.288,4.532c-2.132,2.01067 -5.916,4.648 -10.74133,7.576c-0.124,-0.00933 -0.2,-0.01467 -0.21467,-0.016l-0.01067,0.152c-8.98133,5.43067 -21.496,11.84 -33.73333,17.10667c-11.596,4.99067 -19.14267,7.996 -23.18533,9.55333c4.98933,-6.704 22.812,-29.79067 44.192,-47.36c4.27867,-3.516 8.676,-5.55067 12.80533,-8.09333" id="SvgjsPath2670" fill="#5fc1ed"></path></g><g clip-path="url(#clip-30)" id="SvgjsG2669"><path d="M837.7268,372.1068c-0.82,-0.10533 -1.59467,-0.224 -2.32133,-0.34533c-15.62667,-5.76267 -29.30933,-4.212 -32.516,-3.72667c-0.17467,-0.812 -0.71867,-1.47067 -1.62533,-1.96c-2.87067,-1.55067 -5.98533,-1.43867 -8.73733,-1.34c-3.33733,0.12 -5.432,0.09067 -6.31867,-1.94133c-0.144,-0.332 -0.23067,-0.65867 -0.26533,-0.98533c5.10933,-0.89867 11.17867,-1.928 16.43733,-2.71733c15.312,-2.296 28.44133,-1.93467 39.216,1.06267c2.056,1.08133 4.448,2.75467 5.212,4.94933c1.424,4.096 -4.22533,7.63067 -9.08133,7.004" id="SvgjsPath2668" fill="#5fc1ed"></path></g><g clip-path="url(#clip-31)" id="SvgjsG2667"><path d="M812.91093,440.6892c-7.26,-3.76933 -20.93067,-9.49867 -41.97733,-13.06933c-29.20933,-4.95333 -49.04,-6.604 -53.56133,-6.94c3.82133,-1.46 11.60533,-4.532 24.01867,-9.87467c3.75333,-1.61467 7.532,-3.34 11.232,-5.11067l-0.02,0.168c36.02133,4.516 62.72267,15.296 68.952,17.976c2.32133,1.932 4.436,4.70133 3.82667,8.15467c-1.24667,7.06267 -6.82533,9.25867 -8.60667,9.25867c-1.04933,0 -2.69067,-0.30933 -3.864,-0.56267" id="SvgjsPath2666" fill="#5fc1ed"></path></g><g clip-path="url(#clip-32)" id="SvgjsG2665"><path d="M803.42107,444.21973c-4.86667,-0.53467 -17.68667,-4.15467 -29.26,-7.53733c-11.57467,-3.384 -34.85067,-8.552 -42.02267,-9.85333c-8.128,-1.47467 -15.78667,-1.84 -15.78667,-1.84v-3.21467c0.96933,0.064 21.83867,1.47333 54.388,6.99467c22.90533,3.88533 36.96667,10.324 43.48533,13.94267c0.15733,0.224 0.23333,0.42 0.176,0.55867c-0.296,0.712 -6.11333,1.484 -10.98,0.94933" id="SvgjsPath2664" fill="#5fc1ed"></path></g><g clip-path="url(#clip-33)" id="SvgjsG2663"><path d="M716.30293,429.40053c1.25867,0.33333 5.36533,1.432 10.47467,2.904h0.004c6.924,1.988 15.69067,4.652 21.708,6.99333c1.324,-0.08933 12.65733,-0.688 26.604,3.19867h0.004c1.37867,0.384 2.784,0.812 4.20533,1.28933c14.16,4.744 26.41733,11.53467 29.80667,13.488c0.20933,-0.05867 0.33333,-0.21733 0.276,-0.55867c-0.22133,-1.29333 -7.47867,-8.68133 -12.596,-11.57467c-5.12133,-2.892 -31.38267,-10.14933 -37.88267,-11.30667c-6.5,-1.156 -39.708,-7.47733 -42.2,-7.47733c0,0 -0.11333,1.62667 -0.404,3.044" id="SvgjsPath2662" fill="#5fc1ed"></path></g><g clip-path="url(#clip-34)" id="SvgjsG2661"><path d="M716.3512,421.19107v0v0.00133z" id="SvgjsPath2660" fill="#5fc1ed"></path></g><g clip-path="url(#clip-35)" id="SvgjsG2659"><path d="M715.81373,430.9924c1.16533,1.08267 3.66933,3.436 6.25067,6.076c2.22933,2.276 4.52,4.764 6.06133,6.83333c3.936,5.28133 20.04933,22.83067 25.28,25.74667c4.84133,2.69733 14.54,6.53733 16.61733,4.58133c0.808,-0.76133 0.21333,-2.49733 -0.424,-3.82133c-4.53467,-9.40267 -20.17333,-28.37333 -21.548,-30.032c-6.496,-2.52667 -16.20533,-5.428 -23.31067,-7.44667h-0.004c-4.28267,-1.21467 -7.61867,-2.108 -8.728,-2.40267c-0.05867,0.17067 -0.12533,0.32533 -0.19067,0.45733c-0.004,0.004 -0.004,0.004 -0.004,0.008" id="SvgjsPath2658" fill="#5fc1ed"></path></g><g clip-path="url(#clip-36)" id="SvgjsG2657"><path d="M714.95173,434.99933c0.48133,0.88133 2.47733,4.59333 4.95867,9.72667v0.00267c2.64,5.468 5.824,12.54533 8.29733,19.53733c3.08933,8.732 6.26533,19.92667 9.06933,29.8c1.716,6.03333 3.34267,11.76 4.67867,15.95733c0,0.004 0,0.004 0.004,0.008c0.104,0.33733 0.21333,0.668 0.31733,0.98667c1.03733,3.16 2.30267,6.38667 3.56933,9.356c1.20667,2.84667 2.41467,5.456 3.412,7.53333c1.67733,1.956 4.368,4.18133 8.13467,4.56933c6.90267,0.70667 7.948,-5.808 7.74933,-7.796c-0.97467,-2.268 -2.492,-5.80933 -4.27467,-9.96667l-0.004,-0.004c-4.84133,-11.30667 -11.624,-27.19467 -14.692,-34.62533c-4.736,-11.46933 -8.2,-22.28267 -8.612,-23.58667c-4.488,-4.792 -8.576,-9.50133 -10.36933,-11.90133c-1.39067,-1.86267 -3.444,-4.11467 -5.50667,-6.23867c-2.56133,-2.644 -5.14,-5.08667 -6.444,-6.30533c-0.31067,0.544 -0.48933,0.83067 -0.48933,0.83067c0,0 0.33733,0.384 0.20133,2.116" id="SvgjsPath2656" fill="#5fc1ed"></path></g><g clip-path="url(#clip-37)" id="SvgjsG2655"><path d="M756.9152,472.6724c3.38933,5.156 13.59733,20.768 18.43067,28.972c0.08933,0.156 0.17867,0.30667 0.268,0.46267l0.004,0.004c2.71333,4.67867 4.79067,9.35333 6.228,12.964c0.62933,0.536 1.432,0.916 2.43467,0.88533c3.24933,-0.08533 9.124,-5.07467 9.26,-9.21467c0.04267,-1.35467 -0.32667,-2.76 -0.83467,-4.03333c-1.52267,-2.112 -4.236,-5.808 -7.552,-10.03733c0,-0.00267 -0.004,-0.00267 -0.004,-0.00667c-4.392,-5.59467 -9.84267,-12.12267 -14.99467,-17.15333c-0.57067,0.26667 -1.28533,0.388 -2.10133,0.388c-3.11733,0 -7.69067,-1.69333 -11.13867,-3.23067" id="SvgjsPath2654" fill="#5fc1ed"></path></g><g clip-path="url(#clip-38)" id="SvgjsG2653"><path d="M712.3736,441.8444c0,0 2.28267,6.30533 5.38133,15.57733c2.788,8.35067 6.24,19.11333 9.28,29.82933c6.40933,22.61333 20.11867,39.88267 20.11867,39.88267v-0.95067c-1.92533,-4.14267 -4.26667,-9.56267 -5.98267,-14.80533c-1.40133,-4.27867 -3.156,-10.45467 -5.012,-16.99333c-2.8,-9.85867 -5.972,-21.032 -9.05067,-29.72933c-2.27867,-6.44533 -5.164,-12.96 -7.664,-18.20533c-2.016,-4.232 -3.78133,-7.63733 -4.772,-9.50933c-0.60933,2.88533 -2.29867,4.904 -2.29867,4.904" id="SvgjsPath2652" fill="#5fc1ed"></path></g><g clip-path="url(#clip-39)" id="SvgjsG2651"><path d="M739.42387,458.466c1.324,4.00667 4.20133,12.39733 7.824,21.172c3.34267,8.09467 11.104,26.25067 15.94933,37.556l0.004,0.004c1.40533,3.28133 2.56667,5.984 3.3,7.696c1.10267,1.22267 2.75333,2.54267 4.86933,2.776c4.096,0.44267 8.992,-5.032 9.392,-8.10267c0.18667,-1.41733 0.01067,-3.16533 -0.22533,-4.632c-1.456,-3.604 -3.52533,-8.16533 -6.19733,-12.7c-0.66667,-1.13467 -1.436,-2.408 -2.28267,-3.77867v-0.008c0,-0.00267 -0.004,-0.00667 -0.008,-0.00667c0,-0.004 -0.00267,-0.008 -0.00267,-0.008c-6.18133,-10.064 -16.164,-25.22133 -17.14267,-26.70133c-0.86933,-0.42267 -1.584,-0.8 -2.06933,-1.068c-2.73733,-1.52533 -8.16933,-6.716 -13.41067,-12.19867" id="SvgjsPath2650" fill="#5fc1ed"></path></g><g clip-path="url(#clip-40)" id="SvgjsG2649"><path d="M749.58867,440.41173c0.33067,0.396 0.75733,0.92 1.26133,1.53733c1.44133,0.71867 15.888,7.87867 26.77067,11.81067c5.79733,2.09733 12.88267,5.80933 19.02533,9.544l0.004,0.004c3.34267,2.02667 6.41067,4.06533 8.82933,5.85067c1.75867,0.56 3.89467,0.72667 5.10933,-1.048c2.17467,-3.18 -0.03067,-7.828 -1.51067,-9.508c-2.20933,-1.29733 -14.36533,-8.24 -28.78533,-13.244c0,-0.004 -0.004,-0.004 -0.004,-0.004c-0.45067,-0.156 -0.904,-0.31067 -1.35867,-0.46267c-13.72133,-4.6 -25.696,-4.608 -29.34133,-4.48" id="SvgjsPath2648" fill="#5fc1ed"></path></g><g clip-path="url(#clip-41)" id="SvgjsG2647"><path d="M752.58213,444.10027c2.94667,3.67733 7.164,9.06933 10.91067,14.35467c9.908,3.832 19.688,11.02933 27.228,17.53733c4.392,3.78533 8.02133,7.34133 10.476,9.85733c0.908,0.16 2.32133,0.19467 4.13867,-0.46933c3.292,-1.2 3.724,-9.54667 1.95733,-12.50933c-0.428,-0.71867 -0.928,-1.39067 -1.43733,-1.988c-2.81467,-2.16667 -6.82133,-4.84133 -11.228,-7.44667l-0.004,-0.004c-5.716,-3.38667 -12.09867,-6.65867 -17.39867,-8.57333c-8.78267,-3.176 -19.85867,-8.43333 -24.64267,-10.75867" id="SvgjsPath2646" fill="#5fc1ed"></path></g><g clip-path="url(#clip-42)" id="SvgjsG2645"><path d="M770.64813,469.90413c1.068,2.21733 1.21067,3.856 0.42667,4.884c5.14533,5.036 10.56533,11.528 14.94,17.10267c2.532,3.22267 4.71467,6.14267 6.29467,8.29733c1.25733,1.00267 2.784,1.92667 3.90133,1.66267c2.268,-0.532 7.3,-5.07467 6.58533,-9.17067c-0.368,-2.128 -1.09467,-3.98 -1.708,-5.26933c-1.89067,-1.968 -4.69467,-4.776 -8.13867,-7.90133c-0.004,0 -0.004,-0.004 -0.004,-0.004c-7.36533,-6.67733 -17.66133,-14.812 -28.22667,-19.296c2.46533,3.568 4.628,6.992 5.92933,9.69467" id="SvgjsPath2644" fill="#5fc1ed"></path></g><g clip-path="url(#clip-43)" id="SvgjsG2643"><path d="M705.31173,449.20533c0,0 -2.35333,26.16267 3.45333,26.16267c5.58,0 6.51733,-16.90267 6.51733,-16.90267l-4.15467,-16.65067z" id="SvgjsPath2642" fill="#050505"></path></g><g clip-path="url(#clip-44)" id="SvgjsG2641"><path d="M705.83107,417.63c0,0 -0.2,-2.292 0.156,-2.87067c0.356,-0.57867 1.58,-1.78133 1.58,-1.78133c0,0 -2.82667,-1.40133 -2.98267,-3.20533c-0.156,-1.80267 2.54667,-4.852 5.012,-5.252c2.46667,-0.40133 5.29333,4.11733 5.33733,5.32c0.04533,1.20133 -3.18267,3.18267 -3.18267,3.18267c0,0 1.31333,1.13467 1.536,1.84667c0.22267,0.712 0.22267,3.71733 0.22267,3.71733l-3.91333,0.244l-2.252,0.17867z" id="SvgjsPath2640" fill="#050505"></path></g><g clip-path="url(#clip-45)" id="SvgjsG2639"><path d="M711.72227,406.81667c-0.056,0 -0.112,-0.008 -0.168,-0.024c-0.308,-0.09333 -0.48267,-0.41867 -0.39067,-0.72533c0.21067,-0.70133 5.24267,-17.21867 12.66133,-23.08133c6.36667,-5.032 10.916,-9.348 13.908,-13.196c0.19733,-0.25333 0.564,-0.29867 0.81733,-0.10133c0.25467,0.19733 0.3,0.56267 0.10267,0.81733c-3.05067,3.92133 -7.664,8.30267 -14.10667,13.39467c-7.12933,5.63467 -12.216,22.33333 -12.26667,22.50133c-0.076,0.252 -0.30667,0.41467 -0.55733,0.41467" id="SvgjsPath2638" fill="#050505"></path></g><g clip-path="url(#clip-46)" id="SvgjsG2637"><path d="M707.68573,406.27667c-0.244,0 -0.472,-0.15467 -0.55333,-0.39867c-0.02933,-0.08933 -3,-8.97067 -7.64933,-16.06133c-3.09333,-4.71867 -7.184,-7.72133 -10.472,-10.13333c-1.67067,-1.22533 -3.11333,-2.28533 -4.07067,-3.324c-2.788,-3.032 -4.11067,-7.37067 -4.164,-7.55467c-0.09333,-0.308 0.08133,-0.632 0.38933,-0.724c0.30667,-0.092 0.63333,0.08133 0.72533,0.39067c0.01333,0.04133 1.304,4.26933 3.90667,7.09867c0.88,0.956 2.28133,1.984 3.90267,3.17467c3.36267,2.468 7.548,5.53867 10.756,10.43333c4.736,7.22133 7.752,16.24267 7.78267,16.33333c0.10133,0.30533 -0.06533,0.63467 -0.37067,0.736c-0.06,0.02 -0.12133,0.02933 -0.18267,0.02933" id="SvgjsPath2636" fill="#050505"></path></g><g clip-path="url(#clip-47)" id="SvgjsG2635"></g><g clip-path="url(#clip-48)" id="SvgjsG2634"></g><g clip-path="url(#clip-49)" id="SvgjsG2633"></g><g clip-path="url(#clip-50)" id="SvgjsG2632"></g><g clip-path="url(#clip-51)" id="SvgjsG2631"></g><g clip-path="url(#clip-52)" id="SvgjsG2630"></g><g clip-path="url(#clip-53)" id="SvgjsG2629"></g><g clip-path="url(#clip-54)" id="SvgjsG2628"></g><g clip-path="url(#clip-55)" id="SvgjsG2627"></g><g clip-path="url(#clip-56)" id="SvgjsG2626"></g><g clip-path="url(#clip-57)" id="SvgjsG2625"></g><g clip-path="url(#clip-58)" id="SvgjsG2624"></g><g clip-path="url(#clip-59)" id="SvgjsG2623"></g><g clip-path="url(#clip-60)" id="SvgjsG2622"></g><g clip-path="url(#clip-61)" id="SvgjsG2621"></g><g clip-path="url(#clip-62)" id="SvgjsG2620"></g><g clip-path="url(#clip-63)" id="SvgjsG2619"></g><g clip-path="url(#clip-64)" id="SvgjsG2618"></g><g clip-path="url(#clip-65)" id="SvgjsG2617"></g><g clip-path="url(#clip-66)" id="SvgjsG2616"></g><g clip-path="url(#clip-67)" id="SvgjsG2615"></g><g clip-path="url(#clip-68)" id="SvgjsG2614"></g><g clip-path="url(#clip-69)" id="SvgjsG2613"></g><g clip-path="url(#clip-70)" id="SvgjsG2612"></g></g></g></g></g></g></g></svg><style>@media (prefers-color-scheme: light) { :root { filter: none; } }
@media (prefers-color-scheme: dark) { :root { filter: none; } }
</style></svg>