<?xml version="1.0" encoding="utf-8"?>
<svg xmlns="http://www.w3.org/2000/svg" viewBox="60.8254 216.4433 152.5292 165.2752" width="152.529px" height="165.275px" preserveAspectRatio="none"><defs><clipPath id="clip-1"><rect x="473.5" y="188.5" width="480" height="480" id="clip-1" fill="none"/></clipPath><clipPath id="clip-2"><path d="M473.50001,188.50002h479.99999v479.99999h-479.99999z" id="clip-2"/></clipPath><clipPath id="clip-3"><path d="M473.5,188.50002h479.99999v479.99999h-479.99999z" id="clip-3" fill="none"/></clipPath><clipPath id="clip-4"><path d="M473.5,188.50001h479.99999v479.99999h-479.99999z" id="clip-4" fill="none"/></clipPath><clipPath id="clip-5"><path d="M473.5,188.50001h479.99999v479.99999h-479.99999z" id="clip-5" fill="none"/></clipPath><clipPath id="clip-6"><path d="M473.5,188.50001h479.99999v479.99999h-479.99999z" id="clip-6" fill="none"/></clipPath><clipPath id="clip-7"><path d="M473.5,188.50002h479.99999v479.99999h-479.99999z" id="clip-7" fill="none"/></clipPath><clipPath id="clip-8"><path d="M473.5,188.50002h479.99999v479.99999h-479.99999z" id="clip-8" fill="none"/></clipPath><clipPath id="clip-9"><path d="M473.5,188.50002h479.99999v479.99999h-479.99999z" id="clip-9" fill="none"/></clipPath><clipPath id="clip-10"><path d="M473.5,188.50001h479.99999v479.99999h-479.99999z" id="clip-10" fill="none"/></clipPath><clipPath id="clip-11"><path d="M473.49999,188.50001h479.99999v479.99999h-479.99999z" id="clip-11" fill="none"/></clipPath><clipPath id="clip-12"><path d="M473.5,188.50002h479.99999v479.99999h-479.99999z" id="clip-12" fill="none"/></clipPath><clipPath id="clip-13"><path d="M473.5,188.50001h479.99999v479.99999h-479.99999z" id="clip-13" fill="none"/></clipPath><clipPath id="clip-14"><path d="M473.49999,188.50001h479.99999v479.99999h-479.99999z" id="clip-14" fill="none"/></clipPath><clipPath id="clip-15"><path d="M473.5,188.50002h479.99999v479.99999h-479.99999z" id="clip-15" fill="none"/></clipPath><clipPath id="clip-16"><path d="M473.49999,188.50001h479.99999v479.99999h-479.99999z" id="clip-16" fill="none"/></clipPath><clipPath id="clip-17"><path d="M473.50001,188.50002h479.99999v479.99999h-479.99999z" id="clip-17" fill="none"/></clipPath><clipPath id="clip-18"><path d="M473.5,188.50001h479.99999v479.99999h-479.99999z" id="clip-18" fill="none"/></clipPath><clipPath id="clip-19"><path d="M473.5,188.50002h479.99999v479.99999h-479.99999z" id="clip-19" fill="none"/></clipPath><clipPath id="clip-20"><path d="M473.5,188.50002h479.99999v479.99999h-479.99999z" id="clip-20" fill="none"/></clipPath><clipPath id="clip-21"><path d="M473.5,188.50001h479.99999v479.99999h-479.99999z" id="clip-21" fill="none"/></clipPath><clipPath id="clip-22"><path d="M473.49999,188.50001h479.99999v479.99999h-479.99999z" id="clip-22" fill="none"/></clipPath><clipPath id="clip-23"><path d="M473.5,188.50002h479.99999v479.99999h-479.99999z" id="clip-23" fill="none"/></clipPath><clipPath id="clip-24"><path d="M473.5,188.50001h479.99999v479.99999h-479.99999z" id="clip-24" fill="none"/></clipPath><clipPath id="clip-25"><path d="M473.49999,188.50001h479.99999v479.99999h-479.99999z" id="clip-25" fill="none"/></clipPath><clipPath id="clip-26"><path d="M473.5,188.50001h479.99999v479.99999h-479.99999z" id="clip-26" fill="none"/></clipPath><clipPath id="clip-27"><path d="M473.50001,188.50001h479.99999v479.99999h-479.99999z" id="clip-27" fill="none"/></clipPath><clipPath id="clip-28"><path d="M473.50001,188.50001h479.99999v479.99999h-479.99999z" id="clip-28" fill="none"/></clipPath><clipPath id="clip-29"><path d="M473.5,188.50002h479.99999v479.99999h-479.99999z" id="clip-29" fill="none"/></clipPath><clipPath id="clip-30"><path d="M473.50001,188.50001h479.99999v479.99999h-479.99999z" id="clip-30" fill="none"/></clipPath><clipPath id="clip-31"><path d="M473.49999,188.50001h479.99999v479.99999h-479.99999z" id="clip-31" fill="none"/></clipPath><clipPath id="clip-32"><path d="M473.49999,188.50001h479.99999v479.99999h-479.99999z" id="clip-32" fill="none"/></clipPath><clipPath id="clip-33"><path d="M473.5,188.50002h479.99999v479.99999h-479.99999z" id="clip-33" fill="none"/></clipPath><clipPath id="clip-34"><path d="M473.5,188.50002h479.99999v479.99999h-479.99999z" id="clip-34" fill="none"/></clipPath><clipPath id="clip-35"><path d="M473.5,188.50001h479.99999v479.99999h-479.99999z" id="clip-35" fill="none"/></clipPath><clipPath id="clip-36"><path d="M473.5,188.50002h479.99999v479.99999h-479.99999z" id="clip-36" fill="none"/></clipPath><clipPath id="clip-37"><path d="M473.5,188.50001h479.99999v479.99999h-479.99999z" id="clip-37" fill="none"/></clipPath><clipPath id="clip-38"><path d="M473.5,188.50002h479.99999v479.99999h-479.99999z" id="clip-38" fill="none"/></clipPath><clipPath id="clip-39"><path d="M473.50001,188.50002h479.99999v479.99999h-479.99999z" id="clip-39" fill="none"/></clipPath><clipPath id="clip-40"><path d="M473.5,188.50001h479.99999v479.99999h-479.99999z" id="clip-40" fill="none"/></clipPath><clipPath id="clip-41"><path d="M473.5,188.50002h479.99999v479.99999h-479.99999z" id="clip-41" fill="none"/></clipPath><clipPath id="clip-42"><path d="M473.5,188.50001h479.99999v479.99999h-479.99999z" id="clip-42" fill="none"/></clipPath><clipPath id="clip-43"><path d="M473.5,188.50001h479.99999v479.99999h-479.99999z" id="clip-43" fill="none"/></clipPath><clipPath id="clip-44"><path d="M473.5,188.50002h479.99999v479.99999h-479.99999z" id="clip-44" fill="none"/></clipPath><clipPath id="clip-45"><path d="M473.5,188.50001h479.99999v479.99999h-479.99999z" id="clip-45" fill="none"/></clipPath><clipPath id="clip-46"><path d="M473.5,188.50001h479.99999v479.99999h-479.99999z" id="clip-46" fill="none"/></clipPath><clipPath id="clip-47"><path d="M473.49999,188.50001h479.99999v479.99999h-479.99999z" id="clip-47" fill="none"/></clipPath><clipPath id="clip-48"><path d="M473.5,188.50001h479.99999v479.99999h-479.99999z" id="clip-48" fill="none"/></clipPath><clipPath id="clip-49"><path d="M473.5,188.50002h479.99999v479.99999h-479.99999z" id="clip-49" fill="none"/></clipPath><clipPath id="clip-50"><path d="M473.5,188.50002h479.99999v479.99999h-479.99999z" id="clip-50" fill="none"/></clipPath><clipPath id="clip-51"><path d="M473.5,188.50001h479.99999v479.99999h-479.99999z" id="clip-51" fill="none"/></clipPath><clipPath id="clip-52"><path d="M473.49999,188.50001h479.99999v479.99999h-479.99999z" id="clip-52" fill="none"/></clipPath><clipPath id="clip-53"><path d="M473.50001,188.50001h479.99999v479.99999h-479.99999z" id="clip-53" fill="none"/></clipPath><clipPath id="clip-54"><path d="M473.5,188.50001h479.99999v479.99999h-479.99999z" id="clip-54" fill="none"/></clipPath><clipPath id="clip-55"><path d="M473.50001,188.50001h479.99999v479.99999h-479.99999z" id="clip-55" fill="none"/></clipPath><clipPath id="clip-56"><path d="M473.5,188.50001h479.99999v479.99999h-479.99999z" id="clip-56" fill="none"/></clipPath><clipPath id="clip-57"><path d="M473.50001,188.50001h479.99999v479.99999h-479.99999z" id="clip-57" fill="none"/></clipPath><clipPath id="clip-58"><path d="M473.5,188.50001h479.99999v479.99999h-479.99999z" id="clip-58" fill="none"/></clipPath><clipPath id="clip-59"><path d="M473.5,188.50001h479.99999v479.99999h-479.99999z" id="clip-59" fill="none"/></clipPath><clipPath id="clip-60"><path d="M473.49999,188.50001h479.99999v479.99999h-479.99999z" id="clip-60" fill="none"/></clipPath><clipPath id="clip-61"><path d="M473.5,188.50001h479.99999v479.99999h-479.99999z" id="clip-61" fill="none"/></clipPath><clipPath id="clip-62"><path d="M473.5,188.50001h479.99999v479.99999h-479.99999z" id="clip-62" fill="none"/></clipPath></defs><g fill="none" fill-rule="nonzero" stroke="none" stroke-width="1" stroke-linecap="butt" stroke-linejoin="miter" stroke-miterlimit="10" stroke-dasharray="" stroke-dashoffset="0" font-family="none" font-weight="none" font-size="none" text-anchor="none" style="mix-blend-mode: normal" transform="matrix(0.7142859697341919, 0, 0, 0.7142859697341919, -372.56140136718744, 13.073895454406738)" id="object-0"><g><g id="stage"><g id="layer1 1"><g clip-path="url(#clip-1)" id="Group 1"><g id="Group 1"><g clip-path="url(#clip-2)" id="Group 1" fill="none"/><g clip-path="url(#clip-3)" id="Group 1"><path d="M731.78573,498.45053c0,0 -29.072,0.576 -35.35067,-0.24267c-6.27733,-0.81733 -8.7,-1.684 -8.7,-1.684c0,0 -3.48133,1.22533 -5.22,0.92933c-1.73733,-0.296 -3.34533,-3.05333 -3.34533,-3.05333c0,0 -1.19333,1.43467 -3.11333,0.928c-1.92,-0.50667 -6.92933,-5.07067 -6.92933,-5.07067c0,0 -6.388,-3.25333 -9.95467,-6.88c-3.568,-3.62667 -4.07333,-5.45867 -4.07333,-5.45867c0,0 -3.56,0.96533 -7.18933,-2.33733c-3.628,-3.30267 -2.248,-10.008 2.852,-11.472c5.1,-1.464 6.52533,2.18 6.52533,2.18c0,0 1.53867,-0.41333 2.97067,0.31733c1.43333,0.73067 2.2,0.84133 2.2,0.84133c0,0 -23.32133,-46.976 -12.56933,-107.09866c10.75333,-60.12133 36.62533,-69.536 44.208,-63.812c0,0 9.316,-12.72 21.89333,-11.76933c12.57867,0.952 19.66933,14.884 21.58133,30.02c1.91333,15.13733 9.54933,29.15467 18.20533,39.16267c8.656,10.008 11.31467,22.188 11.03867,25.43333c-0.27467,3.24667 -0.59067,3.476 -0.59067,3.476c0,0 18.47333,-1.25867 32.55067,15.94667c14.07867,17.20533 31.78,44.292 14.08533,74.69733c0,0 -8.492,12.67867 -25.984,17.53067c-17.492,4.85333 -55.09067,7.416 -55.09067,7.416" id="Path 1" fill="#000105"/></g><g clip-path="url(#clip-4)" id="Group 1"><path d="M676.65387,332.89653c0,0 -11.31733,27.13067 -14.688,55.32267c-3.37067,28.192 -1.812,42.92533 0.65867,57.076c2.47067,14.152 5.704,24.468 5.704,24.468c0,0 -11.83733,-24.732 -12.556,-52.22c-0.71733,-27.48933 3.79333,-63.62533 20.88133,-84.64666" id="Path 1" fill="#5fc1ed"/></g><g clip-path="url(#clip-5)" id="Group 1"><path d="M661.06173,346.52587c1.07467,-0.50267 2.27467,0.436 2.10533,1.61067c-0.528,3.69067 -2.33333,15.53467 -3.83733,16.512c-1.784,1.15867 -2.67867,-0.87333 -2.352,-4.10133c0.32533,-3.22667 2.77467,-13.376 4.04533,-14.00267c0.01333,-0.00667 0.02667,-0.01333 0.03867,-0.01867" id="Path 1" fill="#5fc1ed"/></g><g clip-path="url(#clip-6)" id="Group 1"><path d="M655.31333,351.53467c0,0 1.264,0.64 1.23333,2.67733c-0.03067,2.03733 -2.364,12.80667 -3.36933,13.73467c-1.00667,0.92667 -1.856,-0.368 -1.23467,-4.78533c0.62133,-4.41733 2.424,-11.48533 3.37067,-11.62667" id="Path 1" fill="#5fc1ed"/></g><g clip-path="url(#clip-7)" id="Group 1"><path d="M794.08987,430.00293c-1.9,1.30267 -5.28267,2.44133 -8.88933,3.38c-0.564,0.06933 -1.12933,0.14 -1.68267,0.21333c-8.37867,1.10533 -15.36533,2.568 -20.29067,3.76c-3.96,0.96133 -6.592,1.74933 -7.54,2.04667l-3.81333,-6.80133c0.304,-0.19067 0.788,-0.48533 1.44933,-0.872c3.54933,-2.064 12.268,-6.74267 26.52133,-11.97467c0.61467,-0.224 1.23467,-0.452 1.86933,-0.67467c2.93867,-0.77467 5.79733,-1.28667 7.848,-1.10933c6.32133,0.548 9.97733,8.30133 4.528,12.032" id="Path 1" fill="#5fc1ed"/></g><g clip-path="url(#clip-8)" id="Group 1"><path d="M796.35733,447.36773c-3.52933,1.50667 -9.54,2.528 -14.97333,3.18933c-6.29467,0.77067 -11.81467,1.06133 -11.81467,1.06133c-2.12133,0.14 -4.15467,0.244 -6.092,0.31467c-11.99467,0.45067 -20.34933,-0.264 -23.552,-0.65867c9.49333,-5.46267 15.07333,-10.21467 15.77867,-10.82533c0.39333,-0.124 2.04667,-0.572 4.728,-1.21333c0.988,-0.236 2.11467,-0.49733 3.36933,-0.77733c2.148,-0.47733 4.66267,-1.012 7.49333,-1.56933l7.36,-1.416c0,0 2.10133,-0.344 4.94267,-0.65867c4.76267,-0.53333 11.59467,-0.99733 14.04933,0.344c3.91067,2.13733 6.32133,8.97333 -1.28933,12.20933" id="Path 1" fill="#5fc1ed"/></g><g clip-path="url(#clip-9)" id="Group 1"><path d="M785.03347,416.01413c-0.34,0.17067 -0.75467,0.37067 -1.22933,0.588c-1.556,0.71467 -3.736,1.64267 -5.94667,2.55467c-4.40533,1.82267 -8.936,3.60267 -8.936,3.60267c-8.13867,3.45333 -13.42133,6.43867 -16.04267,8.028c-0.96533,0.588 -1.56933,0.98533 -1.82,1.14533c-9.32,-0.14 -18.56,1.8 -25.46267,3.77333c3.54667,-2.80133 14.37867,-11.156 25.86267,-17.90267c0.708,-0.41733 1.42267,-0.83067 2.148,-1.24133c1.76,-1.00267 3.556,-1.98667 5.35333,-2.94933c4.50133,-2.41067 8.996,-4.652 12.86933,-6.51867c2.07333,-0.99467 4.33467,-1.576 6.636,-1.596c2.41333,-0.016 4.468,0.55067 5.96,1.68933c3.376,2.57467 4.29867,6.956 0.608,8.82667" id="Path 1" fill="#5fc1ed"/></g><g clip-path="url(#clip-10)" id="Group 1"><path d="M722.17627,437.0356c-0.05067,0.04 -0.08667,0.06667 -0.11067,0.084c0.01733,-0.02 0.04,-0.04 0.07333,-0.06667z" id="Path 1" fill="#5fc1ed"/></g><g clip-path="url(#clip-11)" id="Group 1"><path d="M773.3524,404.26627c-0.42133,0.73467 -1.012,1.34533 -1.716,1.80933c-0.35067,0.23467 -0.732,0.432 -1.12533,0.58533c-0.16133,0.06267 -0.31733,0.12667 -0.472,0.18667c-4.912,1.94667 -5.81733,3.116 -7.91733,4.004c-0.344,0.14667 -0.67467,0.31067 -1.00533,0.488c-1.23467,0.644 -2.48133,1.30133 -3.72267,1.97333c-1.40667,0.76133 -2.80933,1.53867 -4.188,2.32667c-0.75733,0.428 -1.51333,0.86267 -2.25333,1.3c-11.63867,6.83867 -24.896,17.084 -28.13467,19.59867c-3.076,0.96533 -5.49333,1.86667 -6.99333,2.45067c0.73467,-1.012 1.41333,-2.01733 2.04133,-3.00133v-0.004c0.20667,-0.324 0.40667,-0.648 0.6,-0.968c1.73333,-2.82933 3.04533,-5.46667 4.128,-7.644c0.55733,-1.116 1.03867,-2.084 1.496,-2.912c0.08,-0.14667 0.164,-0.29067 0.244,-0.43067c13.09067,-10.17867 32.592,-22.664 37.40133,-24.31733c5.332,-1.84 10.76267,-2.37467 11.95733,0.95467c0.51467,1.42667 0.19067,2.65467 -0.34,3.6" id="Path 1" fill="#5fc1ed"/></g><g clip-path="url(#clip-12)" id="Group 1"><path d="M788.32947,467.10013c-3.32933,0.72133 -8.692,1.03867 -14.14533,1.152c-7.51067,0.15333 -15.188,-0.08667 -17.92933,-0.18667c-0.07067,0 -0.14,-0.004 -0.21333,-0.00667c-0.08667,-0.00667 -0.18133,-0.01067 -0.268,-0.01333c-0.02,0 -0.04,-0.004 -0.06,-0.004c-0.036,0 -0.076,0 -0.10933,-0.00267c-1.40933,-0.07333 -2.79867,-0.144 -4.17467,-0.224c-18.724,-1.08133 -31.67067,-4.25733 -35.83867,-5.4c3.476,-1.296 6.90267,-2.65067 10.12133,-4.03333c1.10533,-0.47067 2.188,-0.956 3.24,-1.44c3.48933,-1.60533 6.672,-3.252 9.53333,-4.852c0.748,0.11333 4.08133,0.59467 9.49467,0.89867c3.86667,0.21733 8.78533,0.34 14.57867,0.17333c2.32533,-0.06667 4.79333,-0.18 7.388,-0.35733c0,0 5.56933,-0.21333 10.91867,-0.63067c2.42133,-0.19467 4.79867,-0.428 6.58933,-0.70533c5.744,-0.888 10.90267,0.97867 12.372,4.352c1.46667,3.36933 -2.45733,9.30667 -11.49733,11.28" id="Path 1" fill="#5fc1ed"/></g><g clip-path="url(#clip-13)" id="Group 1"><path d="M722.37653,425.57147c-0.21333,0.424 -0.43733,0.87467 -0.67733,1.352c-1.32267,2.65467 -2.98533,5.99733 -5.34,9.53733c-2.29733,3.464 -5.256,7.11333 -9.19733,10.50267c-1.008,0.868 -2.104,1.824 -3.25467,2.83867c-8.31867,7.32933 -19.58933,17.78933 -22.94933,20.91467c-0.3,-1.34933 -0.464,-2.68533 -0.2,-3.62c0.51467,-1.81333 0.87867,-3.212 5.01867,-8.32133c4.14133,-5.10933 21.80933,-20.92133 34.48267,-31.47733c0.67467,-0.564 1.38267,-1.14267 2.11733,-1.72667" id="Path 1" fill="#5fc1ed"/></g><g clip-path="url(#clip-14)" id="Group 1"><path d="M754.812,439.8908c-1.88933,1.60667 -12.516,10.27867 -29.49733,17.572c-7.176,3.08267 -15.42133,6.03467 -22.88133,8.50533c-2.928,0.97467 -5.74,1.87333 -8.31467,2.67467c-5.95733,1.85733 -10.65867,3.20267 -12.72933,3.78667c-0.05733,-0.19733 -0.10667,-0.39733 -0.16,-0.60133c2.69067,-2.50667 14.35467,-13.35067 23.01733,-20.99067c0.31467,-0.28 0.62533,-0.55467 0.92933,-0.82133v-0.004c0.928,-0.81067 1.812,-1.57867 2.64133,-2.29333c2.69467,-2.31467 4.93867,-4.752 6.82533,-7.16667c1.52933,-0.65467 18.74,-7.848 36.26533,-7.62z" id="Path 1" fill="#5fc1ed"/></g><g clip-path="url(#clip-15)" id="Group 1"><path d="M764.16573,488.40213c-6.088,1.42267 -33.784,5.72 -50.284,1.012c-15.24533,-4.348 -29.164,-11.90533 -31.61467,-14.60267c3.00267,0.47733 12.176,1.90667 22.808,3.27867c0.25067,0.03333 0.504,0.064 0.75867,0.09733c6.49733,0.83067 13.49733,1.632 19.93867,2.184c3.99067,0.34 8.42267,0.67067 12.95333,0.984c4.028,0.27733 8.128,0.54533 12.06933,0.78533c0.49333,0.03067 0.988,0.06 1.47867,0.09067l9.788,0.624l4.43467,0.284c7.344,1.592 3.75333,3.83333 -2.33067,5.26267" id="Path 1" fill="#5fc1ed"/></g><g clip-path="url(#clip-16)" id="Group 1"><path d="M784.91,477.6092c-3.77067,2.41733 -13.17333,3.42 -21.008,3.82667c-1.70267,0.08667 -3.336,0.14667 -4.816,0.19067h-0.00667c-2.09733,-0.12 -4.31333,-0.25067 -6.59867,-0.388c-8.79867,-0.53067 -18.60667,-1.18133 -26.624,-1.86267c-6.50267,-0.55467 -13.57867,-1.36933 -20.13333,-2.21467c-0.86533,-0.10933 -1.72,-0.22267 -2.56533,-0.33333c-10.70267,-1.412 -19.54533,-2.81467 -21.408,-3.116c-0.03067,-0.10267 -0.06,-0.21067 -0.09067,-0.31733c2.07067,-0.584 6.78933,-1.94 12.756,-3.796c2.72533,-0.852 5.708,-1.804 8.82,-2.83867c3.48933,-1.16267 7.14,-2.42533 10.76667,-3.75733c1.60933,0.488 15.64133,4.55867 37.37067,5.81067c1.492,0.08667 3.00933,0.16667 4.54133,0.24c0.80133,0.04 1.60933,0.07733 2.41733,0.11467c0.224,0.02667 0.45733,0.04 0.70533,0.04c0.036,0.00267 0.076,0 0.12,0c0.04667,0 0.1,0.00267 0.15067,0.00267c0.056,0.004 0.116,0.00667 0.16933,0.00667c0.856,0.02 2.408,0.08667 4.33467,0.17333c0.13733,0.00667 0.28133,0.01067 0.41733,0.01733c0.184,0.00933 0.35733,0.016 0.53867,0.02c2.56133,0.11733 5.63333,0.25333 8.572,0.36c3.94667,0.144 7.64667,0.23733 9.55067,0.15067c4.87467,-0.22 8.97867,3.19867 2.02,7.67067" id="Path 1" fill="#5fc1ed"/></g><g clip-path="url(#clip-17)" id="Group 1"><path d="M719.6984,345.7868c-0.912,1.82 -2.17067,3.44267 -3.65333,4.836l-15.04667,14.15467l-5.684,5.34667c-0.1,-0.892 -0.21333,-1.72933 -0.33733,-2.49733c-1.03867,-6.34133 -2.90133,-9.65467 -3.39333,-10.44c1.10933,-1.79867 2.648,-3.9 4.412,-6.11733c3.42933,-4.31067 7.7,-9.06933 11.3,-12.936c1.00933,-0.86533 2.08133,-1.76 3.036,-2.49467c2.86533,-2.20133 6.94533,-3.40933 10.03733,2.75467c1.15333,2.29467 0.54533,4.956 -0.67067,7.39333" id="Path 1" fill="#5fc1ed"/></g><g clip-path="url(#clip-18)" id="Group 1"><path d="M729.09213,362.00627c-0.93867,1.38267 -2.1,2.60133 -3.38267,3.66933l-14.864,12.38933l-16.724,13.936c1.63733,-8.716 1.75067,-15.568 1.316,-20.61733l5.67333,-5.34l10.65333,-10.02133c2.968,-2.792 6.39867,-5.06267 10.15467,-6.63867c0.11333,-0.04667 0.224,-0.09333 0.33067,-0.13733c2.98933,-1.20133 6.796,-1.52933 8.88933,4.84267c0.83467,2.54133 -0.33733,5.4 -2.04667,7.91733" id="Path 1" fill="#5fc1ed"/></g><g clip-path="url(#clip-19)" id="Group 1"><path d="M743.19773,371.2964c-0.504,1.91733 -1.84667,3.93733 -3.436,5.79333c-1.87333,2.19067 -4.08133,4.068 -6.48933,5.65467c-1.188,0.78133 -2.43067,1.60533 -3.73333,2.47333c-3.01867,2.01067 -6.49467,4.52933 -10.13733,7.28c-13.88933,10.5 -30.18133,24.412 -32.70667,26.57467c1.81067,-5.816 3.564,-11.70667 5.16,-17.39467c0.79467,-2.86133 1.43867,-5.56667 1.96,-8.11733l18.01867,-15.01733l11.592,-9.65733c1.412,-1.176 2.93467,-2.208 4.55467,-3.076c2.31067,-1.23867 4.88533,-2.49067 6.612,-2.94533c3.83333,-1.008 10.16133,2.484 8.60533,8.432" id="Path 1" fill="#5fc1ed"/></g><g clip-path="url(#clip-20)" id="Group 1"><path d="M712.66907,326.3416c-0.36133,0.932 -1.028,2.21467 -1.844,3.64667c-2.68133,4.71467 -5.88,9.116 -9.476,13.17733c-2.308,2.608 -4.612,5.32267 -6.60533,7.868c-1.84667,2.35733 -3.42667,4.57467 -4.492,6.43067c-2.16,2.55867 -12.17467,14.24267 -16.67067,16.31333c-0.284,0.13067 -0.56,0.24 -0.828,0.33067c-1.68667,0.564 -3.052,0.36 -4.09067,-0.09733c0.86133,-1.75333 4.30133,-8.73867 9.88533,-19.71867c3.01867,-5.93467 7.77733,-13.34133 12.008,-19.55867c0.36,-0.53067 0.75467,-1.03467 1.18533,-1.516c3.55333,-3.984 9.08667,-9.88533 12.56667,-12.12933c5.456,-3.52533 9.968,1.13867 8.36133,5.25333" id="Path 1" fill="#5fc1ed"/></g><g clip-path="url(#clip-21)" id="Group 1"><path d="M695.85893,320.68027c-0.82533,-4.172 -5.20133,-4.516 -10.392,1.41467c-5.19467,5.93333 -14.44933,29.58533 -16.21467,37.64533c-1.768,8.064 -1.93067,13.028 -1.93067,13.028l0.28933,0.628c0,0 -0.00133,0.004 -0.00133,0.012c0.05467,0.04133 0.11333,0.08 0.17333,0.12267c0.9,-1.83067 4.33333,-8.79333 9.872,-19.69467c3.81867,-7.512 10.40667,-17.356 15.216,-24.22133c1.8,-3.372 3.36933,-7.01467 2.988,-8.93467" id="Path 1" fill="#5fc1ed"/></g><g clip-path="url(#clip-22)" id="Group 1"><path d="M754.478,393.70707c-0.19733,0.11067 -19.592,11.37733 -34.74933,24.53733c-1.40667,1.22267 -2.88933,2.532 -4.42133,3.908c-7.81067,6.992 -16.97733,15.66133 -24.592,22.85467c-7.06933,6.68133 -12.652,11.95867 -14.20533,13.11333c-1.776,1.316 -2.96133,2.02 -3.69333,2.39467c1.42,-3.99067 3.20933,-9.09067 5.18667,-14.86667c1.33867,-3.928 2.768,-8.16533 4.21733,-12.58667c1.26933,-3.86667 2.56133,-7.87067 3.83333,-11.92533c3.96667,-3.416 19.45467,-16.67333 32.716,-26.85867c4.13067,-3.16933 8.044,-6.044 11.32667,-8.228c3.908,-2.604 7.31067,-4.82133 10.212,-6.68933c1.50667,-0.97067 3.21333,-1.62267 5,-1.79867c2.46,-0.244 5.04533,0.32267 6.788,2.908c0.52133,0.772 0.972,1.57333 1.35333,2.39733c1.56267,3.396 1.93333,7.20667 1.028,10.84" id="Path 1" fill="#5fc1ed"/></g><g clip-path="url(#clip-23)" id="Group 1"><path d="M690.88613,401.40773c-3.036,10.88 -6.68933,22.48133 -10.148,32.94933c-1.15867,3.50667 -2.29467,6.88667 -3.376,10.072c-3.51067,10.29467 -6.47867,18.55333 -7.888,22.42667c-1.016,-3.536 -5.016,-17.63867 -6.212,-24.35333c-1.028,-5.75733 -1.93333,-18.25333 -1.67867,-29.44c0.08667,-3.79333 0.30667,-7.43333 0.69733,-10.616c1.316,-10.68 4.248,-24.19733 5.096,-28.008c1.192,0.76133 2.90533,1.34667 5.092,0.79467c0.48533,-0.12267 0.996,-0.304 1.52933,-0.54667c4.71867,-2.17467 14.69733,-13.816 16.98533,-16.53067c1.53867,2.83867 7.44933,16.236 -0.09733,43.252" id="Path 1" fill="#5fc1ed"/></g><g clip-path="url(#clip-24)" id="Group 1"><path d="M669.75573,469.00947c0.45867,0.484 1.30933,1.05467 2.36933,0.21067c1.60533,-1.272 19.792,-19.25867 29.57733,-29.49733c1.06667,-1.116 2.38933,-2.388 3.91333,-3.77333c12.45467,-11.328 38.188,-30.30133 44.18667,-34.568c2.36533,-1.68133 3.88933,-3.97467 4.68,-6.51467c-3.13067,1.84933 -20.36667,12.21067 -34.096,24.13333c-2.37867,2.06533 -4.972,4.388 -7.67467,6.84667c-7.012,6.376 -14.74,13.67867 -21.308,19.88667c-7.09467,6.70533 -12.69733,12 -14.29733,13.188c-2.13067,1.584 -3.464,2.33067 -4.22533,2.68133c-0.224,0.104 -0.39467,0.17067 -0.52533,0.216c-1.28267,3.584 -2.20533,6.108 -2.6,7.19067" id="Path 1" fill="#5fc1ed"/></g><g clip-path="url(#clip-25)" id="Group 1"><path d="M770.0408,406.84827c0.152,-0.06267 0.31067,-0.124 0.46933,-0.18667c0.39467,-0.156 0.776,-0.35067 1.128,-0.58533c-0.52133,0.25067 -1.05333,0.50667 -1.59733,0.772" id="Path 1" fill="#5fc1ed"/></g><g clip-path="url(#clip-26)" id="Group 1"><path d="M759.47787,469.2176c1.44267,0.06667 2.88933,0.12533 4.33333,0.17333c-1.92533,-0.08667 -3.47867,-0.15467 -4.33333,-0.17333" id="Path 1" fill="#5fc1ed"/></g><g clip-path="url(#clip-27)" id="Group 1"><path d="M675.3652,495.0468c-0.10133,-0.05333 -7.424,2.43067 -10.436,2.356c-3.01333,-0.07333 -4.136,0.05067 -4.136,0.05067c0,0 8.608,16.49333 8.41867,16.692c-0.18933,0.2 -2.272,0.316 -2.47467,0.24133c-0.20267,-0.07467 -7.204,-15.39733 -7.66933,-17.26267c-0.46533,-1.86533 4.23733,-1.22133 7.56267,-1.90933c3.324,-0.688 7.35067,-2.31733 7.35067,-2.31733z" id="Path 1" fill="#000105"/></g><g clip-path="url(#clip-28)" id="Group 1"><path d="M704.4704,496.73947c-0.10133,-0.05333 -7.424,2.43067 -10.436,2.356c-3.01333,-0.07333 -4.136,0.05067 -4.136,0.05067c0,0 8.608,16.49333 8.41867,16.692c-0.18933,0.2 -2.272,0.316 -2.47467,0.24133c-0.20267,-0.07467 -7.204,-15.39733 -7.66933,-17.26267c-0.46533,-1.86533 4.23733,-1.22133 7.56267,-1.90933c3.324,-0.688 7.35067,-2.31733 7.35067,-2.31733z" id="Path 1" fill="#000105"/></g><g clip-path="url(#clip-29)" id="Group 1"><path d="M669.93733,490.09493c0,0 -1.85867,1.69867 -6.66533,2.00133c-4.80667,0.30267 -8.01067,0.59867 -8.01067,0.59867c0,0 3.392,9.50933 4.552,12.516c1.16,3.00667 2.148,3.564 1.752,3.80267c-0.396,0.23733 -2.948,-0.66667 -2.948,-0.66667c0,0 -4.33333,-11.604 -4.95867,-14.91333c-0.624,-3.30933 1.94,-4.20933 6.60933,-3.832c4.67067,0.37867 8.79333,-1.408 8.79333,-1.408z" id="Path 1" fill="#000105"/></g><g clip-path="url(#clip-30)" id="Group 1"><path d="M694.7604,497.3776c0,0 10.81067,8.34133 23.06,8.82533c12.25067,0.484 15.21733,-3.692 14.42133,-6.64133c-0.79733,-2.94933 -2.54,-3.43867 -2.54,-3.43867z" id="Path 1" fill="#000105"/></g><g clip-path="url(#clip-31)" id="Group 1"><path d="M651.00067,464.6924l0.87067,-0.49467c-0.04533,-0.08 -4.64133,-8.11733 -11.836,-16.09467c-6.67467,-7.40133 -17.02133,-16.26933 -28.40667,-16.49333l-0.02,1.00133c21.15867,0.41733 39.212,31.76533 39.392,32.08133" id="Path 1" fill="#000105"/></g><g clip-path="url(#clip-32)" id="Group 1"><path d="M616.91587,432.26307c0,0 -4.50133,-1.72 -6.30133,-1.17333c-1.79867,0.548 -0.024,2.204 0.812,2.128c0.836,-0.076 4.29467,-0.376 6.87867,0.59733l2.584,0.97333z" id="Path 1" fill="#000105"/></g><g clip-path="url(#clip-33)" id="Group 1"><path d="M650.924,467.29653l0.77067,-0.64c-0.05467,-0.06533 -5.54533,-6.63067 -13.55333,-12.48667c-10.656,-7.792 -20.928,-10.80533 -29.70533,-8.71467l0.232,0.97467c10.71067,-2.552 21.60933,3.23333 28.86533,8.536c7.91333,5.78267 13.33733,12.26533 13.39067,12.33067" id="Path 1" fill="#000105"/></g><g clip-path="url(#clip-34)" id="Group 1"><path d="M613.71733,444.76173c0,0 -4.78933,-0.536 -6.39333,0.44533c-1.604,0.98133 0.528,2.13867 1.31867,1.856c0.79067,-0.284 4.06267,-1.44133 6.80933,-1.148l2.74533,0.29467z" id="Path 1" fill="#000105"/></g><g clip-path="url(#clip-35)" id="Group 1"><path d="M680.73773,434.35747c-1.15867,3.50667 -2.29467,6.88533 -3.376,10.072c-0.264,-1.13867 0.13067,-2.40533 -0.19733,-3.55067c-0.18,-0.63067 -0.57467,-1.188 -0.728,-1.82667c-0.18667,-0.784 0.00667,-1.60533 0.21733,-2.384c1.24267,-4.56133 3.14267,-8.93333 4.18133,-13.548c1.03867,-4.612 1.14133,-9.66667 -1.08933,-13.83867c0.47467,0.15067 0.952,0.29733 1.42667,0.448c-0.67467,-3.42267 -1.34667,-6.84533 -2.02133,-10.26533c-0.10267,-0.53067 -0.216,-1.07867 -0.53333,-1.51333c-0.23067,-0.316 -0.55467,-0.55067 -0.87867,-0.768c-2.90533,-1.94267 -8.41867,-3.50533 -9.24,-7.46667c-0.544,-2.604 1.91333,-4.988 2.43467,-7.48667c0.5,-2.41733 0.98133,-4.74133 1.536,-6.996c0.484,-0.124 0.99467,-0.304 1.52933,-0.548c4.71867,-2.17333 14.696,-13.81467 16.984,-16.52933c1.54,2.83867 7.45067,16.236 -0.09733,43.252c-3.03467,10.87867 -6.688,22.48 -10.148,32.94933" id="Path 1" fill="#5fc1ed"/></g><g clip-path="url(#clip-36)" id="Group 1"><path d="M673.58147,373.7776c-0.284,0.13067 -0.56133,0.24 -0.828,0.33067c1.47867,-5.73067 3.52667,-11 7.684,-16.08933c1.78933,-2.19067 3.864,-4.244 6.45467,-5.376c1.72933,-0.75467 3.61733,-1.06267 5.48,-1.36667c0.75467,-0.12 1.56667,-0.22 2.37067,-0.24267c-1.84667,2.35733 -3.42533,4.57467 -4.49067,6.43067c-2.16133,2.55867 -12.176,14.24267 -16.67067,16.31333" id="Path 1" fill="#5fc1ed"/></g><g clip-path="url(#clip-37)" id="Group 1"><path d="M691.58413,357.18747c1.10933,-1.8 2.648,-3.9 4.41067,-6.11733c1.43333,0.14 2.72533,0.63467 3.47733,1.82933c0.55733,0.88533 0.66133,1.97333 0.75467,3.016c0.25733,2.95467 0.51333,5.90667 0.77067,8.86267l-5.68267,5.34667c-0.10133,-0.892 -0.21467,-1.73067 -0.33733,-2.49867c-1.03867,-6.34133 -2.90267,-9.65333 -3.39333,-10.43867" id="Path 1" fill="#5fc1ed"/></g><g clip-path="url(#clip-38)" id="Group 1"><path d="M695.43773,371.3832l5.67333,-5.34c0.25733,2.652 0.68533,5.37733 2.32133,7.45067c1.82,2.308 4.71867,3.30933 7.41333,4.572l-16.724,13.93467c1.636,-8.716 1.75067,-15.568 1.316,-20.61733" id="Path 1" fill="#5fc1ed"/></g><g clip-path="url(#clip-39)" id="Group 1"><path d="M693.8148,393.56013l18.01867,-15.01733c0.148,0.07333 0.29467,0.15067 0.44133,0.23067c2.74533,1.48267 5.10933,3.66267 6.80533,6.28133c0.30133,0.46133 0.58133,0.93867 0.78133,1.452c0.75867,1.95733 0.244,3.95733 -0.46,5.992c-13.88933,10.49867 -30.18133,24.41067 -32.70667,26.57467c1.81067,-5.81733 3.564,-11.708 5.16,-17.39467c0.79467,-2.86267 1.43867,-5.568 1.96,-8.11867" id="Path 1" fill="#5fc1ed"/></g><g clip-path="url(#clip-40)" id="Group 1"><path d="M723.36493,409.82627c-0.71467,3.77067 -4.124,6.32533 -7.18,8.652c-5.89333,4.48133 -11.38667,9.48133 -16.40267,14.928c-4.856,5.276 -9.73067,11.26933 -16.67067,13.08267c-1.74267,0.45467 -3.98,0.37467 -5.10933,-0.84133c1.34,-3.92667 2.76933,-8.164 4.21867,-12.58533c1.268,-3.868 2.56133,-7.872 3.83333,-11.92533c3.96667,-3.416 19.45467,-16.67333 32.716,-26.85867c-0.57467,1.62667 -1.072,3.272 -0.95467,4.932c0.04667,0.68133 0.216,1.38533 0.66667,1.9c0.388,0.444 0.93867,0.69867 1.44267,1.00267c2.56533,1.54933 4.00133,4.768 3.44,7.71333" id="Path 1" fill="#5fc1ed"/></g><g clip-path="url(#clip-41)" id="Group 1"><path d="M703.90653,449.80213c-0.56133,-1.97333 -0.508,-3.92 1.84667,-5.92133c3.252,-2.76133 6.992,-5.00533 10.60533,-7.42c-2.29733,3.464 -5.256,7.11333 -9.196,10.50267c-1.00933,0.868 -2.104,1.824 -3.256,2.83867" id="Path 1" fill="#5fc1ed"/></g><g clip-path="url(#clip-42)" id="Group 1"><path d="M722.06613,437.11907c0.016,-0.02 0.04,-0.04 0.07333,-0.06667l0.03733,-0.01733c-0.05067,0.04 -0.088,0.06667 -0.11067,0.084" id="Path 1" fill="#5fc1ed"/></g><g clip-path="url(#clip-43)" id="Group 1"><path d="M715.82467,438.9892c0.73467,-1.012 1.41333,-2.01733 2.04,-3.00267v-0.00267c0.208,-0.324 0.408,-0.648 0.60133,-0.968c1.076,-0.76133 2.128,-1.55333 3.13867,-2.392c1.91333,-1.676 3.75067,-3.43867 5.58667,-5.20267c1.22667,-1.172 2.452,-2.34667 3.67733,-3.52267c2.73867,-2.62533 5.50667,-5.276 8.76533,-7.21333c3.26267,-1.94 7.10667,-3.132 10.86,-2.57733c0.67467,0.10267 1.36267,0.26667 1.92,0.664c0.328,0.23333 0.588,0.53067 0.792,0.868c-0.75867,0.428 -1.51333,0.86133 -2.25467,1.3c-11.63733,6.83867 -24.89467,17.084 -28.13333,19.59867c-3.076,0.964 -5.49333,1.86667 -6.99333,2.45067" id="Path 1" fill="#5fc1ed"/></g><g clip-path="url(#clip-44)" id="Group 1"><path d="M751.45933,417.80413c0.708,-0.41733 1.42267,-0.832 2.14667,-1.24267c0.15067,0.488 0.224,1.012 0.244,1.52c0.11067,2.58133 -0.828,5.076 -1.26267,7.624c-0.28267,1.676 -0.28667,3.52267 0.29067,5.08267c-0.964,0.58667 -1.56933,0.98533 -1.82,1.14533c-9.32,-0.14 -18.56,1.8 -25.46267,3.77333c3.54667,-2.80133 14.38,-11.15733 25.864,-17.90267" id="Path 1" fill="#5fc1ed"/></g><g clip-path="url(#clip-45)" id="Group 1"><path d="M725.31533,457.46267c-7.176,3.08267 -15.42133,6.03467 -22.88133,8.50533c-0.692,-0.85467 -1.06933,-1.93333 -0.80133,-2.98133c0.504,-1.97067 2.908,-2.88933 3.68933,-4.76533c1.08533,-2.60933 -0.22,-5.02267 -1.07467,-7.384c0.31333,-0.28 0.624,-0.55467 0.928,-0.82133v-0.004c0.928,-0.81067 1.81333,-1.57867 2.64133,-2.29333c2.69467,-2.31467 4.93867,-4.752 6.82533,-7.16667c1.52933,-0.65467 18.74133,-7.848 36.26667,-7.62l3.904,6.95867c-1.89067,1.60667 -12.516,10.27867 -29.49733,17.572" id="Path 1" fill="#5fc1ed"/></g><g clip-path="url(#clip-46)" id="Group 1"><path d="M738.72613,481.356c4.02667,0.27733 8.128,0.544 12.068,0.78533c-0.51067,0.22933 -1.03467,0.43067 -1.56267,0.6c-2.39333,0.78533 -4.91867,1.12533 -7.316,1.89333c-2.28133,0.732 -4.43867,1.844 -6.772,2.36133c-3.216,0.71867 -6.56267,0.27067 -9.81867,-0.23333c-5.556,-0.85867 -11.08667,-1.87333 -16.58667,-3.03867c-1.33867,-0.284 -2.79067,-0.648 -3.63333,-1.72667c-0.884,-1.136 -0.73733,-2.632 -0.02933,-3.90667c0.25067,0.03333 0.504,0.06267 0.75733,0.096c6.49867,0.832 13.49867,1.63333 19.94,2.184c3.99067,0.34133 8.42133,0.672 12.95333,0.98533" id="Path 1" fill="#5fc1ed"/></g><g clip-path="url(#clip-47)" id="Group 1"><path d="M755.2628,478.46067c-0.67467,1.152 -1.65333,2.064 -2.78133,2.77867c-8.8,-0.53067 -18.608,-1.18267 -26.62533,-1.864c-6.50133,-0.55467 -13.57733,-1.36933 -20.13333,-2.21333c0.43733,-0.51467 0.972,-0.952 1.55333,-1.25867c2.18,-1.14267 4.75867,-1.112 7.16667,-1.624c0.79467,-0.16667 1.67867,-0.49067 1.96,-1.248c0.44,-1.20667 -0.94933,-2.244 -2.13733,-2.72533c-1.87733,-0.76133 -3.81733,-1.352 -5.79733,-1.76933c-1.62,-0.34133 -3.30667,-0.58133 -4.728,-1.42933c-0.17467,-0.104 -0.344,-0.22133 -0.50533,-0.348c3.48933,-1.16133 7.14,-2.424 10.76667,-3.75733c1.60933,0.488 15.64133,4.55867 37.37067,5.81067c1.49333,0.08667 3.00933,0.168 4.54133,0.24133c0.472,3.31867 0.98933,6.61867 -0.65067,9.40667" id="Path 1" fill="#5fc1ed"/></g><g clip-path="url(#clip-48)" id="Group 1"><path d="M762.55947,453.16147c-2.13733,2.55467 -5.16,4.54133 -6.39867,7.64c-0.904,2.26133 -0.724,4.74267 -0.38667,7.244c-0.02,0 -0.04,-0.004 -0.06,-0.004c-0.03733,0 -0.07733,0 -0.11067,-0.00267c-1.40933,-0.07333 -2.79867,-0.144 -4.17467,-0.224c-18.724,-1.08267 -31.67067,-4.25733 -35.83733,-5.4c3.476,-1.296 6.90267,-2.652 10.12133,-4.03333c1.10533,-0.472 2.18667,-0.956 3.23867,-1.44c3.49067,-1.60667 6.672,-3.252 9.53467,-4.852c0.748,0.11333 4.08,0.59467 9.49333,0.89867c3.86667,0.21733 8.78667,0.34 14.58,0.17333" id="Path 1" fill="#5fc1ed"/></g><g clip-path="url(#clip-49)" id="Group 1"><path d="M753.32267,431.72933c0.25733,0.44133 0.57733,0.84533 0.968,1.19867c2.42133,2.184 6.636,1.62267 8.71333,4.13467c0.08,0.096 0.15333,0.19333 0.22267,0.29333c-3.96,0.96133 -6.59067,1.75067 -7.54,2.04667l-3.81333,-6.80133c0.304,-0.19067 0.788,-0.484 1.44933,-0.872" id="Path 1" fill="#5fc1ed"/></g><g clip-path="url(#clip-50)" id="Group 1"><path d="M764.18907,450.62693c-0.2,0.45733 -0.44133,0.892 -0.71067,1.30533c-11.996,0.45067 -20.35067,-0.264 -23.55333,-0.65733c9.49333,-5.464 15.07467,-10.216 15.77867,-10.82667c0.39467,-0.124 2.04667,-0.57067 4.728,-1.212c0.98933,-0.23733 2.11467,-0.49733 3.37067,-0.77867c0.34,0.86267 0.504,1.81333 0.65733,2.736c0.52133,3.152 1.01867,6.512 -0.27067,9.43333" id="Path 1" fill="#5fc1ed"/></g><g clip-path="url(#clip-51)" id="Group 1"/><g clip-path="url(#clip-52)" id="Group 1"/><g clip-path="url(#clip-53)" id="Group 1"/><g clip-path="url(#clip-54)" id="Group 1"/><g clip-path="url(#clip-55)" id="Group 1"/><g clip-path="url(#clip-56)" id="Group 1"/><g clip-path="url(#clip-57)" id="Group 1"/><g clip-path="url(#clip-58)" id="Group 1"/><g clip-path="url(#clip-59)" id="Group 1"/><g clip-path="url(#clip-60)" id="Group 1"/><g clip-path="url(#clip-61)" id="Group 1"/><g clip-path="url(#clip-62)" id="Group 1"/></g></g></g></g></g></g></svg>