<?xml version="1.0" encoding="utf-8"?>
<svg xmlns="http://www.w3.org/2000/svg" viewBox="71.9291 95.2478 228.5945 136.5131" width="228.595px" height="136.513px" preserveAspectRatio="none"><defs><clipPath id="clip-1"><rect x="473.5" y="188.5" width="480" height="480" id="clip-1" fill="none"/></clipPath><clipPath id="clip-2"><path d="M473.5,188.50002h479.99999v479.99999h-479.99999z" id="clip-2"/></clipPath><clipPath id="clip-3"><path d="M473.5,188.50001h479.99999v479.99999h-479.99999z" id="clip-3" fill="none"/></clipPath><clipPath id="clip-4"><path d="M473.5,188.50001h479.99999v479.99999h-479.99999z" id="clip-4" fill="none"/></clipPath><clipPath id="clip-5"><path d="M473.50001,188.50001h479.99999v479.99999h-479.99999z" id="clip-5" fill="none"/></clipPath><clipPath id="clip-6"><path d="M473.50001,188.50001h479.99999v479.99999h-479.99999z" id="clip-6" fill="none"/></clipPath><clipPath id="clip-7"><path d="M473.50001,188.50002h479.99999v479.99999h-479.99999z" id="clip-7" fill="none"/></clipPath><clipPath id="clip-8"><path d="M473.5,188.50001h479.99999v479.99999h-479.99999z" id="clip-8" fill="none"/></clipPath><clipPath id="clip-9"><path d="M473.5,188.50001h479.99999v479.99999h-479.99999z" id="clip-9" fill="none"/></clipPath><clipPath id="clip-10"><path d="M473.50001,188.50001h479.99999v479.99999h-479.99999z" id="clip-10" fill="none"/></clipPath><clipPath id="clip-11"><path d="M473.5,188.50001h479.99999v479.99999h-479.99999z" id="clip-11" fill="none"/></clipPath><clipPath id="clip-12"><path d="M473.5,188.50001h479.99999v479.99999h-479.99999z" id="clip-12" fill="none"/></clipPath><clipPath id="clip-13"><path d="M473.49999,188.50001h479.99999v479.99999h-479.99999z" id="clip-13" fill="none"/></clipPath><clipPath id="clip-14"><path d="M473.5,188.50001h479.99999v479.99999h-479.99999z" id="clip-14" fill="none"/></clipPath><clipPath id="clip-15"><path d="M473.5,188.50002h479.99999v479.99999h-479.99999z" id="clip-15" fill="none"/></clipPath><clipPath id="clip-16"><path d="M473.5,188.50001h479.99999v479.99999h-479.99999z" id="clip-16" fill="none"/></clipPath><clipPath id="clip-17"><path d="M473.5,188.50002h479.99999v479.99999h-479.99999z" id="clip-17" fill="none"/></clipPath><clipPath id="clip-18"><path d="M473.5,188.50002h479.99999v479.99999h-479.99999z" id="clip-18" fill="none"/></clipPath><clipPath id="clip-19"><path d="M473.49999,188.50001h479.99999v479.99999h-479.99999z" id="clip-19" fill="none"/></clipPath><clipPath id="clip-20"><path d="M473.5,188.50002h479.99999v479.99999h-479.99999z" id="clip-20" fill="none"/></clipPath><clipPath id="clip-21"><path d="M473.5,188.50002h479.99999v479.99999h-479.99999z" id="clip-21" fill="none"/></clipPath><clipPath id="clip-22"><path d="M473.5,188.50002h479.99999v479.99999h-479.99999z" id="clip-22" fill="none"/></clipPath><clipPath id="clip-23"><path d="M473.5,188.50002h479.99999v479.99999h-479.99999z" id="clip-23" fill="none"/></clipPath><clipPath id="clip-24"><path d="M473.5,188.50002h479.99999v479.99999h-479.99999z" id="clip-24" fill="none"/></clipPath><clipPath id="clip-25"><path d="M473.5,188.50002h479.99999v479.99999h-479.99999z" id="clip-25" fill="none"/></clipPath><clipPath id="clip-26"><path d="M473.5,188.50002h479.99999v479.99999h-479.99999z" id="clip-26" fill="none"/></clipPath><clipPath id="clip-27"><path d="M473.49999,188.50002h479.99999v479.99999h-479.99999z" id="clip-27" fill="none"/></clipPath><clipPath id="clip-28"><path d="M473.5,188.50002h479.99999v479.99999h-479.99999z" id="clip-28" fill="none"/></clipPath><clipPath id="clip-29"><path d="M473.5,188.50002h479.99999v479.99999h-479.99999z" id="clip-29" fill="none"/></clipPath><clipPath id="clip-30"><path d="M473.5,188.50001h479.99999v479.99999h-479.99999z" id="clip-30" fill="none"/></clipPath><clipPath id="clip-31"><path d="M473.5,188.50002h479.99999v479.99999h-479.99999z" id="clip-31" fill="none"/></clipPath><clipPath id="clip-32"><path d="M473.5,188.50001h479.99999v479.99999h-479.99999z" id="clip-32" fill="none"/></clipPath><clipPath id="clip-33"><path d="M473.5,188.50001h479.99999v479.99999h-479.99999z" id="clip-33" fill="none"/></clipPath><clipPath id="clip-34"><path d="M473.5,188.50002h479.99999v479.99999h-479.99999z" id="clip-34" fill="none"/></clipPath><clipPath id="clip-35"><path d="M473.5,188.50001h479.99999v479.99999h-479.99999z" id="clip-35" fill="none"/></clipPath><clipPath id="clip-36"><path d="M473.5,188.50001h479.99999v479.99999h-479.99999z" id="clip-36" fill="none"/></clipPath><clipPath id="clip-37"><path d="M473.5,188.50001h479.99999v479.99999h-479.99999z" id="clip-37" fill="none"/></clipPath><clipPath id="clip-38"><path d="M473.5,188.50001h479.99999v479.99999h-479.99999z" id="clip-38" fill="none"/></clipPath><clipPath id="clip-39"><path d="M473.5,188.50002h479.99999v479.99999h-479.99999z" id="clip-39" fill="none"/></clipPath><clipPath id="clip-40"><path d="M473.5,188.50002h479.99999v479.99999h-479.99999z" id="clip-40" fill="none"/></clipPath><clipPath id="clip-41"><path d="M473.5,188.50002h479.99999v479.99999h-479.99999z" id="clip-41" fill="none"/></clipPath><clipPath id="clip-42"><path d="M473.49999,188.50001h479.99999v479.99999h-479.99999z" id="clip-42" fill="none"/></clipPath><clipPath id="clip-43"><path d="M473.5,188.50002h479.99999v479.99999h-479.99999z" id="clip-43" fill="none"/></clipPath><clipPath id="clip-44"><path d="M473.49999,188.50001h479.99999v479.99999h-479.99999z" id="clip-44" fill="none"/></clipPath><clipPath id="clip-45"><path d="M473.5,188.50002h479.99999v479.99999h-479.99999z" id="clip-45" fill="none"/></clipPath><clipPath id="clip-46"><path d="M473.5,188.50002h479.99999v479.99999h-479.99999z" id="clip-46" fill="none"/></clipPath><clipPath id="clip-47"><path d="M473.5,188.50001h479.99999v479.99999h-479.99999z" id="clip-47" fill="none"/></clipPath><clipPath id="clip-48"><path d="M473.5,188.50001h479.99999v479.99999h-479.99999z" id="clip-48" fill="none"/></clipPath><clipPath id="clip-49"><path d="M473.49999,188.50001h479.99999v479.99999h-479.99999z" id="clip-49" fill="none"/></clipPath><clipPath id="clip-50"><path d="M473.5,188.50002h479.99999v479.99999h-479.99999z" id="clip-50" fill="none"/></clipPath><clipPath id="clip-51"><path d="M473.5,188.50001h479.99999v479.99999h-479.99999z" id="clip-51" fill="none"/></clipPath><clipPath id="clip-52"><path d="M473.5,188.50002h479.99999v479.99999h-479.99999z" id="clip-52" fill="none"/></clipPath><clipPath id="clip-53"><path d="M473.49999,188.50002h479.99999v479.99999h-479.99999z" id="clip-53" fill="none"/></clipPath><clipPath id="clip-54"><path d="M473.5,188.50001h479.99999v479.99999h-479.99999z" id="clip-54" fill="none"/></clipPath><clipPath id="clip-55"><path d="M473.5,188.50001h479.99999v479.99999h-479.99999z" id="clip-55" fill="none"/></clipPath><clipPath id="clip-56"><path d="M473.5,188.50001h479.99999v479.99999h-479.99999z" id="clip-56" fill="none"/></clipPath><clipPath id="clip-57"><path d="M473.5,188.50001h479.99999v479.99999h-479.99999z" id="clip-57" fill="none"/></clipPath><clipPath id="clip-58"><path d="M473.5,188.50001h479.99999v479.99999h-479.99999z" id="clip-58" fill="none"/></clipPath><clipPath id="clip-59"><path d="M473.50001,188.50001h479.99999v479.99999h-479.99999z" id="clip-59" fill="none"/></clipPath><clipPath id="clip-60"><path d="M473.5,188.50001h479.99999v479.99999h-479.99999z" id="clip-60" fill="none"/></clipPath><clipPath id="clip-61"><path d="M473.5,188.50001h479.99999v479.99999h-479.99999z" id="clip-61" fill="none"/></clipPath><clipPath id="clip-62"><path d="M473.5,188.50001h479.99999v479.99999h-479.99999z" id="clip-62" fill="none"/></clipPath><clipPath id="clip-63"><path d="M473.5,188.50001h479.99999v479.99999h-479.99999z" id="clip-63" fill="none"/></clipPath><clipPath id="clip-64"><path d="M473.49999,188.50002h479.99999v479.99999h-479.99999z" id="clip-64" fill="none"/></clipPath><clipPath id="clip-65"><path d="M473.49999,188.50001h479.99999v479.99999h-479.99999z" id="clip-65" fill="none"/></clipPath><clipPath id="clip-66"><path d="M473.5,188.50001h479.99999v479.99999h-479.99999z" id="clip-66" fill="none"/></clipPath><clipPath id="clip-67"><path d="M473.5,188.50001h479.99999v479.99999h-479.99999z" id="clip-67" fill="none"/></clipPath><clipPath id="clip-68"><path d="M473.5,188.50002h479.99999v479.99999h-479.99999z" id="clip-68" fill="none"/></clipPath><clipPath id="clip-69"><path d="M473.5,188.50002h479.99999v479.99999h-479.99999z" id="clip-69" fill="none"/></clipPath><clipPath id="clip-70"><path d="M473.5,188.50002h479.99999v479.99999h-479.99999z" id="clip-70" fill="none"/></clipPath><clipPath id="clip-71"><path d="M473.5,188.50001h479.99999v479.99999h-479.99999z" id="clip-71" fill="none"/></clipPath><clipPath id="clip-72"><path d="M473.5,188.50001h479.99999v479.99999h-479.99999z" id="clip-72" fill="none"/></clipPath><clipPath id="clip-73"><path d="M473.5,188.50001h479.99999v479.99999h-479.99999z" id="clip-73" fill="none"/></clipPath><clipPath id="clip-74"><path d="M473.5,188.50001h479.99999v479.99999h-479.99999z" id="clip-74" fill="none"/></clipPath><clipPath id="clip-75"><path d="M473.5,188.50001h479.99999v479.99999h-479.99999z" id="clip-75" fill="none"/></clipPath><clipPath id="clip-76"><path d="M473.5,188.50001h479.99999v479.99999h-479.99999z" id="clip-76" fill="none"/></clipPath><clipPath id="clip-77"><path d="M473.5,188.50001h479.99999v479.99999h-479.99999z" id="clip-77" fill="none"/></clipPath><clipPath id="clip-78"><path d="M473.5,188.50001h479.99999v479.99999h-479.99999z" id="clip-78" fill="none"/></clipPath><clipPath id="clip-79"><path d="M473.50001,188.50001h479.99999v479.99999h-479.99999z" id="clip-79" fill="none"/></clipPath><clipPath id="clip-80"><path d="M473.50001,188.50002h479.99999v479.99999h-479.99999z" id="clip-80" fill="none"/></clipPath><clipPath id="clip-81"><path d="M473.50001,188.50001h479.99999v479.99999h-479.99999z" id="clip-81" fill="none"/></clipPath><clipPath id="clip-82"><path d="M473.50001,188.50001h479.99999v479.99999h-479.99999z" id="clip-82" fill="none"/></clipPath><clipPath id="clip-83"><path d="M473.5,188.50001h479.99999v479.99999h-479.99999z" id="clip-83" fill="none"/></clipPath><clipPath id="clip-84"><path d="M473.50001,188.50001h479.99999v479.99999h-479.99999z" id="clip-84" fill="none"/></clipPath><clipPath id="clip-85"><path d="M473.5,188.50001h479.99999v479.99999h-479.99999z" id="clip-85" fill="none"/></clipPath><clipPath id="clip-86"><path d="M473.5,188.50001h479.99999v479.99999h-479.99999z" id="clip-86" fill="none"/></clipPath><clipPath id="clip-87"><path d="M473.5,188.50001h479.99999v479.99999h-479.99999z" id="clip-87" fill="none"/></clipPath><clipPath id="clip-88"><path d="M473.5,188.50002h479.99999v479.99999h-479.99999z" id="clip-88" fill="none"/></clipPath><clipPath id="clip-89"><path d="M473.50001,188.50001h479.99999v479.99999h-479.99999z" id="clip-89" fill="none"/></clipPath><clipPath id="clip-90"><path d="M473.5,188.50002h479.99999v479.99999h-479.99999z" id="clip-90" fill="none"/></clipPath><clipPath id="clip-91"><path d="M473.50001,188.50002h479.99999v479.99999h-479.99999z" id="clip-91" fill="none"/></clipPath><clipPath id="clip-92"><path d="M473.5,188.50001h479.99999v479.99999h-479.99999z" id="clip-92" fill="none"/></clipPath><clipPath id="clip-93"><path d="M473.5,188.50002h479.99999v479.99999h-479.99999z" id="clip-93" fill="none"/></clipPath><clipPath id="clip-94"><path d="M473.5,188.50002h479.99999v479.99999h-479.99999z" id="clip-94" fill="none"/></clipPath><clipPath id="clip-95"><path d="M473.5,188.50002h479.99999v479.99999h-479.99999z" id="clip-95" fill="none"/></clipPath><clipPath id="clip-96"><path d="M473.49999,188.50002h479.99999v479.99999h-479.99999z" id="clip-96" fill="none"/></clipPath><clipPath id="clip-97"><path d="M473.50001,188.50002h479.99999v479.99999h-479.99999z" id="clip-97" fill="none"/></clipPath><clipPath id="clip-98"><path d="M473.49999,188.50002h479.99999v479.99999h-479.99999z" id="clip-98" fill="none"/></clipPath><clipPath id="clip-99"><path d="M473.5,188.50002h479.99999v479.99999h-479.99999z" id="clip-99" fill="none"/></clipPath><clipPath id="clip-100"><path d="M473.50001,188.50002h479.99999v479.99999h-479.99999z" id="clip-100" fill="none"/></clipPath><clipPath id="clip-101"><path d="M473.5,188.50002h479.99999v479.99999h-479.99999z" id="clip-101" fill="none"/></clipPath><clipPath id="clip-102"><path d="M473.49999,188.50002h479.99999v479.99999h-479.99999z" id="clip-102" fill="none"/></clipPath><clipPath id="clip-103"><path d="M473.5,188.50001h479.99999v479.99999h-479.99999z" id="clip-103" fill="none"/></clipPath><clipPath id="clip-104"><path d="M473.49999,188.50002h479.99999v479.99999h-479.99999z" id="clip-104" fill="none"/></clipPath><clipPath id="clip-105"><path d="M473.50001,188.50001h479.99999v479.99999h-479.99999z" id="clip-105" fill="none"/></clipPath><clipPath id="clip-106"><path d="M473.5,188.50001h479.99999v479.99999h-479.99999z" id="clip-106" fill="none"/></clipPath><clipPath id="clip-107"><path d="M473.5,188.50002h479.99999v479.99999h-479.99999z" id="clip-107" fill="none"/></clipPath><clipPath id="clip-108"><path d="M473.5,188.50001h479.99999v479.99999h-479.99999z" id="clip-108" fill="none"/></clipPath><clipPath id="clip-109"><path d="M473.50001,188.50001h479.99999v479.99999h-479.99999z" id="clip-109" fill="none"/></clipPath><clipPath id="clip-110"><path d="M473.5,188.50001h479.99999v479.99999h-479.99999z" id="clip-110" fill="none"/></clipPath><clipPath id="clip-111"><path d="M473.5,188.50001h479.99999v479.99999h-479.99999z" id="clip-111" fill="none"/></clipPath><clipPath id="clip-112"><path d="M473.5,188.50002h479.99999v479.99999h-479.99999z" id="clip-112" fill="none"/></clipPath><clipPath id="clip-113"><path d="M473.5,188.50002h479.99999v479.99999h-479.99999z" id="clip-113" fill="none"/></clipPath><clipPath id="clip-114"><path d="M473.50001,188.50002h479.99999v479.99999h-479.99999z" id="clip-114" fill="none"/></clipPath><clipPath id="clip-115"><path d="M473.5,188.50001h479.99999v479.99999h-479.99999z" id="clip-115" fill="none"/></clipPath><clipPath id="clip-116"><path d="M473.5,188.50002h479.99999v479.99999h-479.99999z" id="clip-116" fill="none"/></clipPath><clipPath id="clip-117"><path d="M473.5,188.50001h479.99999v479.99999h-479.99999z" id="clip-117" fill="none"/></clipPath><clipPath id="clip-118"><path d="M473.5,188.50002h479.99999v479.99999h-479.99999z" id="clip-118" fill="none"/></clipPath><clipPath id="clip-119"><path d="M473.5,188.50002h479.99999v479.99999h-479.99999z" id="clip-119" fill="none"/></clipPath><clipPath id="clip-120"><path d="M473.5,188.50001h479.99999v479.99999h-479.99999z" id="clip-120" fill="none"/></clipPath><clipPath id="clip-121"><path d="M473.49999,188.50001h479.99999v479.99999h-479.99999z" id="clip-121" fill="none"/></clipPath><clipPath id="clip-122"><path d="M473.5,188.50001h479.99999v479.99999h-479.99999z" id="clip-122" fill="none"/></clipPath><clipPath id="clip-123"><path d="M473.50001,188.50002h479.99999v479.99999h-479.99999z" id="clip-123" fill="none"/></clipPath><clipPath id="clip-124"><path d="M473.5,188.50001h479.99999v479.99999h-479.99999z" id="clip-124" fill="none"/></clipPath><clipPath id="clip-125"><path d="M473.49999,188.50002h479.99999v479.99999h-479.99999z" id="clip-125" fill="none"/></clipPath><clipPath id="clip-126"><path d="M473.5,188.50002h479.99999v479.99999h-479.99999z" id="clip-126" fill="none"/></clipPath><clipPath id="clip-127"><path d="M473.5,188.50001h479.99999v479.99999h-479.99999z" id="clip-127" fill="none"/></clipPath><clipPath id="clip-128"><path d="M473.49999,188.50001h479.99999v479.99999h-479.99999z" id="clip-128" fill="none"/></clipPath><clipPath id="clip-129"><path d="M473.5,188.50001h479.99999v479.99999h-479.99999z" id="clip-129" fill="none"/></clipPath><clipPath id="clip-130"><path d="M473.5,188.50001h479.99999v479.99999h-479.99999z" id="clip-130" fill="none"/></clipPath><clipPath id="clip-131"><path d="M473.50001,188.50001h479.99999v479.99999h-479.99999z" id="clip-131" fill="none"/></clipPath><clipPath id="clip-132"><path d="M473.49999,188.50001h479.99999v479.99999h-479.99999z" id="clip-132" fill="none"/></clipPath><clipPath id="clip-133"><path d="M473.5,188.50001h479.99999v479.99999h-479.99999z" id="clip-133" fill="none"/></clipPath><clipPath id="clip-134"><path d="M473.50001,188.50001h479.99999v479.99999h-479.99999z" id="clip-134" fill="none"/></clipPath><clipPath id="clip-135"><path d="M473.5,188.50001h479.99999v479.99999h-479.99999z" id="clip-135" fill="none"/></clipPath><clipPath id="clip-136"><path d="M473.5,188.50001h479.99999v479.99999h-479.99999z" id="clip-136" fill="none"/></clipPath><clipPath id="clip-137"><path d="M473.5,188.50002h479.99999v479.99999h-479.99999z" id="clip-137" fill="none"/></clipPath><clipPath id="clip-138"><path d="M473.5,188.50001h479.99999v479.99999h-479.99999z" id="clip-138" fill="none"/></clipPath><clipPath id="clip-139"><path d="M473.50001,188.50001h479.99999v479.99999h-479.99999z" id="clip-139" fill="none"/></clipPath><clipPath id="clip-140"><path d="M473.5,188.50001h479.99999v479.99999h-479.99999z" id="clip-140" fill="none"/></clipPath><clipPath id="clip-141"><path d="M473.5,188.50002h479.99999v479.99999h-479.99999z" id="clip-141" fill="none"/></clipPath><clipPath id="clip-142"><path d="M473.50001,188.50002h479.99999v479.99999h-479.99999z" id="clip-142" fill="none"/></clipPath><clipPath id="clip-143"><path d="M473.5,188.50002h479.99999v479.99999h-479.99999z" id="clip-143" fill="none"/></clipPath><clipPath id="clip-144"><path d="M473.49999,188.50001h479.99999v479.99999h-479.99999z" id="clip-144" fill="none"/></clipPath><clipPath id="clip-145"><path d="M473.5,188.50001h479.99999v479.99999h-479.99999z" id="clip-145" fill="none"/></clipPath><clipPath id="clip-146"><path d="M473.5,188.50001h479.99999v479.99999h-479.99999z" id="clip-146" fill="none"/></clipPath><clipPath id="clip-147"><path d="M473.49999,188.50001h479.99999v479.99999h-479.99999z" id="clip-147" fill="none"/></clipPath><clipPath id="clip-148"><path d="M473.49999,188.50001h479.99999v479.99999h-479.99999z" id="clip-148" fill="none"/></clipPath><clipPath id="clip-149"><path d="M473.5,188.50001h479.99999v479.99999h-479.99999z" id="clip-149" fill="none"/></clipPath><clipPath id="clip-150"><path d="M473.49999,188.50001h479.99999v479.99999h-479.99999z" id="clip-150" fill="none"/></clipPath><clipPath id="clip-151"><path d="M473.5,188.50001h479.99999v479.99999h-479.99999z" id="clip-151" fill="none"/></clipPath><clipPath id="clip-152"><path d="M473.50001,188.50001h479.99999v479.99999h-479.99999z" id="clip-152" fill="none"/></clipPath><clipPath id="clip-153"><path d="M473.5,188.50002h479.99999v479.99999h-479.99999z" id="clip-153" fill="none"/></clipPath><clipPath id="clip-154"><path d="M473.5,188.50001h479.99999v479.99999h-479.99999z" id="clip-154" fill="none"/></clipPath><clipPath id="clip-155"><path d="M473.5,188.50001h479.99999v479.99999h-479.99999z" id="clip-155" fill="none"/></clipPath><clipPath id="clip-156"><path d="M473.49999,188.50001h479.99999v479.99999h-479.99999z" id="clip-156" fill="none"/></clipPath><clipPath id="clip-157"><path d="M473.50001,188.50001h479.99999v479.99999h-479.99999z" id="clip-157" fill="none"/></clipPath><clipPath id="clip-158"><path d="M473.50001,188.50001h479.99999v479.99999h-479.99999z" id="clip-158" fill="none"/></clipPath><clipPath id="clip-159"><path d="M473.50001,188.50002h479.99999v479.99999h-479.99999z" id="clip-159" fill="none"/></clipPath><clipPath id="clip-160"><path d="M473.5,188.50001h479.99999v479.99999h-479.99999z" id="clip-160" fill="none"/></clipPath><clipPath id="clip-161"><path d="M473.5,188.50001h479.99999v479.99999h-479.99999z" id="clip-161" fill="none"/></clipPath><clipPath id="clip-162"><path d="M473.5,188.50001h479.99999v479.99999h-479.99999z" id="clip-162" fill="none"/></clipPath><clipPath id="clip-163"><path d="M473.5,188.50001h479.99999v479.99999h-479.99999z" id="clip-163" fill="none"/></clipPath><clipPath id="clip-164"><path d="M473.49999,188.50002h479.99999v479.99999h-479.99999z" id="clip-164" fill="none"/></clipPath><clipPath id="clip-165"><path d="M473.49999,188.50001h479.99999v479.99999h-479.99999z" id="clip-165" fill="none"/></clipPath><clipPath id="clip-166"><path d="M473.49999,188.50001h479.99999v479.99999h-479.99999z" id="clip-166" fill="none"/></clipPath><clipPath id="clip-167"><path d="M473.49999,188.50002h479.99999v479.99999h-479.99999z" id="clip-167" fill="none"/></clipPath><clipPath id="clip-168"><path d="M473.5,188.50001h479.99999v479.99999h-479.99999z" id="clip-168" fill="none"/></clipPath><clipPath id="clip-169"><path d="M473.50001,188.50001h479.99999v479.99999h-479.99999z" id="clip-169" fill="none"/></clipPath><clipPath id="clip-170"><path d="M473.5,188.50002h479.99999v479.99999h-479.99999z" id="clip-170" fill="none"/></clipPath><clipPath id="clip-171"><path d="M473.5,188.50001h479.99999v479.99999h-479.99999z" id="clip-171" fill="none"/></clipPath><clipPath id="clip-172"><path d="M473.50001,188.50001h479.99999v479.99999h-479.99999z" id="clip-172" fill="none"/></clipPath><clipPath id="clip-173"><path d="M473.50001,188.50001h479.99999v479.99999h-479.99999z" id="clip-173" fill="none"/></clipPath><clipPath id="clip-174"><path d="M473.5,188.50002h479.99999v479.99999h-479.99999z" id="clip-174" fill="none"/></clipPath><clipPath id="clip-175"><path d="M473.5,188.50002h479.99999v479.99999h-479.99999z" id="clip-175" fill="none"/></clipPath></defs><g fill="none" fill-rule="nonzero" stroke="none" stroke-width="1" stroke-linecap="butt" stroke-linejoin="miter" stroke-miterlimit="10" stroke-dasharray="" stroke-dashoffset="0" font-family="none" font-weight="none" font-size="none" text-anchor="none" style="mix-blend-mode: normal" transform="matrix(0.7142859697341919, 0, 0, 0.7142859697341919, -323.16217041015625, -147.4065704345703)" id="object-0"><g><g id="stage"><g id="layer1 1"><g clip-path="url(#clip-1)" id="Group 1"><g id="Group 1"><g clip-path="url(#clip-2)" id="Group 1" fill="none"/><g clip-path="url(#clip-3)" id="Group 1"><path d="M717.16253,404.87307c0.34667,0.72 0.66133,1.45867 1.04667,2.15733c4.55067,8.23733 3.76933,16.672 1.048,25.18933c1.72667,-9.11333 0.84267,-17.92933 -3.152,-26.408c0.352,-0.312 0.70533,-0.62533 1.05733,-0.93867" id="Path 1" fill="#ffffff"/></g><g clip-path="url(#clip-4)" id="Group 1"><path d="M708.82947,405.6192c-3.33333,8.2 -4.44133,16.612 -2.85467,25.34533c-0.17867,0.02267 -0.35733,0.04667 -0.536,0.07067c-0.416,-1.94 -1.17867,-3.87867 -1.18133,-5.81867c-0.004,-4.52133 0.15333,-9.06533 0.652,-13.556c0.27067,-2.45067 1.61733,-4.64267 3.92,-6.04133" id="Path 1" fill="#ffffff"/></g><g clip-path="url(#clip-5)" id="Group 1"><path d="M717.5368,473.1004c-2.16667,3.88533 -6.852,3.944 -9.80133,0.19467c3.392,1.73067 6.424,1.928 9.80133,-0.19467" id="Path 1" fill="#ffffff"/></g><g clip-path="url(#clip-6)" id="Group 1"><path d="M708.7264,484.24507h7.88133c-1.76133,2.38267 -5.89733,2.36267 -7.88133,0" id="Path 1" fill="#ffffff"/></g><g clip-path="url(#clip-7)" id="Group 1"><path d="M708.2544,462.40933c4.45867,1.29867 4.88,1.292 8.38133,-0.05333c-1.02933,2.58933 -6.02533,2.75867 -8.38133,0.05333" id="Path 1" fill="#ffffff"/></g><g clip-path="url(#clip-8)" id="Group 1"><path d="M709.65133,492.8928h6.05733c-1.88533,1.992 -4.576,1.94667 -6.05733,0" id="Path 1" fill="#ffffff"/></g><g clip-path="url(#clip-9)" id="Group 1"><path d="M709.28947,449.7172c2.556,0.96 4.93867,0.85067 7.33067,-0.87867c-1.35333,2.67867 -4.924,3.04 -7.33067,0.87867" id="Path 1" fill="#ffffff"/></g><g clip-path="url(#clip-10)" id="Group 1"><path d="M873.01733,359.64387c-0.448,3.71067 -1.632,7.63333 -3.556,10.796c-2.82667,4.64 -6.304,8.99467 -10.07467,12.924c-8.99867,9.376 -15.83733,19.90267 -19.68667,32.39333c-1.672,5.41467 -3.82667,10.70933 -6.14533,15.88933c-2.77467,6.2 -7.172,11.00667 -13.904,12.99067c-2.92933,0.86533 -6.04533,1.1 -9.228,1.644c1.15467,1.71867 2.40533,3.49733 3.568,5.33067c4.86667,7.692 6.89467,16.12667 6.248,25.16133c-0.79867,11.12533 -5.10533,20.91333 -12.19467,29.384c-12.13333,14.5 -27.9,22.47333 -46.56267,24.42667c-16.19067,1.69467 -27.328,-5.224 -33.28267,-20.38933c-1.91733,-4.89467 -2.95333,-10.14267 -4.24267,-15.26267c-1.08,-4.27067 -1.94133,-8.59333 -2.90133,-12.896c-0.44933,1.79467 -0.49733,3.568 -0.628,5.33467c-0.36133,4.89867 -1.02,9.74533 -3.096,14.26133c-0.78933,1.71467 -1.84933,3.30667 -4.048,3.30667c-0.048,0 -0.096,0 -0.13867,-0.004c-0.044,0.004 -0.092,0.004 -0.14,0.004c-2.19867,0 -3.25867,-1.592 -4.048,-3.30667c-2.076,-4.516 -2.73467,-9.36267 -3.096,-14.26133c-0.13067,-1.76667 -0.17867,-3.54 -0.62667,-5.33467c-0.96133,4.30267 -1.82267,8.62533 -2.90267,12.896c-1.28933,5.12 -2.32533,10.368 -4.24267,15.26267c-5.95333,15.16533 -17.092,22.084 -33.28267,20.38933c-18.66267,-1.95333 -34.42933,-9.92667 -46.56267,-24.42667c-7.08933,-8.47067 -11.396,-18.25867 -12.19333,-29.384c-0.648,-9.03467 1.38133,-17.46933 6.24667,-25.16133c1.164,-1.83333 2.41333,-3.612 3.56933,-5.33067c-3.184,-0.544 -6.3,-0.77867 -9.22933,-1.644c-6.732,-1.984 -11.12933,-6.79067 -13.904,-12.99067c-2.31867,-5.18 -4.47333,-10.47467 -6.144,-15.88933c-3.85067,-12.49067 -10.68933,-23.01733 -19.688,-32.39333c-3.77067,-3.92933 -7.248,-8.284 -10.07467,-12.924c-1.924,-3.16267 -3.10667,-7.08533 -3.556,-10.796c-1.11067,-9.24 4.37867,-16.34933 13.76133,-18.69867c7.40267,-1.85467 14.83733,-1.34667 22.268,-0.20667c19.95733,3.06 38.58133,10.01067 56.32,19.48133c20.47333,10.93067 39.184,24.32267 56.02533,40.316c0.67067,0.63467 1.39733,1.21333 2.104,1.80933c0.20267,0.16667 0.42933,0.29733 0.66267,0.456c0.34533,-0.388 1.34933,-1.412 2.37733,-2.468c-0.82533,-1.128 -1.30533,-2.48933 -1.30533,-3.95333c0,-2.26667 1.14667,-4.28267 2.92933,-5.56933c-0.944,-2.552 -3.652,-9.22 -8.7,-16.608c-5.39067,-7.88267 -12.22133,-14.49467 -14.34933,-16.484c-1.508,-0.86133 -3.28267,-1.544 -4.91067,-1.32533c-3.88133,0.516 -4.82267,5.85467 -3.004,6.79467c1.68667,0.86933 2.54,-0.392 2.65867,-0.58267c-1.10267,2.25067 -4.45333,2.30133 -5.29867,-0.14667c-0.84933,-2.45733 1.18267,-8.06933 6.61333,-7.58133c1.61467,0.14267 2.94533,0.69867 4.01333,1.40533l0.05467,-0.064c0.012,0.012 0.19467,0.17467 0.512,0.468c0,0.004 0.004,0.004 0.004,0.004c0.584,0.44933 1.076,0.93733 1.48533,1.40933c0,0.004 0.004,0.008 0.00667,0.012c2.94533,2.86133 8.59067,8.68 13.19867,15.42c4.97333,7.276 7.716,13.88133 8.748,16.652c1.068,-0.54 2.29467,-0.84533 3.592,-0.84533c0.036,0 0.072,0 0.108,0.004c0.03467,-0.004 0.07067,-0.004 0.10667,-0.004c1.21467,0 2.36533,0.26933 3.38133,0.74533c1.06,-2.82533 3.79467,-9.36267 8.70933,-16.552c4.608,-6.74 10.252,-12.55867 13.19733,-15.42c0.004,-0.004 0.008,-0.008 0.008,-0.012c0.40933,-0.472 0.90133,-0.96 1.484,-1.40933c0,0 0.004,0 0.004,-0.004c0.31867,-0.29333 0.5,-0.456 0.512,-0.468l0.056,0.064c1.068,-0.70667 2.39733,-1.26267 4.01333,-1.40533c5.42933,-0.488 7.46133,5.124 6.612,7.58133c-0.84533,2.448 -4.19467,2.39733 -5.29867,0.14667c0.11867,0.19067 0.97333,1.452 2.66,0.58267c1.81733,-0.94 0.87733,-6.27867 -3.00533,-6.79467c-1.62667,-0.21867 -3.40133,0.464 -4.90933,1.32533c-2.128,1.98933 -8.95867,8.60133 -14.34933,16.484c-4.96133,7.26 -7.664,13.82533 -8.64933,16.47333c1.89333,1.27333 3.128,3.35333 3.128,5.704c0,1.464 -0.48,2.82533 -1.30533,3.95333c1.028,1.056 2.032,2.08 2.37733,2.468c0.23467,-0.15867 0.46,-0.28933 0.66267,-0.456c0.70667,-0.596 1.43333,-1.17467 2.104,-1.80933c16.84133,-15.99333 35.552,-29.38533 56.02533,-40.316c17.73867,-9.47067 36.36267,-16.42133 56.32,-19.48133c7.43067,-1.14 14.86533,-1.648 22.268,0.20667c9.38267,2.34933 14.87333,9.45867 13.76133,18.69867" id="Path 1" fill="#040302"/></g><g clip-path="url(#clip-11)" id="Group 1"><path d="M593.5044,376.13747c-0.884,0.25733 -1.83333,0.284 -2.704,-0.016c-1.956,-0.676 -2.984,-2.25333 -2.964,-4.69333c0.01867,-2.23333 1.468,-3.448 4.328,-3.46533c1.236,-0.008 2.48933,0.13333 3.70533,0.36267c1.656,0.31333 2.66,1.38933 2.88267,3.07467c0.22667,1.71333 -0.55867,2.99733 -2.06933,3.67067c-1.016,0.452 -2.1,0.75333 -3.17867,1.06667" id="Path 1" fill="#ffffff"/></g><g clip-path="url(#clip-12)" id="Group 1"><path d="M603.76973,364.82733c-3.37067,0.00133 -5.18533,-1.492 -5.58533,-4.6c-0.236,-1.83067 0.48267,-2.86933 2.344,-2.83467c2.096,0.03867 4.20933,0.27733 6.26933,0.66667c2.24133,0.42267 2.788,1.62133 2.01733,3.77333c-0.71867,2.004 -2.38533,2.99333 -5.04533,2.99467" id="Path 1" fill="#ffffff"/></g><g clip-path="url(#clip-13)" id="Group 1"><path d="M619.85387,374.29573c-1.23733,0.23067 -2.504,0.25733 -3.74933,0.076c-1.02933,-0.14933 -1.99067,-0.29467 -2.936,-0.508c-1.376,-0.31333 -2.50933,-1.06133 -2.38933,-2.68667c0.11467,-1.56533 1.39333,-2.236 2.65333,-2.124c2.864,0.25467 5.71867,0.744 8.53467,1.33467c0.56533,0.11867 1.31867,1.116 1.31067,1.69733c-0.00933,0.588 -0.74933,1.46267 -1.35867,1.68133c-0.67467,0.24267 -1.37867,0.40133 -2.06533,0.52933" id="Path 1" fill="#ffffff"/></g><g clip-path="url(#clip-14)" id="Group 1"><path d="M628.44093,367.68907c-0.56,0.348 -1.256,0.42133 -1.87733,0.19333c-2,-0.732 -3.864,-1.35333 -5.62,-2.19733c-1.18,-0.56533 -1.99867,-1.93867 -1.216,-3.12267c0.40933,-0.61867 1.984,-0.88 2.88933,-0.67467c2.032,0.46 4.05333,1.15467 5.916,2.08133c0.12133,0.05867 0.23333,0.13467 0.34,0.224c1.1,0.91333 0.89867,2.66933 -0.316,3.424z" id="Path 1" fill="#ffffff"/></g><g clip-path="url(#clip-15)" id="Group 1"><path d="M587.08733,381.5028c0.47467,0.04133 0.872,0.04667 1.26,0.11467c1.29467,0.228 2.88533,0.316 2.984,1.99733c0.10267,1.72 -1.308,2.48667 -2.768,2.88267c-1.80533,0.48933 -3.55867,0.456 -4.81867,-1.24133c-1.26267,-1.70267 -0.77467,-3.02667 1.26933,-3.46267c0.70533,-0.15067 1.432,-0.204 2.07333,-0.29067" id="Path 1" fill="#ffffff"/></g><g clip-path="url(#clip-16)" id="Group 1"><path d="M606.2148,355.95467c-0.10267,0.03067 -0.20933,0.036 -0.31467,0.01867c-2.028,-0.33467 -3.81733,-0.52533 -5.532,-0.99333c-0.612,-0.16667 -1.512,-1.15067 -1.42667,-1.59867c0.172,-0.908 0.736,-2.104 1.484,-2.46533c1.51733,-0.73467 5.78667,0.96933 6.70133,2.47733c0.33867,0.55733 0.56667,1.40933 0.38133,1.976c-0.10933,0.336 -0.868,0.45867 -1.29333,0.58533" id="Path 1" fill="#ffffff"/></g><g clip-path="url(#clip-17)" id="Group 1"><path d="M572.42453,350.8888c0.00667,0.004 0.01467,0.00667 0.02133,0.01067c0.996,0.49867 1.336,1.74267 0.752,2.69067c-0.21467,0.34933 -0.452,0.67733 -0.736,0.956c-0.552,0.544 -1.52,0.77067 -2.34133,0.912c-1.18933,0.204 -2.752,0.21333 -2.836,-1.25733c-0.05333,-0.96 0.90267,-2.15733 1.712,-2.924c0.444,-0.41867 1.28667,-0.416 2.31067,-0.56533c0.38133,-0.056 0.772,0.004 1.11733,0.17733" id="Path 1" fill="#ffffff"/></g><g clip-path="url(#clip-18)" id="Group 1"><path d="M571.6848,362.5468c-0.03333,1.772 -1.22667,3.33733 -2.50667,3.28533c-1.40133,-0.056 -2.96933,-2.09067 -2.88267,-3.76267c0.08933,-1.71867 1.27467,-2.184 2.708,-2.22533c1.71467,-0.05067 2.71333,1.004 2.68133,2.70267" id="Path 1" fill="#ffffff"/></g><g clip-path="url(#clip-19)" id="Group 1"><path d="M640.42387,364.98147c-0.11067,0.17067 -0.31333,0.25867 -0.51333,0.22133c-3.28,-0.616 -6.42667,-1.604 -9.088,-3.81067c-0.308,-0.25467 -0.37067,-0.89467 -0.38,-1.35867c-0.00267,-0.116 0.732,-0.444 0.984,-0.336c2.82667,1.20533 5.64,2.448 8.416,3.768c0.304,0.14533 0.44667,0.632 0.624,1.04267c0.06667,0.15333 0.05067,0.328 -0.03867,0.468z" id="Path 1" fill="#ffffff"/></g><g clip-path="url(#clip-20)" id="Group 1"><path d="M596.48173,400.0152c1.36667,0.02933 2.648,0.37467 2.71733,2.22267c0.06,1.61733 -1.56667,3.336 -3.04533,3.27467c-1.30267,-0.05333 -2.46133,-1.636 -2.44933,-3.328c0.012,-1.784 1.18,-2.14667 2.77733,-2.16933" id="Path 1" fill="#ffffff"/></g><g clip-path="url(#clip-21)" id="Group 1"><path d="M592.488,390.49493c1.42,0.008 2.72267,0.23733 2.772,2.04c0.04133,1.504 -1.71333,2.928 -3.43733,2.88533c-1.73067,-0.04267 -2.46667,-1.092 -2.56133,-2.66667c-0.09333,-1.57333 0.91733,-2.24933 3.22667,-2.25867" id="Path 1" fill="#ffffff"/></g><g clip-path="url(#clip-22)" id="Group 1"><path d="M574.24573,371.3796c1.87333,0 2.88933,1.23067 2.928,3.30933c0.02267,1.236 -0.61067,1.84133 -1.75867,1.89467c-1.384,0.064 -3.616,-2.08133 -3.58933,-3.42c0.03467,-1.716 1.39867,-1.608 2.42,-1.784" id="Path 1" fill="#ffffff"/></g><g clip-path="url(#clip-23)" id="Group 1"><path d="M664.3132,517.44733c-0.61067,1.10533 -1.95333,1.568 -3.16533,1.21067c-1.296,-0.38267 -1.98667,-1.196 -2.00667,-2.22267c-0.028,-1.43333 0.66933,-2.19333 2.15467,-2.17733c1.85733,0.01867 3.51467,1.22933 3.22,2.66133c-0.03733,0.184 -0.10933,0.36 -0.20267,0.528" id="Path 1" fill="#ffffff"/></g><g clip-path="url(#clip-24)" id="Group 1"><path d="M597.3348,413.08573c-0.08,-1.692 1.02,-2.152 2.39467,-2.16667c1.57733,-0.016 2.41867,0.86267 2.47467,2.43333c0.052,1.44933 -1.196,2.91333 -2.408,2.88267c-1.172,-0.03067 -2.42667,-1.63467 -2.46133,-3.14933" id="Path 1" fill="#ffffff"/></g><g clip-path="url(#clip-25)" id="Group 1"><path d="M652.9988,515.82173c-1.524,0.05067 -2.916,-1.14 -2.96667,-2.58667c-0.056,-1.584 0.99867,-2.008 2.308,-2.07867c1.812,-0.096 3.052,0.74933 3.068,2.048c0.01867,1.43333 -1.02933,2.572 -2.40933,2.61733" id="Path 1" fill="#ffffff"/></g><g clip-path="url(#clip-26)" id="Group 1"><path d="M644.35813,510.02173c0.572,1.076 0.17333,2.464 -0.95867,2.91333c-0.12,0.048 -0.244,0.08267 -0.36933,0.09867c-1.61333,0.196 -3.60133,-1.696 -3.31333,-3.18133c0.14133,-0.73067 1.03733,-1.69467 1.74933,-1.85467c0.95067,-0.21333 2.20533,0.73067 2.892,2.024" id="Path 1" fill="#ffffff"/></g><g clip-path="url(#clip-27)" id="Group 1"><path d="M617.50387,465.24173c-1.10667,-0.76533 -1.47333,-2.216 -1.03333,-3.488c0.448,-1.29467 1.288,-1.996 2.20533,-1.932c1.47333,0.10133 1.796,1.16133 1.79467,2.36933c-0.00133,1.66667 -1.356,3.66 -2.42533,3.324c-0.192,-0.06 -0.372,-0.156 -0.54133,-0.27333" id="Path 1" fill="#ffffff"/></g><g clip-path="url(#clip-28)" id="Group 1"><path d="M621.3316,357.5604c-2.472,0.92 -6.58533,-0.31333 -8.21733,-2.37867c-0.264,-0.33467 0.004,-0.82133 0.42667,-0.77867c2.75733,0.284 5.30267,0.936 7.85333,2.27733c0.372,0.19467 0.33067,0.73333 -0.06267,0.88" id="Path 1" fill="#ffffff"/></g><g clip-path="url(#clip-29)" id="Group 1"><path d="M627.2336,497.70613c0.18933,0.78 -0.08267,1.62533 -0.732,2.096c-0.12933,0.09333 -0.26933,0.168 -0.41867,0.20267c-1.08,0.25867 -3.64,-2.64667 -3.33867,-3.85867c0.15867,-0.64133 0.95467,-1.47867 1.568,-1.57867c1.10267,-0.18 2.49333,1.37067 2.92133,3.13867" id="Path 1" fill="#ffffff"/></g><g clip-path="url(#clip-30)" id="Group 1"><path d="M605.20813,423.6648c-0.104,1.24 -0.77867,2.3 -2.29867,2.51067c-1.02267,0.14267 -2.21733,-1.62933 -2.17733,-3.068c0.03867,-1.39733 0.884,-1.976 2.16267,-2.008c1.41067,-0.036 2.33733,0.93333 2.31333,2.56533" id="Path 1" fill="#ffffff"/></g><g clip-path="url(#clip-31)" id="Group 1"><path d="M632.37,503.12733c2.18933,-0.00133 4.31867,1.472 4.00133,2.58533c-0.236,0.83333 -1.07867,1.91067 -1.836,2.088c-1.34667,0.31467 -3.348,-1.788 -3.15733,-3.16133c0.08667,-0.636 0.76667,-1.18933 0.992,-1.512" id="Path 1" fill="#ffffff"/></g><g clip-path="url(#clip-32)" id="Group 1"><path d="M586.3672,403.7544c0.52133,-0.81333 1.584,-1.064 2.48533,-0.71467c1.06267,0.412 1.62933,1.33067 1.65733,2.524c0.02933,1.28667 -0.36,2.4 -1.79867,2.624c-1.016,0.15867 -2.68933,-2.35867 -2.51067,-4.00133c0.016,-0.15067 0.07867,-0.29467 0.16667,-0.432" id="Path 1" fill="#ffffff"/></g><g clip-path="url(#clip-33)" id="Group 1"><path d="M621.03293,485.2416c0.928,1.04667 1.01867,2.64667 0.096,3.69733c-0.13867,0.15733 -0.28667,0.28267 -0.45333,0.36533c-0.21333,0.10667 -0.59067,-0.11333 -1,-0.40133c-0.644,-0.45333 -1.252,-1.472 -1.352,-2.25333c-0.096,-0.752 -0.17467,-1.504 -0.17067,-2.25467c0,-0.13867 1.36267,-0.58667 1.66,-0.34933c0.43733,0.35067 0.82933,0.756 1.22,1.196" id="Path 1" fill="#ffffff"/></g><g clip-path="url(#clip-34)" id="Group 1"><path d="M590.13533,414.16613c0.51333,-0.73467 1.508,-0.93867 2.33067,-0.58c1.16533,0.508 1.876,1.616 1.66267,2.78c-0.15733,0.85733 -0.85867,1.88 -1.60933,2.292c-0.776,0.42533 -2.792,-2.61467 -2.55867,-4.09333c0.02267,-0.14 0.08667,-0.27333 0.17467,-0.39867" id="Path 1" fill="#ffffff"/></g><g clip-path="url(#clip-35)" id="Group 1"><path d="M653.22893,522.1824c-0.50267,0.94933 -1.63333,1.38667 -2.67733,1.13333c-1.64133,-0.39867 -2.78667,-1.32267 -2.51467,-2.076c0.25467,-0.70667 1.22,-1.53067 1.952,-1.61867c1.76133,-0.212 3.66133,1.11867 3.384,2.19733c-0.03333,0.12667 -0.08267,0.248 -0.144,0.364" id="Path 1" fill="#ffffff"/></g><g clip-path="url(#clip-36)" id="Group 1"><path d="M617.6528,494.0824c-0.192,0.27867 -0.49467,1.11867 -1.07067,1.40267c-0.31867,0.156 -1.27333,-0.492 -1.62667,-0.99867c-0.624,-0.896 -1.08,-1.932 -1.472,-2.96133c-0.49333,-1.30133 0.22533,-1.65067 1.392,-1.508c1.45067,0.17733 2.764,1.87333 2.77733,4.06533" id="Path 1" fill="#ffffff"/></g><g clip-path="url(#clip-37)" id="Group 1"><path d="M624.9208,504.5244c0.02267,1.17067 -1.05733,1.98533 -1.97733,1.29867c-1.13333,-0.84533 -2.16533,-1.932 -2.94667,-3.10933c-0.604,-0.91067 0.03867,-1.66267 1.112,-1.75333c1.39467,-0.11733 3.78533,2.16533 3.812,3.564" id="Path 1" fill="#ffffff"/></g><g clip-path="url(#clip-38)" id="Group 1"><path d="M560.35227,366.05293c-1.34133,-0.02133 -2.71733,-1.43333 -2.54,-2.63333c0.24133,-1.63067 1.63067,-1.48667 2.77333,-1.52667c1.26133,-0.04533 2.26133,0.44533 2.16533,1.92c-0.09733,1.50933 -1.10533,2.13867 -2.39867,2.24" id="Path 1" fill="#ffffff"/></g><g clip-path="url(#clip-39)" id="Group 1"><path d="M612.9752,468.95893c-0.26,0.32667 -0.508,0.63733 -0.74533,0.93733c-0.816,1.024 -2.51333,0.60667 -2.67733,-0.69333c-0.00133,-0.008 -0.00267,-0.01733 -0.004,-0.02667c-0.16133,-1.428 -0.07333,-3.13467 1.89733,-3.23067c0.416,-0.02133 0.85467,0.42933 1.42133,1.00267c0.54,0.54533 0.58533,1.41067 0.108,2.01067" id="Path 1" fill="#ffffff"/></g><g clip-path="url(#clip-40)" id="Group 1"><path d="M559.85227,357.2928c-0.98,0.23467 -2.032,-0.27333 -2.36533,-1.22267c-0.03867,-0.112 -0.06533,-0.22533 -0.07467,-0.34133c-0.10667,-1.42533 1.32933,-2.724 2.73333,-2.396c0.752,0.176 1.70267,1.02 1.89333,1.74133c0.248,0.93733 -0.7,1.86267 -2.18667,2.21867" id="Path 1" fill="#ffffff"/></g><g clip-path="url(#clip-41)" id="Group 1"><path d="M584.73707,396.52093l-0.01867,0.01733c-0.62133,0.58267 -1.60133,0.54667 -2.17733,-0.08267c-0.26,-0.28267 -0.52,-0.56667 -0.78,-0.84933c-0.61867,-0.676 -0.52533,-1.76267 0.23333,-2.27867c0.22667,-0.15333 0.45733,-0.264 0.69867,-0.28933c1.27067,-0.13333 2.13467,0.492 2.492,2.03333c0.12267,0.52667 -0.05333,1.08 -0.448,1.44933" id="Path 1" fill="#ffffff"/></g><g clip-path="url(#clip-42)" id="Group 1"><path d="M638.85267,516.332c0.20133,-0.22533 0.49733,-0.34133 0.79733,-0.32c2.35333,0.172 4.136,1.324 3.93467,2.488c-0.104,0.604 -1.16933,1.61733 -1.256,1.56267c-1.14933,-0.708 -2.24267,-1.504 -3.336,-2.30267c-0.45867,-0.33467 -0.528,-0.99467 -0.14933,-1.41733z" id="Path 1" fill="#ffffff"/></g><g clip-path="url(#clip-43)" id="Group 1"><path d="M628.912,510.30813c0.60533,-0.48533 1.44933,-0.544 2.15733,-0.22667c0.46933,0.20933 0.90933,0.42133 1.29067,0.70933c1.02,0.77333 2.06,1.82667 1.104,3.14c-1.13467,1.55867 -2.036,-0.08667 -2.94133,-0.58c-0.556,-0.30267 -1.032,-0.82667 -1.41867,-1.344c-0.28667,-0.384 -0.63067,-1.04267 -0.48133,-1.35733c0.06133,-0.12933 0.16267,-0.24 0.28933,-0.34133" id="Path 1" fill="#ffffff"/></g><g clip-path="url(#clip-44)" id="Group 1"><path d="M669.47627,517.4152c0.792,-1.16933 2.45067,-1.36667 3.55733,-0.49067c0.42933,0.34133 0.76533,0.67067 0.948,1.07067c0.44533,0.97867 -1.11467,2.24667 -2.452,2.18933c-1.36533,-0.05733 -2.436,-0.764 -2.312,-2.13067c0.01867,-0.21467 0.11333,-0.424 0.25867,-0.63867" id="Path 1" fill="#ffffff"/></g><g clip-path="url(#clip-45)" id="Group 1"><path d="M563.3492,370.5904c0.49067,-0.48133 1.20933,-0.66133 1.86267,-0.448c1.09867,0.36 1.81067,0.91867 1.62133,1.98267c-0.084,0.46933 -0.46533,0.88533 -0.92133,1.288c-0.732,0.644 -1.84533,0.59333 -2.53333,-0.09733c-0.02133,-0.02267 -0.044,-0.04533 -0.06533,-0.06667c-0.728,-0.732 -0.72133,-1.91467 0.01467,-2.63867z" id="Path 1" fill="#ffffff"/></g><g clip-path="url(#clip-46)" id="Group 1"><path d="M597.83013,425.79973c0.476,1.17867 0.112,2.57467 -0.98133,3.22267c-0.116,0.06933 -0.23867,0.128 -0.36667,0.16933c-0.91867,0.3 -2.59467,-2.11333 -2.36,-3.57467c0.08933,-0.54933 0.984,-1.30667 1.576,-1.36933c0.91067,-0.096 1.70933,0.50533 2.132,1.552" id="Path 1" fill="#ffffff"/></g><g clip-path="url(#clip-47)" id="Group 1"><path d="M575.95053,385.14507c0.40533,-0.396 0.988,-0.572 1.53733,-0.43733c1.34667,0.332 2.01333,1.12533 1.92,2.236c-0.06133,0.724 -1.6,2.028 -1.77867,1.92c-0.592,-0.35733 -1.124,-0.81333 -1.64133,-1.296c-0.69867,-0.65333 -0.72133,-1.75333 -0.03733,-2.42267" id="Path 1" fill="#ffffff"/></g><g clip-path="url(#clip-48)" id="Group 1"><path d="M620.14,451.90227c-0.616,-0.43733 -0.88,-1.224 -0.73867,-1.96533c0.32,-1.68667 1.37067,-2.948 2.31333,-2.69733c0.70133,0.18667 1.54133,1.032 1.72,1.73333c0.31467,1.22667 -1.724,3.36 -2.89333,3.116c-0.14133,-0.02933 -0.276,-0.09733 -0.40133,-0.18667" id="Path 1" fill="#ffffff"/></g><g clip-path="url(#clip-49)" id="Group 1"><path d="M612.70427,480.248c0.43467,0.93467 0.48267,2.02533 0.05467,2.96267c-0.03467,0.07467 -0.07067,0.148 -0.11067,0.21867c-0.696,1.22667 -1.52267,1.24 -2.10667,-0.02933c-0.43067,-0.93467 -0.712,-1.976 -0.84533,-2.99867c-0.06933,-0.53867 0.248,-1.57333 0.51867,-1.61867c0.60267,-0.1 1.496,0.08533 1.88667,0.50933c0.252,0.27467 0.44,0.60533 0.60267,0.956" id="Path 1" fill="#ffffff"/></g><g clip-path="url(#clip-50)" id="Group 1"><path d="M581.48627,344.9856c0.43867,0.14533 0.50267,0.752 0.09333,0.96667c-1.912,1.004 -3.72133,1.32667 -5.64933,0.99067c-0.46133,-0.08 -0.96133,-0.63867 -1.176,-1.1c-0.08933,-0.19333 0.45733,-0.94933 0.81733,-1.04133c1.91867,-0.484 3.82,-0.512 5.91467,0.184" id="Path 1" fill="#ffffff"/></g><g clip-path="url(#clip-51)" id="Group 1"><path d="M614.81213,477.1632c-0.79333,-1.196 -0.636,-2.824 0.42667,-3.78933c0.224,-0.204 0.448,-0.34133 0.68533,-0.376c1.35867,-0.196 1.83733,1.09333 1.796,2.27333c-0.04533,1.28 -0.164,2.988 -1.77067,2.94933c-0.37333,-0.008 -0.736,-0.45333 -1.13733,-1.05733" id="Path 1" fill="#ffffff"/></g><g clip-path="url(#clip-52)" id="Group 1"><path d="M662.0356,525.06093c-0.45867,0.78533 -1.396,1.15067 -2.28933,0.97867c-1.22933,-0.23867 -2.27333,-0.384 -2.216,-1.87467c0.02267,-0.60667 1.17733,-1.61333 1.86133,-1.65467c1.268,-0.07867 2.78,0.324 2.81067,2.01333c0.00267,0.17867 -0.06267,0.35867 -0.16667,0.53733" id="Path 1" fill="#ffffff"/></g><g clip-path="url(#clip-53)" id="Group 1"><path d="M647.68587,370.0772c3.98,0.65467 6.788,2.57733 9.79467,4.676c-2.444,0.19867 -8.292,-2.46533 -9.79467,-4.676" id="Path 1" fill="#ffffff"/></g><g clip-path="url(#clip-54)" id="Group 1"><path d="M566.76813,345.89973c0.03333,0.01867 0.068,0.03867 0.1,0.05733c0.78933,0.448 0.97067,1.56667 0.288,2.16133c-0.07467,0.06533 -0.15467,0.116 -0.24133,0.148c-1.09067,0.40533 -2.30933,0.50533 -3.48667,0.588c-0.11867,0.008 -0.57067,-1.30933 -0.416,-1.42933c0.73333,-0.56933 1.54933,-1.03333 2.39067,-1.52c0.42133,-0.244 0.94267,-0.24533 1.36533,-0.00533" id="Path 1" fill="#ffffff"/></g><g clip-path="url(#clip-55)" id="Group 1"><path d="M668.2316,526.45387c-0.008,-0.008 -0.016,-0.016 -0.024,-0.024c-0.77733,-0.776 -0.656,-2.096 0.28133,-2.66667c0.156,-0.09467 0.316,-0.16 0.48267,-0.184c1.14267,-0.16133 2.612,0.19867 2.53333,1.736c-0.02,0.39467 -0.40933,0.77067 -0.92533,1.22133c-0.68133,0.59467 -1.708,0.556 -2.348,-0.08267" id="Path 1" fill="#ffffff"/></g><g clip-path="url(#clip-56)" id="Group 1"><path d="M603.39987,436.58747c0.14133,0.49733 -0.028,1.032 -0.428,1.36c-0.312,0.25733 -0.63333,0.50667 -0.68933,0.456c-0.73467,-0.648 -1.41333,-1.35867 -2.08533,-2.07867c-0.58133,-0.62267 -0.43867,-1.66933 0.33067,-2.03467c0.088,-0.04133 0.17733,-0.07067 0.26933,-0.084c0.99067,-0.14533 2.212,1.004 2.60267,2.38133" id="Path 1" fill="#ffffff"/></g><g clip-path="url(#clip-57)" id="Group 1"><path d="M613.06693,456.19227c0.012,-0.02667 0.02533,-0.05333 0.03867,-0.08c0.776,-1.57867 3.23067,-0.45067 2.50933,1.15333c-0.01333,0.028 -0.02667,0.05733 -0.04,0.08533c-0.776,1.60133 -3.26133,0.45333 -2.508,-1.15867" id="Path 1" fill="#ffffff"/></g><g clip-path="url(#clip-58)" id="Group 1"><path d="M569.0004,378.58613c0.52,-0.504 1.33733,-0.536 1.89867,-0.07733c0.63867,0.52 1.17467,0.96667 1.39333,1.536c0.14533,0.37867 -1.45467,1.96267 -1.664,1.852c-0.588,-0.30667 -1.10933,-0.74133 -1.616,-1.20533c-0.608,-0.55733 -0.62667,-1.50933 -0.03333,-2.084z" id="Path 1" fill="#ffffff"/></g><g clip-path="url(#clip-59)" id="Group 1"><path d="M681.4268,516.7596l0.02,0.01867c0.58,0.552 0.596,1.468 0.03867,2.04c-0.43733,0.448 -0.892,0.85733 -1.424,1.07867c-0.20267,0.084 -0.58533,-0.26533 -1.00133,-0.692c-0.52533,-0.54 -0.55067,-1.39467 -0.048,-1.95733c0.116,-0.12933 0.23467,-0.264 0.35867,-0.40267c0.53733,-0.60267 1.47067,-0.64133 2.056,-0.08533" id="Path 1" fill="#ffffff"/></g><g clip-path="url(#clip-60)" id="Group 1"><path d="M613.35973,441.958c-1.88133,0.448 -3.39867,0.13333 -4.93333,-1.01467c-0.364,-0.27067 -0.27333,-0.84133 0.15733,-0.98133c0.99867,-0.328 1.85467,-0.66533 2.60133,-0.50267c0.816,0.176 1.53067,0.82 2.39733,1.51867c0.36133,0.29067 0.22933,0.872 -0.22267,0.98" id="Path 1" fill="#ffffff"/></g><g clip-path="url(#clip-61)" id="Group 1"><path d="M608.1956,432.4728c0.53467,0.432 0.54667,1.24533 0.02267,1.692c-0.64533,0.552 -1.12667,0.968 -1.18533,0.916c-0.856,-0.77467 -1.60667,-1.68933 -2.224,-2.66667c-0.06,-0.09467 1.18133,-1.37067 1.45467,-1.25333c0.65067,0.28133 1.224,0.74 1.932,1.312" id="Path 1" fill="#ffffff"/></g><g clip-path="url(#clip-62)" id="Group 1"><path d="M689.53147,516.94467c0.13867,0.25733 0.104,0.572 -0.088,0.79333c-0.60267,0.69733 -1.17467,1.43733 -1.90267,1.96267c-0.29333,0.212 -0.77067,0.17067 -1.24933,0.12667c-0.356,-0.032 -0.632,-0.32533 -0.64133,-0.684c-0.01733,-0.67467 -0.06267,-1.396 0.22667,-1.576c0.832,-0.51467 1.85867,-0.71733 2.84933,-0.97867c0.316,-0.08267 0.64533,0.06 0.8,0.34667z" id="Path 1" fill="#ffffff"/></g><g clip-path="url(#clip-63)" id="Group 1"><path d="M680.77373,523.886c0.07067,0.28133 -0.044,0.57733 -0.28933,0.73467c-0.80133,0.51733 -1.584,1.08667 -2.46,1.396c-0.31467,0.112 -0.764,-0.15733 -1.208,-0.41067c-0.28267,-0.16 -0.41333,-0.49733 -0.30933,-0.80667c0.20133,-0.59333 0.388,-1.24267 0.716,-1.32533c0.92267,-0.232 1.928,-0.13333 2.916,-0.09867c0.30267,0.01067 0.56,0.21867 0.63467,0.51067z" id="Path 1" fill="#ffffff"/></g><g clip-path="url(#clip-64)" id="Group 1"><path d="M620.72907,354.8816c-2.63333,-0.83733 -5.26667,-1.67467 -7.9,-2.512c0.1,-0.28 0.2,-0.56133 0.3,-0.84133c2.888,0.156 5.532,1.008 7.6,3.35333" id="Path 1" fill="#ffffff"/></g><g clip-path="url(#clip-65)" id="Group 1"><path d="M649.47987,367.96813c2.784,0.704 4.94133,2.50533 6.904,4.644c-2.41867,-1.34133 -4.83733,-2.68267 -7.256,-4.024c0.11733,-0.20667 0.23467,-0.41333 0.352,-0.62" id="Path 1" fill="#ffffff"/></g><g clip-path="url(#clip-66)" id="Group 1"><path d="M582.232,369.04107c0,0 -4.64133,0.16533 -3.54933,3.82267c1.092,3.65733 4.096,3.79467 6.052,3.02c1.95733,-0.77333 1.22933,-2.59333 0.27333,-4.11733c-0.956,-1.52533 -0.91067,-2.69733 -2.776,-2.72533" id="Path 1" fill="#ffffff"/></g><g clip-path="url(#clip-67)" id="Group 1"><path d="M578.72787,358.40947c0,0 10.55733,-0.40933 13.01467,-0.228c2.45733,0.18267 3.68667,0.956 3.91467,3.18533c0.22667,2.23067 -3.86933,2.82267 -3.86933,2.82267c0,0 -12.96933,1.08933 -14.24267,0.72667c-1.27467,-0.36267 -3.82267,-4.64133 1.18267,-6.50667" id="Path 1" fill="#fe900c"/></g><g clip-path="url(#clip-68)" id="Group 1"><path d="M580.51787,354.2076c0.45467,0.152 12.74267,0.304 14.168,0c1.42533,-0.304 3.12533,-2.45733 2.36667,-4.248c-0.75867,-1.78933 -9.92133,-1.304 -12.712,-1.304c-2.79067,0 -4.672,1.972 -4.55067,3.70133c0.12133,1.72933 0.728,1.85067 0.728,1.85067" id="Path 1" fill="#fe900c"/></g><g clip-path="url(#clip-69)" id="Group 1"><path d="M701.14293,410.60653c0,0 -31.4,-4.73333 -55.61067,-18.20267c-24.20933,-13.47067 -18.476,-21.02533 -5.00533,-19.296c13.47067,1.72933 43.77867,22.48133 51.51467,27.66933c7.736,5.188 9.10133,9.82933 9.10133,9.82933" id="Path 1" fill="#fe900c"/></g><g clip-path="url(#clip-70)" id="Group 1"><path d="M699.68667,412.15373c0,0 -23.48133,-4.91467 -37.22533,-9.648c0,0 -44.23333,12.10533 -49.876,17.83867c-5.64267,5.73467 -1.36533,14.74533 7.55467,15.01867c8.91867,0.272 79.54666,-23.20933 79.54666,-23.20933" id="Path 1" fill="#fe900c"/></g><g clip-path="url(#clip-71)" id="Group 1"><path d="M660.4592,401.04987c0,0 -33.312,11.37733 -43.32267,12.56c-10.012,1.18267 -13.47067,-5.36933 -12.37867,-9.73867c1.092,-4.368 7.1,-6.644 11.104,-7.64533c4.00533,-1.00133 23.664,-3.91333 23.664,-3.91333z" id="Path 1" fill="#fe900c"/></g><g clip-path="url(#clip-72)" id="Group 1"><path d="M637.8876,390.85627l-12.924,-11.104c0,0 -14.38,-1.63867 -21.388,0c-7.00933,1.63867 -5.916,12.46933 1.456,13.744c7.372,1.27333 32.856,-2.64 32.856,-2.64" id="Path 1" fill="#fe900c"/></g><g clip-path="url(#clip-73)" id="Group 1"><path d="M701.98187,440.88667c-3.88533,10.368 -22.48533,60.06667 -23.13733,62.92133c-0.72933,3.18267 -3.18667,9.64533 -10.05733,8.82667c-6.87067,-0.82133 -7.60133,-6.736 -6.78,-12.56267c0.81733,-5.82267 13.55867,-34.40133 13.55867,-34.40133l24.99067,-30.88533c0.17067,0.86533 0.36533,1.75867 0.588,2.672c0.27733,1.13467 0.556,2.28667 0.83733,3.42933" id="Path 1" fill="#fe900c"/></g><g clip-path="url(#clip-74)" id="Group 1"><path d="M671.29,468.856l-12.16,33.37733c-1.46933,4.03333 -5.87467,6.28133 -9.94667,4.92267c-0.15333,-0.05067 -0.308,-0.10533 -0.46533,-0.16533c-6.28,-2.36533 -6.28,-7.55333 -4.732,-11.10267c1.54667,-3.55067 10.19333,-16.38267 10.19333,-16.38267c0,0 6.00667,-1.00133 17.11067,-10.64933" id="Path 1" fill="#fe900c"/></g><g clip-path="url(#clip-75)" id="Group 1"><path d="M645.89693,470.8584c0,0 -0.728,5.552 1.456,7.008c2.184,1.456 3.64133,1.27467 3.64133,1.27467c0,0 -9.01067,16.47333 -11.468,18.56667c-2.45733,2.09333 -8.64667,0.54667 -10.55867,-3.18533c-1.91067,-3.732 -1.82,-7.55467 2.82267,-12.10533c4.64133,-4.55067 14.10667,-11.55867 14.10667,-11.55867" id="Path 1" fill="#fe900c"/></g><g clip-path="url(#clip-76)" id="Group 1"><path d="M658.45093,451.02027c-3.46133,5.04133 -7.228,10.28 -9.47067,12.64667c-1.23467,1.30133 -2.152,2.68267 -2.73067,4.072c-2.032,1.67467 -16.16267,13.25333 -19.83067,13.952c-3.82267,0.72667 -8.55333,-6.55333 -4.36667,-12.01467c3.732,-4.87067 30.608,-16.24667 36.39867,-18.656" id="Path 1" fill="#fe900c"/></g><g clip-path="url(#clip-77)" id="Group 1"><path d="M665.3892,440.6168c-1.12667,1.73067 -3.084,4.716 -5.31067,8.00933c-11.452,2.88667 -30.16667,15.556 -34.024,13.85733c-3.93067,-1.72667 -3.64,-10.46667 7.55733,-15.564c9.768,-4.44933 27.43867,-5.98533 31.77733,-6.30267" id="Path 1" fill="#fe900c"/></g><g clip-path="url(#clip-78)" id="Group 1"><path d="M668.5596,438.366l29.03333,-10.74l-9.92,-2.912c0,0 -42.52133,13.10533 -42.604,14.016c-0.08267,0.91067 23.49067,-0.364 23.49067,-0.364" id="Path 1" fill="#fe900c"/></g><g clip-path="url(#clip-79)" id="Group 1"><path d="M700.0528,431.8368c-2.084,2.44933 -11.844,13.82133 -21.208,23.184c-10.55867,10.55867 -20.29867,18.112 -25.12133,19.752c-4.82267,1.63867 -7.91867,-3.732 -2.73067,-9.19333c5.188,-5.46133 17.75067,-25.03067 17.75067,-25.03067l30.944,-11.74l0.012,0.03467c-0.004,0.004 -0.004,0.008 0,0.012c0.088,0.94133 0.20267,1.93733 0.35333,2.98133" id="Path 1" fill="#fe900c"/></g><g clip-path="url(#clip-80)" id="Group 1"><path d="M699.5012,426.02573l-9.28,-2.496l9.46667,-4.184c0,0 -0.36133,2.532 -0.18667,6.68" id="Path 1" fill="#fe900c"/></g><g clip-path="url(#clip-81)" id="Group 1"><path d="M704.3952,450.75027c-0.048,0.77067 -0.15467,1.508 -0.34133,2.17867c-1.092,3.91467 -13.55867,56.97467 -13.55867,56.97467c0,0 -2.00533,1.73067 -5.28,2.36667c-3.27867,0.63867 -5.27867,-1.548 -5.27867,-1.548l22.93067,-66.216c0.536,2.20267 1.056,4.32267 1.528,6.244" id="Path 1" fill="#fe900c"/></g><g clip-path="url(#clip-82)" id="Group 1"><path d="M704.9656,456.478l-11.74133,52.24267c0,0 2.64,-0.09067 7.464,-16.56533c4.824,-16.47333 4.27733,-35.67733 4.27733,-35.67733" id="Path 1" fill="#fe900c"/></g><g clip-path="url(#clip-83)" id="Group 1"><path d="M637.82693,441.39987l-8.556,2.36667c0,0 3.156,0.12133 4.27867,0c1.12267,-0.12133 4.27733,-2.36667 4.27733,-2.36667" id="Path 1" fill="#ffffff"/></g><g clip-path="url(#clip-84)" id="Group 1"><path d="M832.78133,376.13747c0.884,0.25733 1.83333,0.284 2.704,-0.016c1.956,-0.676 2.984,-2.25333 2.964,-4.69333c-0.01867,-2.23333 -1.468,-3.448 -4.328,-3.46533c-1.236,-0.008 -2.48933,0.13333 -3.70533,0.36267c-1.656,0.31333 -2.66,1.38933 -2.88267,3.07467c-0.22667,1.71333 0.55867,2.99733 2.06933,3.67067c1.016,0.452 2.1,0.75333 3.17867,1.06667" id="Path 1" fill="#ffffff"/></g><g clip-path="url(#clip-85)" id="Group 1"><path d="M822.51587,364.82733c3.37067,0.00133 5.18533,-1.492 5.58533,-4.6c0.236,-1.83067 -0.48267,-2.86933 -2.344,-2.83467c-2.096,0.03867 -4.20933,0.27733 -6.26933,0.66667c-2.24133,0.42267 -2.788,1.62133 -2.01733,3.77333c0.71867,2.004 2.38533,2.99333 5.04533,2.99467" id="Path 1" fill="#ffffff"/></g><g clip-path="url(#clip-86)" id="Group 1"><path d="M806.43187,374.29573c1.23733,0.23067 2.504,0.25733 3.74933,0.076c1.02933,-0.14933 1.99067,-0.29467 2.936,-0.508c1.376,-0.31333 2.50933,-1.06133 2.38933,-2.68667c-0.11467,-1.56533 -1.39333,-2.236 -2.65333,-2.124c-2.864,0.25467 -5.71867,0.744 -8.53467,1.33467c-0.56533,0.11867 -1.31867,1.116 -1.31067,1.69733c0.00933,0.588 0.74933,1.46267 1.35867,1.68133c0.67467,0.24267 1.37867,0.40133 2.06533,0.52933" id="Path 1" fill="#ffffff"/></g><g clip-path="url(#clip-87)" id="Group 1"><path d="M797.84467,367.68907c0.56,0.348 1.256,0.42133 1.87733,0.19333c2.00133,-0.732 3.864,-1.35333 5.62,-2.19733c1.18,-0.56533 1.99867,-1.93867 1.216,-3.12267c-0.40933,-0.61867 -1.984,-0.88 -2.88933,-0.67467c-2.032,0.46 -4.05333,1.15467 -5.916,2.08133c-0.12133,0.05867 -0.23333,0.13467 -0.34,0.224c-1.1,0.91333 -0.89867,2.66933 0.316,3.424z" id="Path 1" fill="#ffffff"/></g><g clip-path="url(#clip-88)" id="Group 1"><path d="M839.1984,381.5028c-0.47467,0.04133 -0.872,0.04667 -1.26,0.11467c-1.29467,0.228 -2.88533,0.316 -2.984,1.99733c-0.10267,1.72 1.308,2.48667 2.768,2.88267c1.80533,0.48933 3.55867,0.456 4.81867,-1.24133c1.26267,-1.70267 0.77467,-3.02667 -1.26933,-3.46267c-0.70533,-0.15067 -1.432,-0.204 -2.07333,-0.29067" id="Path 1" fill="#ffffff"/></g><g clip-path="url(#clip-89)" id="Group 1"><path d="M820.07093,355.95467c0.10267,0.03067 0.20933,0.036 0.31467,0.01867c2.028,-0.33467 3.81733,-0.52533 5.532,-0.99333c0.612,-0.16667 1.512,-1.15067 1.42667,-1.59867c-0.172,-0.908 -0.736,-2.104 -1.484,-2.46533c-1.51733,-0.73467 -5.78667,0.96933 -6.70133,2.47733c-0.33867,0.55733 -0.56667,1.40933 -0.38133,1.976c0.10933,0.336 0.868,0.45867 1.29333,0.58533" id="Path 1" fill="#ffffff"/></g><g clip-path="url(#clip-90)" id="Group 1"><path d="M853.8612,350.8888c-0.00667,0.004 -0.01467,0.00667 -0.02133,0.01067c-0.996,0.49867 -1.336,1.74267 -0.752,2.69067c0.21467,0.34933 0.452,0.67733 0.736,0.956c0.552,0.544 1.52,0.77067 2.34133,0.912c1.18933,0.204 2.752,0.21333 2.83467,-1.25733c0.05467,-0.96 -0.90133,-2.15733 -1.71067,-2.924c-0.444,-0.41867 -1.28667,-0.416 -2.31067,-0.56533c-0.38133,-0.056 -0.772,0.004 -1.11733,0.17733" id="Path 1" fill="#ffffff"/></g><g clip-path="url(#clip-91)" id="Group 1"><path d="M854.60093,362.5468c0.03333,1.772 1.228,3.33733 2.50667,3.28533c1.40133,-0.056 2.96933,-2.09067 2.88267,-3.76267c-0.08933,-1.71867 -1.27467,-2.184 -2.708,-2.22533c-1.71467,-0.05067 -2.71333,1.004 -2.68133,2.70267" id="Path 1" fill="#ffffff"/></g><g clip-path="url(#clip-92)" id="Group 1"><path d="M785.86187,364.98147c0.11067,0.17067 0.31333,0.25867 0.51333,0.22133c3.28,-0.616 6.42667,-1.604 9.088,-3.81067c0.308,-0.25467 0.37067,-0.89467 0.38,-1.35867c0.00267,-0.116 -0.732,-0.444 -0.984,-0.336c-2.82667,1.20533 -5.64,2.448 -8.416,3.768c-0.304,0.14533 -0.44667,0.632 -0.624,1.04267c-0.06667,0.15333 -0.05067,0.328 0.03867,0.468z" id="Path 1" fill="#ffffff"/></g><g clip-path="url(#clip-93)" id="Group 1"><path d="M829.804,400.0152c-1.36667,0.02933 -2.648,0.37467 -2.71733,2.22267c-0.06,1.61733 1.56667,3.336 3.04533,3.27467c1.30267,-0.05333 2.46133,-1.636 2.44933,-3.328c-0.012,-1.784 -1.18,-2.14667 -2.77733,-2.16933" id="Path 1" fill="#ffffff"/></g><g clip-path="url(#clip-94)" id="Group 1"><path d="M833.7976,390.49493c-1.42,0.008 -2.72267,0.23733 -2.772,2.04c-0.04133,1.504 1.71333,2.928 3.43733,2.88533c1.73067,-0.04267 2.46667,-1.092 2.56133,-2.66667c0.09333,-1.57333 -0.91733,-2.24933 -3.22667,-2.25867" id="Path 1" fill="#ffffff"/></g><g clip-path="url(#clip-95)" id="Group 1"><path d="M852.03987,371.3796c-1.87333,0 -2.88933,1.23067 -2.928,3.30933c-0.02267,1.236 0.61067,1.84133 1.75867,1.89467c1.384,0.064 3.616,-2.08133 3.58933,-3.42c-0.03467,-1.716 -1.39867,-1.608 -2.42,-1.784" id="Path 1" fill="#ffffff"/></g><g clip-path="url(#clip-96)" id="Group 1"><path d="M761.9724,517.44733c0.61067,1.10533 1.95333,1.568 3.16533,1.21067c1.296,-0.38267 1.98667,-1.196 2.00667,-2.22267c0.028,-1.43333 -0.66933,-2.19333 -2.15467,-2.17733c-1.85733,0.01867 -3.51467,1.22933 -3.22,2.66133c0.03733,0.184 0.10933,0.36 0.20267,0.528" id="Path 1" fill="#ffffff"/></g><g clip-path="url(#clip-97)" id="Group 1"><path d="M828.95093,413.08573c0.08,-1.692 -1.02,-2.152 -2.39467,-2.16667c-1.57733,-0.016 -2.41867,0.86267 -2.47467,2.43333c-0.052,1.44933 1.196,2.91333 2.408,2.88267c1.172,-0.03067 2.42667,-1.63467 2.46133,-3.14933" id="Path 1" fill="#ffffff"/></g><g clip-path="url(#clip-98)" id="Group 1"><path d="M773.2868,515.82173c1.524,0.05067 2.916,-1.14 2.96667,-2.58667c0.056,-1.584 -0.99867,-2.008 -2.308,-2.07867c-1.812,-0.096 -3.052,0.74933 -3.068,2.048c-0.01867,1.43333 1.02933,2.572 2.40933,2.61733" id="Path 1" fill="#ffffff"/></g><g clip-path="url(#clip-99)" id="Group 1"><path d="M781.92747,510.02173c-0.572,1.076 -0.17333,2.464 0.95867,2.91333c0.12,0.048 0.244,0.08267 0.36933,0.09867c1.61333,0.196 3.60133,-1.696 3.31333,-3.18133c-0.14133,-0.73067 -1.03733,-1.69467 -1.74933,-1.85467c-0.95067,-0.21333 -2.20533,0.73067 -2.892,2.024" id="Path 1" fill="#ffffff"/></g><g clip-path="url(#clip-100)" id="Group 1"><path d="M808.78173,465.24173c1.10667,-0.76533 1.47333,-2.216 1.03333,-3.488c-0.448,-1.29467 -1.288,-1.996 -2.20533,-1.932c-1.47333,0.10133 -1.796,1.16133 -1.79467,2.36933c0.00133,1.66667 1.356,3.66 2.42667,3.324c0.19067,-0.06 0.37067,-0.156 0.54,-0.27333" id="Path 1" fill="#ffffff"/></g><g clip-path="url(#clip-101)" id="Group 1"><path d="M804.95413,357.5604c2.472,0.92 6.58533,-0.31333 8.21733,-2.37867c0.264,-0.33467 -0.004,-0.82133 -0.42667,-0.77867c-2.75733,0.284 -5.30267,0.936 -7.85333,2.27733c-0.372,0.19467 -0.33067,0.73333 0.06267,0.88" id="Path 1" fill="#ffffff"/></g><g clip-path="url(#clip-102)" id="Group 1"><path d="M799.052,497.70613c-0.18933,0.78 0.08267,1.62533 0.732,2.096c0.13067,0.09333 0.26933,0.168 0.41867,0.20267c1.08,0.25867 3.64,-2.64667 3.33867,-3.85867c-0.15867,-0.64133 -0.95467,-1.47867 -1.568,-1.57867c-1.10267,-0.18 -2.49333,1.37067 -2.92133,3.13867" id="Path 1" fill="#ffffff"/></g><g clip-path="url(#clip-103)" id="Group 1"><path d="M821.0776,423.6648c0.104,1.24 0.77867,2.3 2.29867,2.51067c1.02267,0.14267 2.21867,-1.62933 2.17733,-3.068c-0.03867,-1.39733 -0.884,-1.976 -2.16267,-2.008c-1.41067,-0.036 -2.33733,0.93333 -2.31333,2.56533" id="Path 1" fill="#ffffff"/></g><g clip-path="url(#clip-104)" id="Group 1"><path d="M793.9156,503.12733c-2.18933,-0.00133 -4.31867,1.472 -4.00133,2.58533c0.236,0.83333 1.07867,1.91067 1.836,2.088c1.34667,0.31467 3.348,-1.788 3.15733,-3.16133c-0.08667,-0.636 -0.76667,-1.18933 -0.992,-1.512" id="Path 1" fill="#ffffff"/></g><g clip-path="url(#clip-105)" id="Group 1"><path d="M839.91853,403.7544c-0.52133,-0.81333 -1.584,-1.064 -2.48533,-0.71467c-1.06267,0.412 -1.62933,1.33067 -1.65733,2.524c-0.02933,1.28667 0.36,2.4 1.79867,2.624c1.016,0.15867 2.68933,-2.35867 2.51067,-4.00133c-0.016,-0.15067 -0.07867,-0.29467 -0.16667,-0.432" id="Path 1" fill="#ffffff"/></g><g clip-path="url(#clip-106)" id="Group 1"><path d="M805.25267,485.2416c-0.928,1.04667 -1.01867,2.64667 -0.096,3.69733c0.13867,0.15733 0.28667,0.28267 0.45333,0.36533c0.21333,0.10667 0.59067,-0.11333 1,-0.40133c0.644,-0.45333 1.252,-1.472 1.352,-2.25333c0.096,-0.752 0.17467,-1.504 0.17067,-2.25467c0,-0.13867 -1.36267,-0.58667 -1.66,-0.34933c-0.43733,0.35067 -0.82933,0.756 -1.22,1.196" id="Path 1" fill="#ffffff"/></g><g clip-path="url(#clip-107)" id="Group 1"><path d="M836.15027,414.16613c-0.51333,-0.73467 -1.508,-0.93867 -2.33067,-0.58c-1.16533,0.508 -1.876,1.616 -1.66267,2.78c0.15733,0.85733 0.85867,1.88 1.60933,2.292c0.776,0.42533 2.792,-2.61467 2.55867,-4.09333c-0.02267,-0.14 -0.08667,-0.27333 -0.17467,-0.39867" id="Path 1" fill="#ffffff"/></g><g clip-path="url(#clip-108)" id="Group 1"><path d="M773.05667,522.1824c0.50267,0.94933 1.63333,1.38667 2.67733,1.13333c1.64133,-0.39867 2.78667,-1.32267 2.51467,-2.076c-0.25467,-0.70667 -1.22,-1.53067 -1.952,-1.61867c-1.76133,-0.212 -3.66133,1.11867 -3.384,2.19733c0.03333,0.12667 0.08267,0.248 0.144,0.364" id="Path 1" fill="#ffffff"/></g><g clip-path="url(#clip-109)" id="Group 1"><path d="M808.63293,494.0824c0.192,0.27867 0.49467,1.11867 1.07067,1.40267c0.31867,0.156 1.27333,-0.492 1.62667,-0.99867c0.624,-0.896 1.08,-1.932 1.472,-2.96133c0.49333,-1.30133 -0.22533,-1.65067 -1.392,-1.508c-1.45067,0.17733 -2.764,1.87333 -2.77733,4.06533" id="Path 1" fill="#ffffff"/></g><g clip-path="url(#clip-110)" id="Group 1"><path d="M801.36493,504.5244c-0.02267,1.17067 1.05733,1.98533 1.97733,1.29867c1.13333,-0.84533 2.16533,-1.932 2.94667,-3.10933c0.604,-0.91067 -0.03867,-1.66267 -1.112,-1.75333c-1.39467,-0.11733 -3.78533,2.16533 -3.812,3.564" id="Path 1" fill="#ffffff"/></g><g clip-path="url(#clip-111)" id="Group 1"><path d="M865.93347,366.05293c1.34133,-0.02133 2.71733,-1.43333 2.54,-2.63333c-0.24133,-1.63067 -1.63067,-1.48667 -2.77333,-1.52667c-1.26133,-0.04533 -2.26133,0.44533 -2.16533,1.92c0.09733,1.50933 1.10533,2.13867 2.39867,2.24" id="Path 1" fill="#ffffff"/></g><g clip-path="url(#clip-112)" id="Group 1"><path d="M813.3104,468.95893c0.26,0.32667 0.508,0.63733 0.74533,0.93733c0.816,1.024 2.51333,0.60667 2.67733,-0.69333c0.00133,-0.008 0.00267,-0.01733 0.004,-0.02667c0.16133,-1.428 0.07333,-3.13467 -1.89733,-3.23067c-0.416,-0.02133 -0.85467,0.42933 -1.42133,1.00267c-0.54,0.54533 -0.58533,1.41067 -0.108,2.01067" id="Path 1" fill="#ffffff"/></g><g clip-path="url(#clip-113)" id="Group 1"><path d="M866.43347,357.2928c0.98,0.23467 2.032,-0.27333 2.36533,-1.22267c0.03867,-0.112 0.06533,-0.22533 0.07333,-0.34133c0.108,-1.42533 -1.328,-2.724 -2.732,-2.396c-0.752,0.176 -1.70267,1.02 -1.89333,1.74133c-0.248,0.93733 0.7,1.86267 2.18667,2.21867" id="Path 1" fill="#ffffff"/></g><g clip-path="url(#clip-114)" id="Group 1"><path d="M841.54853,396.52093l0.01867,0.01733c0.62133,0.58267 1.60133,0.54667 2.17733,-0.08267c0.26,-0.28267 0.52,-0.56667 0.78,-0.84933c0.61867,-0.676 0.52533,-1.76267 -0.23333,-2.27867c-0.22667,-0.15333 -0.45733,-0.264 -0.69867,-0.28933c-1.27067,-0.13333 -2.13467,0.492 -2.492,2.03333c-0.12267,0.52667 0.05333,1.08 0.448,1.44933" id="Path 1" fill="#ffffff"/></g><g clip-path="url(#clip-115)" id="Group 1"><path d="M787.43293,516.332c-0.20133,-0.22533 -0.49733,-0.34133 -0.79733,-0.32c-2.35333,0.172 -4.136,1.324 -3.93467,2.488c0.104,0.604 1.16933,1.61733 1.256,1.56267c1.14933,-0.708 2.24267,-1.504 3.336,-2.30267c0.45867,-0.33467 0.528,-0.99467 0.14933,-1.41733z" id="Path 1" fill="#ffffff"/></g><g clip-path="url(#clip-116)" id="Group 1"><path d="M797.37373,510.30813c-0.60533,-0.48533 -1.44933,-0.544 -2.15733,-0.22667c-0.46933,0.20933 -0.90933,0.42133 -1.29067,0.70933c-1.02,0.77333 -2.06,1.82667 -1.104,3.14c1.13467,1.55867 2.036,-0.08667 2.94133,-0.58c0.556,-0.30267 1.032,-0.82667 1.41867,-1.344c0.28667,-0.384 0.63067,-1.04267 0.48133,-1.35733c-0.06133,-0.12933 -0.16267,-0.24 -0.28933,-0.34133" id="Path 1" fill="#ffffff"/></g><g clip-path="url(#clip-117)" id="Group 1"><path d="M756.80933,517.4152c-0.792,-1.16933 -2.45067,-1.36667 -3.55733,-0.49067c-0.42933,0.34133 -0.76533,0.67067 -0.948,1.07067c-0.44533,0.97867 1.11467,2.24667 2.452,2.18933c1.36533,-0.05733 2.436,-0.764 2.312,-2.13067c-0.01867,-0.21467 -0.11333,-0.424 -0.25867,-0.63867" id="Path 1" fill="#ffffff"/></g><g clip-path="url(#clip-118)" id="Group 1"><path d="M862.9364,370.5904c-0.49067,-0.48133 -1.20933,-0.66133 -1.86267,-0.448c-1.09867,0.36 -1.81067,0.91867 -1.62133,1.98267c0.084,0.46933 0.46533,0.88533 0.92133,1.288c0.732,0.644 1.84533,0.59333 2.53333,-0.09733c0.02133,-0.02267 0.044,-0.04533 0.06533,-0.06667c0.728,-0.732 0.72133,-1.91467 -0.01467,-2.63867z" id="Path 1" fill="#ffffff"/></g><g clip-path="url(#clip-119)" id="Group 1"><path d="M828.45547,425.79973c-0.476,1.17867 -0.112,2.57467 0.98133,3.22267c0.116,0.06933 0.23867,0.128 0.36667,0.16933c0.91867,0.3 2.59467,-2.11333 2.36,-3.57467c-0.08933,-0.54933 -0.984,-1.30667 -1.576,-1.36933c-0.91067,-0.096 -1.70933,0.50533 -2.132,1.552" id="Path 1" fill="#ffffff"/></g><g clip-path="url(#clip-120)" id="Group 1"><path d="M850.3352,385.14507c-0.40533,-0.396 -0.988,-0.572 -1.53733,-0.43733c-1.34667,0.332 -2.01333,1.12533 -1.92,2.236c0.06133,0.724 1.6,2.028 1.77867,1.92c0.592,-0.35733 1.124,-0.81333 1.64133,-1.296c0.69867,-0.65333 0.72133,-1.75333 0.03733,-2.42267" id="Path 1" fill="#ffffff"/></g><g clip-path="url(#clip-121)" id="Group 1"><path d="M806.1456,451.90227c0.616,-0.43733 0.88,-1.224 0.73867,-1.96533c-0.32,-1.68667 -1.37067,-2.948 -2.31333,-2.69733c-0.70133,0.18667 -1.54133,1.032 -1.72,1.73333c-0.31467,1.22667 1.724,3.36 2.89333,3.116c0.14133,-0.02933 0.276,-0.09733 0.40133,-0.18667" id="Path 1" fill="#ffffff"/></g><g clip-path="url(#clip-122)" id="Group 1"><path d="M813.58147,480.248c-0.43467,0.93467 -0.48267,2.02533 -0.05467,2.96267c0.03467,0.07467 0.07067,0.148 0.11067,0.21867c0.696,1.22667 1.52267,1.24 2.10667,-0.02933c0.43067,-0.93467 0.712,-1.976 0.84533,-2.99867c0.06933,-0.53867 -0.248,-1.57333 -0.51867,-1.61867c-0.60267,-0.1 -1.496,0.08533 -1.88667,0.50933c-0.252,0.27467 -0.44,0.60533 -0.60267,0.956" id="Path 1" fill="#ffffff"/></g><g clip-path="url(#clip-123)" id="Group 1"><path d="M844.79933,344.9856c-0.43867,0.14533 -0.50267,0.752 -0.09333,0.96667c1.912,1.004 3.72133,1.32667 5.64933,0.99067c0.46133,-0.08 0.96133,-0.63867 1.176,-1.1c0.08933,-0.19333 -0.45733,-0.94933 -0.81733,-1.04133c-1.91867,-0.484 -3.82,-0.512 -5.91467,0.184" id="Path 1" fill="#ffffff"/></g><g clip-path="url(#clip-124)" id="Group 1"><path d="M811.4736,477.1632c0.79333,-1.196 0.636,-2.824 -0.42667,-3.78933c-0.224,-0.204 -0.448,-0.34133 -0.68533,-0.376c-1.36,-0.196 -1.83733,1.09333 -1.796,2.27333c0.04533,1.28 0.164,2.988 1.77067,2.94933c0.37333,-0.008 0.736,-0.45333 1.13733,-1.05733" id="Path 1" fill="#ffffff"/></g><g clip-path="url(#clip-125)" id="Group 1"><path d="M764.25,525.06093c0.45867,0.78533 1.396,1.15067 2.28933,0.97867c1.22933,-0.23867 2.27333,-0.384 2.216,-1.87467c-0.02267,-0.60667 -1.17733,-1.61333 -1.86133,-1.65467c-1.268,-0.07867 -2.78,0.324 -2.81067,2.01333c-0.00267,0.17867 0.06267,0.35867 0.16667,0.53733" id="Path 1" fill="#ffffff"/></g><g clip-path="url(#clip-126)" id="Group 1"><path d="M778.59987,370.0772c-3.98,0.65467 -6.788,2.57733 -9.79467,4.676c2.444,0.19867 8.292,-2.46533 9.79467,-4.676" id="Path 1" fill="#ffffff"/></g><g clip-path="url(#clip-127)" id="Group 1"><path d="M859.5176,345.89973c-0.03333,0.01867 -0.068,0.03867 -0.1,0.05733c-0.78933,0.448 -0.97067,1.56667 -0.288,2.16133c0.07467,0.06533 0.15467,0.116 0.24133,0.148c1.09067,0.40533 2.30933,0.50533 3.48667,0.588c0.11867,0.008 0.57067,-1.30933 0.416,-1.42933c-0.73333,-0.56933 -1.54933,-1.03333 -2.39067,-1.52c-0.42133,-0.244 -0.94267,-0.24533 -1.36533,-0.00533" id="Path 1" fill="#ffffff"/></g><g clip-path="url(#clip-128)" id="Group 1"><path d="M758.054,526.45387c0.008,-0.008 0.016,-0.016 0.024,-0.024c0.77733,-0.776 0.656,-2.096 -0.28133,-2.66667c-0.156,-0.09467 -0.316,-0.16 -0.48267,-0.184c-1.14267,-0.16133 -2.612,0.19867 -2.53333,1.736c0.02,0.39467 0.40933,0.77067 0.92533,1.22133c0.68133,0.59467 1.708,0.556 2.348,-0.08267" id="Path 1" fill="#ffffff"/></g><g clip-path="url(#clip-129)" id="Group 1"><path d="M822.88587,436.58747c-0.14133,0.49733 0.028,1.032 0.428,1.36c0.312,0.25733 0.63333,0.50667 0.68933,0.456c0.73467,-0.648 1.41333,-1.35867 2.08533,-2.07867c0.58133,-0.62267 0.43867,-1.66933 -0.33067,-2.03467c-0.088,-0.04133 -0.17733,-0.07067 -0.26933,-0.084c-0.99067,-0.14533 -2.212,1.004 -2.60267,2.38133" id="Path 1" fill="#ffffff"/></g><g clip-path="url(#clip-130)" id="Group 1"><path d="M813.2188,456.19227c-0.012,-0.02667 -0.02533,-0.05333 -0.03867,-0.08c-0.776,-1.57867 -3.23067,-0.45067 -2.50933,1.15333c0.01333,0.028 0.02667,0.05733 0.04,0.08533c0.776,1.60133 3.26133,0.45333 2.508,-1.15867" id="Path 1" fill="#ffffff"/></g><g clip-path="url(#clip-131)" id="Group 1"><path d="M857.28533,378.58613c-0.52,-0.504 -1.33733,-0.536 -1.89867,-0.07733c-0.63867,0.52 -1.17467,0.96667 -1.39333,1.536c-0.14533,0.37867 1.45467,1.96267 1.664,1.852c0.588,-0.30667 1.10933,-0.74133 1.616,-1.20533c0.608,-0.55733 0.62667,-1.50933 0.03333,-2.084z" id="Path 1" fill="#ffffff"/></g><g clip-path="url(#clip-132)" id="Group 1"><path d="M744.8588,516.7596l-0.02,0.01867c-0.58,0.552 -0.596,1.468 -0.03867,2.04c0.43733,0.448 0.892,0.85733 1.424,1.07867c0.20267,0.084 0.58533,-0.26533 1.00133,-0.692c0.52533,-0.54 0.55067,-1.39467 0.048,-1.95733c-0.116,-0.12933 -0.23467,-0.264 -0.35867,-0.40267c-0.53733,-0.60267 -1.47067,-0.64133 -2.056,-0.08533" id="Path 1" fill="#ffffff"/></g><g clip-path="url(#clip-133)" id="Group 1"><path d="M812.92587,441.958c1.88133,0.448 3.39867,0.13333 4.93333,-1.01467c0.364,-0.27067 0.27333,-0.84133 -0.15733,-0.98133c-0.99867,-0.328 -1.85467,-0.66533 -2.60133,-0.50267c-0.816,0.176 -1.53067,0.82 -2.39733,1.51867c-0.36133,0.29067 -0.22933,0.872 0.22267,0.98" id="Path 1" fill="#ffffff"/></g><g clip-path="url(#clip-134)" id="Group 1"><path d="M818.09013,432.4728c-0.536,0.432 -0.54667,1.24533 -0.02267,1.692c0.64533,0.552 1.12667,0.968 1.18533,0.916c0.856,-0.77467 1.60667,-1.68933 2.224,-2.66667c0.06,-0.09467 -1.18133,-1.37067 -1.45467,-1.25333c-0.65067,0.28133 -1.224,0.74 -1.932,1.312" id="Path 1" fill="#ffffff"/></g><g clip-path="url(#clip-135)" id="Group 1"><path d="M736.75427,516.94467c-0.13867,0.25733 -0.104,0.572 0.088,0.79333c0.60267,0.69733 1.17467,1.43733 1.90267,1.96267c0.29333,0.212 0.77067,0.17067 1.24933,0.12667c0.356,-0.032 0.632,-0.32533 0.64133,-0.684c0.01733,-0.67467 0.06267,-1.396 -0.22667,-1.576c-0.832,-0.51467 -1.85867,-0.71733 -2.84933,-0.97867c-0.316,-0.08267 -0.64533,0.06 -0.8,0.34667z" id="Path 1" fill="#ffffff"/></g><g clip-path="url(#clip-136)" id="Group 1"><path d="M745.51187,523.886c-0.07067,0.28133 0.044,0.57733 0.28933,0.73467c0.80133,0.51733 1.584,1.08667 2.46,1.396c0.31467,0.112 0.764,-0.15733 1.208,-0.41067c0.28267,-0.16 0.41333,-0.49733 0.30933,-0.80667c-0.20133,-0.59333 -0.388,-1.24267 -0.716,-1.32533c-0.92267,-0.232 -1.928,-0.13333 -2.916,-0.09867c-0.30267,0.01067 -0.56,0.21867 -0.63467,0.51067z" id="Path 1" fill="#ffffff"/></g><g clip-path="url(#clip-137)" id="Group 1"><path d="M805.55653,354.8816c2.63333,-0.83733 5.26667,-1.67467 7.9,-2.512c-0.1,-0.28 -0.2,-0.56133 -0.3,-0.84133c-2.888,0.156 -5.532,1.008 -7.6,3.35333" id="Path 1" fill="#ffffff"/></g><g clip-path="url(#clip-138)" id="Group 1"><path d="M776.80573,367.96813c-2.784,0.704 -4.94133,2.50533 -6.904,4.644c2.41867,-1.34133 4.83733,-2.68267 7.256,-4.024c-0.11733,-0.20667 -0.23467,-0.41333 -0.352,-0.62" id="Path 1" fill="#ffffff"/></g><g clip-path="url(#clip-139)" id="Group 1"><path d="M844.05373,369.04107c0,0 4.64133,0.16533 3.54933,3.82267c-1.092,3.65733 -4.096,3.79467 -6.052,3.02c-1.95733,-0.77333 -1.22933,-2.59333 -0.27333,-4.11733c0.956,-1.52533 0.91067,-2.69733 2.776,-2.72533" id="Path 1" fill="#ffffff"/></g><g clip-path="url(#clip-140)" id="Group 1"><path d="M847.55787,358.40947c0,0 -10.55733,-0.40933 -13.01467,-0.228c-2.45733,0.18267 -3.68667,0.956 -3.91467,3.18533c-0.22667,2.23067 3.868,2.82267 3.868,2.82267c0,0 12.97067,1.08933 14.244,0.72667c1.27467,-0.36267 3.82267,-4.64133 -1.18267,-6.50667" id="Path 1" fill="#fe900c"/></g><g clip-path="url(#clip-141)" id="Group 1"><path d="M845.76787,354.2076c-0.45467,0.152 -12.74267,0.304 -14.168,0c-1.42533,-0.304 -3.12533,-2.45733 -2.36667,-4.248c0.75867,-1.78933 9.92133,-1.304 12.712,-1.304c2.79067,0 4.672,1.972 4.55067,3.70133c-0.12133,1.72933 -0.728,1.85067 -0.728,1.85067" id="Path 1" fill="#fe900c"/></g><g clip-path="url(#clip-142)" id="Group 1"><path d="M725.1428,410.60653c0,0 31.4,-4.73333 55.61067,-18.20267c24.20933,-13.47067 18.476,-21.02533 5.00533,-19.296c-13.47067,1.72933 -43.77867,22.48133 -51.51467,27.66933c-7.736,5.188 -9.10133,9.82933 -9.10133,9.82933" id="Path 1" fill="#fe900c"/></g><g clip-path="url(#clip-143)" id="Group 1"><path d="M726.59893,412.15373c0,0 23.48133,-4.91467 37.22533,-9.648c0,0 44.23333,12.10533 49.876,17.83867c5.64267,5.73467 1.36533,14.74533 -7.55467,15.01867c-8.91867,0.272 -79.54666,-23.20933 -79.54666,-23.20933" id="Path 1" fill="#fe900c"/></g><g clip-path="url(#clip-144)" id="Group 1"><path d="M765.8264,401.04987c0,0 33.312,11.37733 43.32267,12.56c10.012,1.18267 13.47067,-5.36933 12.37867,-9.73867c-1.092,-4.368 -7.1,-6.644 -11.104,-7.64533c-4.00533,-1.00133 -23.664,-3.91333 -23.664,-3.91333z" id="Path 1" fill="#fe900c"/></g><g clip-path="url(#clip-145)" id="Group 1"><path d="M788.39813,390.85627l12.924,-11.104c0,0 14.38,-1.63867 21.388,0c7.00933,1.63867 5.916,12.46933 -1.456,13.744c-7.372,1.27333 -32.856,-2.64 -32.856,-2.64" id="Path 1" fill="#fe900c"/></g><g clip-path="url(#clip-146)" id="Group 1"><path d="M724.30373,440.88667c3.88533,10.368 22.48533,60.06667 23.13733,62.92133c0.72933,3.18267 3.18667,9.64533 10.05733,8.82667c6.87067,-0.82133 7.60133,-6.736 6.78,-12.56267c-0.81733,-5.82267 -13.55867,-34.40133 -13.55867,-34.40133l-24.99067,-30.88533c-0.17067,0.86533 -0.36533,1.75867 -0.588,2.672c-0.27733,1.13467 -0.556,2.28667 -0.83733,3.42933" id="Path 1" fill="#fe900c"/></g><g clip-path="url(#clip-147)" id="Group 1"><path d="M754.9956,468.856l12.16,33.37733c1.46933,4.03333 5.87467,6.28133 9.94667,4.92267c0.15333,-0.05067 0.308,-0.10533 0.46533,-0.16533c6.28,-2.36533 6.28,-7.55333 4.732,-11.10267c-1.54667,-3.55067 -10.19333,-16.38267 -10.19333,-16.38267c0,0 -6.00667,-1.00133 -17.11067,-10.64933" id="Path 1" fill="#fe900c"/></g><g clip-path="url(#clip-148)" id="Group 1"><path d="M780.3888,470.8584c0,0 0.728,5.552 -1.456,7.008c-2.184,1.456 -3.64133,1.27467 -3.64133,1.27467c0,0 9.01067,16.47333 11.468,18.56667c2.45733,2.09333 8.64667,0.54667 10.55867,-3.18533c1.91067,-3.732 1.82,-7.55467 -2.82267,-12.10533c-4.64133,-4.55067 -14.10667,-11.55867 -14.10667,-11.55867" id="Path 1" fill="#fe900c"/></g><g clip-path="url(#clip-149)" id="Group 1"><path d="M767.83467,451.02027c3.46133,5.04133 7.228,10.28 9.47067,12.64667c1.23467,1.30133 2.152,2.68267 2.73067,4.072c2.032,1.67467 16.16267,13.25333 19.83067,13.952c3.82267,0.72667 8.55333,-6.55333 4.36667,-12.01467c-3.732,-4.87067 -30.608,-16.24667 -36.39867,-18.656" id="Path 1" fill="#fe900c"/></g><g clip-path="url(#clip-150)" id="Group 1"><path d="M760.8964,440.6168c1.12667,1.73067 3.084,4.716 5.31067,8.00933c11.452,2.88667 30.16667,15.556 34.024,13.85733c3.93067,-1.72667 3.64,-10.46667 -7.55733,-15.564c-9.768,-4.44933 -27.43867,-5.98533 -31.77733,-6.30267" id="Path 1" fill="#fe900c"/></g><g clip-path="url(#clip-151)" id="Group 1"><path d="M757.72613,438.366l-29.03333,-10.74l9.92,-2.912c0,0 42.52133,13.10533 42.604,14.016c0.08267,0.91067 -23.49067,-0.364 -23.49067,-0.364" id="Path 1" fill="#fe900c"/></g><g clip-path="url(#clip-152)" id="Group 1"><path d="M726.2328,431.8368c2.084,2.44933 11.844,13.82133 21.208,23.184c10.55867,10.55867 20.29867,18.112 25.12133,19.752c4.82267,1.63867 7.91867,-3.732 2.73067,-9.19333c-5.188,-5.46133 -17.75067,-25.03067 -17.75067,-25.03067l-30.944,-11.74l-0.012,0.03467c0.004,0.004 0.004,0.008 0,0.012c-0.088,0.94133 -0.20267,1.93733 -0.35333,2.98133" id="Path 1" fill="#fe900c"/></g><g clip-path="url(#clip-153)" id="Group 1"><path d="M726.78453,426.02573l9.28,-2.496l-9.46667,-4.184c0,0 0.36133,2.532 0.18667,6.68" id="Path 1" fill="#fe900c"/></g><g clip-path="url(#clip-154)" id="Group 1"><path d="M721.89053,450.75027c0.048,0.77067 0.15467,1.508 0.34133,2.17867c1.092,3.91467 13.55867,56.97467 13.55867,56.97467c0,0 2.00533,1.73067 5.28,2.36667c3.27867,0.63867 5.27867,-1.548 5.27867,-1.548l-22.93067,-66.216c-0.536,2.20267 -1.056,4.32267 -1.528,6.244" id="Path 1" fill="#fe900c"/></g><g clip-path="url(#clip-155)" id="Group 1"><path d="M721.32013,456.478l11.74133,52.24267c0,0 -2.64,-0.09067 -7.464,-16.56533c-4.824,-16.47333 -4.27733,-35.67733 -4.27733,-35.67733" id="Path 1" fill="#fe900c"/></g><g clip-path="url(#clip-156)" id="Group 1"><path d="M788.4588,441.39987l8.556,2.36667c0,0 -3.156,0.12133 -4.27867,0c-1.12267,-0.12133 -4.27733,-2.36667 -4.27733,-2.36667" id="Path 1" fill="#ffffff"/></g><g clip-path="url(#clip-157)" id="Group 1"><path d="M717.5368,473.1004c-2.16667,3.88533 -6.852,3.944 -9.80133,0.19467c3.392,1.73067 6.424,1.928 9.80133,-0.19467" id="Path 1" fill="#ffffff"/></g><g clip-path="url(#clip-158)" id="Group 1"><path d="M708.7264,484.24507h7.88133c-1.76133,2.38267 -5.89733,2.36267 -7.88133,0" id="Path 1" fill="#ffffff"/></g><g clip-path="url(#clip-159)" id="Group 1"><path d="M708.2544,462.40933c4.45867,1.29867 4.88,1.292 8.38133,-0.05333c-1.02933,2.58933 -6.02533,2.75867 -8.38133,0.05333" id="Path 1" fill="#ffffff"/></g><g clip-path="url(#clip-160)" id="Group 1"><path d="M709.65133,492.8928h6.05733c-1.88533,1.992 -4.576,1.94667 -6.05733,0" id="Path 1" fill="#ffffff"/></g><g clip-path="url(#clip-161)" id="Group 1"><path d="M709.28947,449.7172c2.556,0.96 4.93867,0.85067 7.33067,-0.87867c-1.35333,2.67867 -4.924,3.04 -7.33067,0.87867" id="Path 1" fill="#ffffff"/></g><g clip-path="url(#clip-162)" id="Group 1"><path d="M715.61427,402.7648c0,0 6.18667,8.07467 5.68667,18.33333c-0.49867,10.26 -3.13867,13.688 -3.13867,13.688c0,0 4.096,-18.21333 -2.548,-32.02133" id="Path 1" fill="#ffffff"/></g><g clip-path="url(#clip-163)" id="Group 1"><path d="M709.28947,402.7648c0,0 -6.18667,8.07467 -5.68667,18.33333c0.49867,10.26 3.13867,13.688 3.13867,13.688c0,0 -4.096,-18.21333 2.548,-32.02133" id="Path 1" fill="#ffffff"/></g><g clip-path="url(#clip-164)" id="Group 1"/><g clip-path="url(#clip-165)" id="Group 1"/><g clip-path="url(#clip-166)" id="Group 1"/><g clip-path="url(#clip-167)" id="Group 1"/><g clip-path="url(#clip-168)" id="Group 1"/><g clip-path="url(#clip-169)" id="Group 1"/><g clip-path="url(#clip-170)" id="Group 1"/><g clip-path="url(#clip-171)" id="Group 1"/><g clip-path="url(#clip-172)" id="Group 1"/><g clip-path="url(#clip-173)" id="Group 1"/><g clip-path="url(#clip-174)" id="Group 1"/><g clip-path="url(#clip-175)" id="Group 1"/></g></g></g></g></g></g></svg>