<?xml version="1.0" encoding="utf-8"?>
<svg xmlns="http://www.w3.org/2000/svg" viewBox="108.9032 25.3617 176.0184 191.3515" width="176.018px" height="191.351px" preserveAspectRatio="none"><defs><clipPath id="clip-1"><rect x="363.5" y="78.5" width="700" height="700" id="clip-1" fill="none" stroke="none" stroke-width="1"/></clipPath><clipPath id="clip-2"><rect x="473.5" y="188.5" width="480" height="480" id="clip-2" fill="none"/></clipPath><clipPath id="clip-3"><path d="M473.5,188.50001h479.99999v479.99999h-479.99999z" id="clip-3"/></clipPath><clipPath id="clip-4"><path d="M473.5,188.50001h479.99999v479.99999h-479.99999z" id="clip-4" fill="none"/></clipPath><clipPath id="clip-5"><path d="M473.49999,188.50002h479.99999v479.99999h-479.99999z" id="clip-5" fill="none"/></clipPath><clipPath id="clip-6"><path d="M473.50001,188.50001h479.99999v479.99999h-479.99999z" id="clip-6" fill="none"/></clipPath><clipPath id="clip-7"><path d="M473.49999,188.50001h479.99999v479.99999h-479.99999z" id="clip-7" fill="none"/></clipPath><clipPath id="clip-8"><path d="M473.5,188.50002h479.99999v479.99999h-479.99999z" id="clip-8" fill="none"/></clipPath><clipPath id="clip-9"><path d="M473.50001,188.50002h479.99999v479.99999h-479.99999z" id="clip-9" fill="none"/></clipPath><clipPath id="clip-10"><path d="M473.5,188.50002h479.99999v479.99999h-479.99999z" id="clip-10" fill="none"/></clipPath><clipPath id="clip-11"><path d="M473.5,188.50002h479.99999v479.99999h-479.99999z" id="clip-11" fill="none"/></clipPath><clipPath id="clip-12"><path d="M473.5,188.50002h479.99999v479.99999h-479.99999z" id="clip-12" fill="none"/></clipPath><clipPath id="clip-13"><path d="M473.49999,188.50002h479.99999v479.99999h-479.99999z" id="clip-13" fill="none"/></clipPath><clipPath id="clip-14"><path d="M473.5,188.50001h479.99999v479.99999h-479.99999z" id="clip-14" fill="none"/></clipPath><clipPath id="clip-15"><path d="M473.49999,188.50001h479.99999v479.99999h-479.99999z" id="clip-15" fill="none"/></clipPath><clipPath id="clip-16"><path d="M473.50001,188.50001h479.99999v479.99999h-479.99999z" id="clip-16" fill="none"/></clipPath><clipPath id="clip-17"><path d="M473.5,188.50001h479.99999v479.99999h-479.99999z" id="clip-17" fill="none"/></clipPath><clipPath id="clip-18"><path d="M473.49999,188.50002h479.99999v479.99999h-479.99999z" id="clip-18" fill="none"/></clipPath><clipPath id="clip-19"><path d="M473.5,188.50001h479.99999v479.99999h-479.99999z" id="clip-19" fill="none"/></clipPath><clipPath id="clip-20"><path d="M473.5,188.50001h479.99999v479.99999h-479.99999z" id="clip-20" fill="none"/></clipPath><clipPath id="clip-21"><path d="M473.5,188.50001h479.99999v479.99999h-479.99999z" id="clip-21" fill="none"/></clipPath><clipPath id="clip-22"><path d="M473.50001,188.50001h479.99999v479.99999h-479.99999z" id="clip-22" fill="none"/></clipPath><clipPath id="clip-23"><path d="M473.5,188.50001h479.99999v479.99999h-479.99999z" id="clip-23" fill="none"/></clipPath><clipPath id="clip-24"><path d="M473.5,188.50002h479.99999v479.99999h-479.99999z" id="clip-24" fill="none"/></clipPath><clipPath id="clip-25"><path d="M473.5,188.50001h479.99999v479.99999h-479.99999z" id="clip-25" fill="none"/></clipPath><clipPath id="clip-26"><path d="M473.5,188.50001h479.99999v479.99999h-479.99999z" id="clip-26" fill="none"/></clipPath><clipPath id="clip-27"><path d="M473.5,188.50002h479.99999v479.99999h-479.99999z" id="clip-27" fill="none"/></clipPath><clipPath id="clip-28"><path d="M473.5,188.50002h479.99999v479.99999h-479.99999z" id="clip-28" fill="none"/></clipPath><clipPath id="clip-29"><path d="M473.5,188.50001h479.99999v479.99999h-479.99999z" id="clip-29" fill="none"/></clipPath><clipPath id="clip-30"><path d="M473.5,188.50001h479.99999v479.99999h-479.99999z" id="clip-30" fill="none"/></clipPath><clipPath id="clip-31"><path d="M473.5,188.50002h479.99999v479.99999h-479.99999z" id="clip-31" fill="none"/></clipPath><clipPath id="clip-32"><path d="M473.49999,188.50001h479.99999v479.99999h-479.99999z" id="clip-32" fill="none"/></clipPath><clipPath id="clip-33"><path d="M473.5,188.50002h479.99999v479.99999h-479.99999z" id="clip-33" fill="none"/></clipPath><clipPath id="clip-34"><path d="M473.50001,188.50001h479.99999v479.99999h-479.99999z" id="clip-34" fill="none"/></clipPath><clipPath id="clip-35"><path d="M473.5,188.50002h479.99999v479.99999h-479.99999z" id="clip-35" fill="none"/></clipPath><clipPath id="clip-36"><path d="M473.49999,188.50001h479.99999v479.99999h-479.99999z" id="clip-36" fill="none"/></clipPath><clipPath id="clip-37"><path d="M473.5,188.50001h479.99999v479.99999h-479.99999z" id="clip-37" fill="none"/></clipPath><clipPath id="clip-38"><path d="M473.5,188.50002h479.99999v479.99999h-479.99999z" id="clip-38" fill="none"/></clipPath><clipPath id="clip-39"><path d="M473.5,188.50002h479.99999v479.99999h-479.99999z" id="clip-39" fill="none"/></clipPath><clipPath id="clip-40"><path d="M473.5,188.50001h479.99999v479.99999h-479.99999z" id="clip-40" fill="none"/></clipPath><clipPath id="clip-41"><path d="M473.49999,188.50002h479.99999v479.99999h-479.99999z" id="clip-41" fill="none"/></clipPath><clipPath id="clip-42"><path d="M473.5,188.50002h479.99999v479.99999h-479.99999z" id="clip-42" fill="none"/></clipPath><clipPath id="clip-43"><path d="M473.5,188.50001h479.99999v479.99999h-479.99999z" id="clip-43" fill="none"/></clipPath><clipPath id="clip-44"><path d="M473.49999,188.50001h479.99999v479.99999h-479.99999z" id="clip-44" fill="none"/></clipPath><clipPath id="clip-45"><path d="M473.5,188.50001h479.99999v479.99999h-479.99999z" id="clip-45" fill="none"/></clipPath><clipPath id="clip-46"><path d="M473.49999,188.50001h479.99999v479.99999h-479.99999z" id="clip-46" fill="none"/></clipPath><clipPath id="clip-47"><path d="M473.5,188.50001h479.99999v479.99999h-479.99999z" id="clip-47" fill="none"/></clipPath><clipPath id="clip-48"><path d="M473.5,188.50001h479.99999v479.99999h-479.99999z" id="clip-48" fill="none"/></clipPath><clipPath id="clip-49"><path d="M473.50001,188.50001h479.99999v479.99999h-479.99999z" id="clip-49" fill="none"/></clipPath><clipPath id="clip-50"><path d="M473.5,188.50001h479.99999v479.99999h-479.99999z" id="clip-50" fill="none"/></clipPath><clipPath id="clip-51"><path d="M473.5,188.50001h479.99999v479.99999h-479.99999z" id="clip-51" fill="none"/></clipPath><clipPath id="clip-52"><path d="M473.5,188.50002h479.99999v479.99999h-479.99999z" id="clip-52" fill="none"/></clipPath><clipPath id="clip-53"><path d="M473.5,188.50001h479.99999v479.99999h-479.99999z" id="clip-53" fill="none"/></clipPath><clipPath id="clip-54"><path d="M473.50001,188.50002h479.99999v479.99999h-479.99999z" id="clip-54" fill="none"/></clipPath><clipPath id="clip-55"><path d="M473.5,188.50002h479.99999v479.99999h-479.99999z" id="clip-55" fill="none"/></clipPath><clipPath id="clip-56"><path d="M473.5,188.50001h479.99999v479.99999h-479.99999z" id="clip-56" fill="none"/></clipPath><clipPath id="clip-57"><path d="M473.5,188.50001h479.99999v479.99999h-479.99999z" id="clip-57" fill="none"/></clipPath><clipPath id="clip-58"><path d="M473.5,188.50002h479.99999v479.99999h-479.99999z" id="clip-58" fill="none"/></clipPath><clipPath id="clip-59"><path d="M473.5,188.50002h479.99999v479.99999h-479.99999z" id="clip-59" fill="none"/></clipPath><clipPath id="clip-60"><path d="M473.5,188.50002h479.99999v479.99999h-479.99999z" id="clip-60" fill="none"/></clipPath><clipPath id="clip-61"><path d="M473.5,188.50002h479.99999v479.99999h-479.99999z" id="clip-61" fill="none"/></clipPath><clipPath id="clip-62"><path d="M473.49999,188.50001h479.99999v479.99999h-479.99999z" id="clip-62" fill="none"/></clipPath><clipPath id="clip-63"><path d="M473.5,188.50002h479.99999v479.99999h-479.99999z" id="clip-63" fill="none"/></clipPath><clipPath id="clip-64"><path d="M473.5,188.50001h479.99999v479.99999h-479.99999z" id="clip-64" fill="none"/></clipPath><clipPath id="clip-65"><path d="M473.49999,188.50002h479.99999v479.99999h-479.99999z" id="clip-65" fill="none"/></clipPath><clipPath id="clip-66"><path d="M473.5,188.50002h479.99999v479.99999h-479.99999z" id="clip-66" fill="none"/></clipPath><clipPath id="clip-67"><path d="M473.5,188.50002h479.99999v479.99999h-479.99999z" id="clip-67" fill="none"/></clipPath><clipPath id="clip-68"><path d="M473.5,188.50002h479.99999v479.99999h-479.99999z" id="clip-68" fill="none"/></clipPath><clipPath id="clip-69"><path d="M473.5,188.50002h479.99999v479.99999h-479.99999z" id="clip-69" fill="none"/></clipPath><clipPath id="clip-70"><path d="M473.5,188.50001h479.99999v479.99999h-479.99999z" id="clip-70" fill="none"/></clipPath><clipPath id="clip-71"><path d="M473.5,188.50001h479.99999v479.99999h-479.99999z" id="clip-71" fill="none"/></clipPath><clipPath id="clip-72"><path d="M473.49999,188.50002h479.99999v479.99999h-479.99999z" id="clip-72" fill="none"/></clipPath><clipPath id="clip-73"><path d="M473.5,188.50001h479.99999v479.99999h-479.99999z" id="clip-73" fill="none"/></clipPath><clipPath id="clip-74"><path d="M473.49999,188.50001h479.99999v479.99999h-479.99999z" id="clip-74" fill="none"/></clipPath><clipPath id="clip-75"><path d="M473.5,188.50002h479.99999v479.99999h-479.99999z" id="clip-75" fill="none"/></clipPath><clipPath id="clip-76"><path d="M473.5,188.50002h479.99999v479.99999h-479.99999z" id="clip-76" fill="none"/></clipPath><clipPath id="clip-77"><path d="M473.49999,188.50002h479.99999v479.99999h-479.99999z" id="clip-77" fill="none"/></clipPath><clipPath id="clip-78"><path d="M473.49999,188.50002h479.99999v479.99999h-479.99999z" id="clip-78" fill="none"/></clipPath><clipPath id="clip-79"><path d="M473.5,188.50002h479.99999v479.99999h-479.99999z" id="clip-79" fill="none"/></clipPath><clipPath id="clip-80"><path d="M473.50001,188.50002h479.99999v479.99999h-479.99999z" id="clip-80" fill="none"/></clipPath><clipPath id="clip-81"><path d="M473.5,188.50001h479.99999v479.99999h-479.99999z" id="clip-81" fill="none"/></clipPath><clipPath id="clip-82"><path d="M473.49999,188.50001h479.99999v479.99999h-479.99999z" id="clip-82" fill="none"/></clipPath><clipPath id="clip-83"><path d="M473.5,188.50001h479.99999v479.99999h-479.99999z" id="clip-83" fill="none"/></clipPath><clipPath id="clip-84"><path d="M473.5,188.50001h479.99999v479.99999h-479.99999z" id="clip-84" fill="none"/></clipPath><clipPath id="clip-85"><path d="M473.5,188.50001h479.99999v479.99999h-479.99999z" id="clip-85" fill="none"/></clipPath><clipPath id="clip-86"><path d="M473.5,188.50001h479.99999v479.99999h-479.99999z" id="clip-86" fill="none"/></clipPath><clipPath id="clip-87"><path d="M473.5,188.50001h479.99999v479.99999h-479.99999z" id="clip-87" fill="none"/></clipPath><clipPath id="clip-88"><path d="M473.5,188.50001h479.99999v479.99999h-479.99999z" id="clip-88" fill="none"/></clipPath><clipPath id="clip-89"><path d="M473.5,188.50001h479.99999v479.99999h-479.99999z" id="clip-89" fill="none"/></clipPath><clipPath id="clip-90"><path d="M473.5,188.50001h479.99999v479.99999h-479.99999z" id="clip-90" fill="none"/></clipPath><clipPath id="clip-91"><path d="M473.5,188.50001h479.99999v479.99999h-479.99999z" id="clip-91" fill="none"/></clipPath><clipPath id="clip-92"><path d="M473.5,188.50001h479.99999v479.99999h-479.99999z" id="clip-92" fill="none"/></clipPath><clipPath id="clip-93"><path d="M473.5,188.50001h479.99999v479.99999h-479.99999z" id="clip-93" fill="none"/></clipPath></defs><g fill="none" fill-rule="nonzero" stroke="none" stroke-width="none" stroke-linecap="butt" stroke-linejoin="miter" stroke-miterlimit="10" stroke-dasharray="" stroke-dashoffset="0" font-family="none" font-weight="none" font-size="none" text-anchor="none" style="mix-blend-mode: normal" transform="matrix(0.7142859697341919, 0, 0, 0.7142859697341919, -312.7229919433594, -168.9252166748047)" id="object-0"><g><g id="stage"><g id="layer1 1"><g clip-path="url(#clip-1)" id="Group 1"><g id="Group 1" fill="#ffffff" stroke="#000000" stroke-width="0" font-family="none" font-weight="none" font-size="NaN" text-anchor="start"/><g id="Group 1" stroke="none" stroke-width="1"><g id="Group 1"><g id="Group 1"><g id="Group 1"><g clip-path="url(#clip-2)" id="Group 1"><g id="Group 1"><g clip-path="url(#clip-3)" id="Group 1" fill="none"/><g clip-path="url(#clip-4)" id="Group 1"><path d="M836.32067,489.0536c-1.036,2.43733 -3.83467,4.45867 -5.87067,4.288c-0.932,-0.07733 -1.57333,-0.50267 -1.91733,-1.33867c-0.45733,-1.09067 -0.08667,-2.05333 0.56133,-2.95333c1.17467,-1.63333 3.13333,-1.94533 5.028,-2.82267c-2.17467,-2.41067 -4.988,-3.284 -7.724,-4.16133c-7.96,-2.564 -16.028,-2.12933 -24.088,-0.47867c-4.356,0.88133 -8.648,2.01733 -12.75867,3.75867c-1.12667,0.46933 -1.60533,0.904 -1.216,2.288c0.868,3.12 -0.76,5.59467 -2.68667,7.76133c-2.94933,3.31067 -6.77467,4.90667 -11.212,4.992c-0.39333,0.00933 -0.77333,0.00933 -1.12667,0.08133c-0.01733,0.02267 -1.6,2.072 -4.82933,5.016c-3.22933,2.944 -8.10533,6.78933 -14.69467,10.412c2.7,1.836 13.72667,6.376 14.31867,6.81067c0.56133,0.40667 -0.99067,9.61467 -2.44267,16.98267c-1.144,-0.384 -2.35067,-0.57867 -3.608,-0.57867c-0.11867,0 -0.236,0 -0.35333,0.004c0.43467,-6.856 2.64133,-14.17333 2.64133,-14.17333c0,0 -2.03067,-0.37067 -6.83333,-1.27067c-3.63733,-0.67867 -8.05067,-3.31067 -10.104,-4.61867c-1.004,0.448 -2.04,0.88667 -3.10667,1.312c-1.04533,0.416 -2.104,0.77733 -3.176,1.09867c0.22667,0.10933 0.46133,0.22133 0.71067,0.34c3.90267,1.86267 10.47467,5.02 11.46,5.62533c1.42,0.864 1.73733,1.14933 1.38933,2.25733c-0.28133,0.88133 -2.28,4.88 -4.58667,10.208c-1.28933,-0.52 -2.68667,-0.78267 -4.17867,-0.78267h-0.064c1.73333,-4.43733 3.51067,-8.24933 3.51067,-8.24933l-3.91733,-1.01333c-3.30133,-0.85867 -9.38,-4.17867 -11.212,-5.20533c0,0 -5.72933,7.50267 -10.46533,14.72533h-5.65733c0.05867,-0.09867 0.11333,-0.20267 0.172,-0.30267c5.16933,-9.11333 10.02667,-13.85733 10.02667,-13.85733l-8.268,-3.284c0,0 -5.712,10.108 -11.23467,17.444h-4.93867c-0.276,0 -0.54267,0.032 -0.8,0.09067c0.82267,-1.01333 1.624,-2.08 2.38267,-3.188c4.184,-6.11067 7.572,-11.036 9.05467,-13.19333l-0.25333,0.1c-2.46,0.60533 -4.44133,1.19333 -6.46667,1.58267c-13.90267,2.668 -27.58,6.336 -41.388,9.39867c-4.34133,0.96267 -8.692,1.95733 -13.09333,2.71333c-20.00267,3.424 -36.29333,-2.876 -47.352,-19.76933c-18.724,-28.592 -21.116,-58.60933 -4.78933,-89.196c7.03733,-13.17867 17.66933,-22.70933 31.95333,-27.81067c2.41867,-0.868 4.90133,-1.47867 7.42133,-1.94933c0.91733,-0.17067 1.492,-0.35733 1.27067,-1.55067c-2.42933,-13.16533 1.384,-25.164 6.97333,-36.82c3.64133,-7.59333 7.72533,-14.97333 10.272,-23.07467c2.45067,-7.788 3.848,-15.76533 4.952,-23.82c1.33867,-9.77867 3.78533,-19.18533 9.30267,-27.56133c2.92667,-4.44667 6.21067,-8.544 11.04533,-11.036c6.372,-3.28267 12.79467,-2.83067 19.13067,0.11733c7.60267,3.532 13.572,9.14533 18.97733,15.37333c13.016,14.992 22.68533,32.02533 30.004,50.38667c9.92267,24.90667 15.80133,50.83067 18.78267,77.44666c2.012,17.992 2.704,35.996 0.94533,54.05067c-0.34933,3.524 -0.80133,7.02 -1.43867,10.50267c-0.10933,0.58267 -0.66,1.352 0.35733,1.71867c0.836,0.29733 1.564,0.628 2.39733,-0.32667c2.632,-3.03467 5.94667,-3.58667 9.592,-2.12533c0.88667,0.35733 1.32933,0.16267 1.91333,-0.47867c8.24,-9.08667 17.70667,-16.536 29.252,-20.94533c4.58267,-1.75067 9.304,-3.288 14.41467,-1.63733c3.43733,1.11733 4.672,3.00267 3.46,6.404c-0.52,1.47067 -1.04533,2.98533 -2.424,3.96267c-0.86,0.596 -1.71467,0.864 -2.70933,0.312c-0.94533,-0.52 -1.416,-1.276 -1.46133,-2.35733c-0.09067,-2.256 1.09467,-3.85333 4.36533,-5.53067c-2.32533,-1.11733 -4.528,-1.34267 -6.80267,-1.12133c-6.45467,0.628 -12.16667,3.29733 -17.63467,6.544c-6.82933,4.06533 -12.88,9.11333 -18.204,15.016c-0.53333,0.592 -1.24267,1.12133 -1.36533,2.13867c1.40267,0.64267 2.57333,-0.19467 3.75467,-0.64267c9.04533,-3.42267 18.33467,-5.28267 28.05867,-4.72133c3.604,0.21333 7.2,0.85067 10.56933,1.85467c2.148,0.63733 4.532,1.768 6.39467,3.46c1.89467,1.71867 2.492,3.36 1.63733,5.368" id="Path 1" fill="#090606"/></g><g clip-path="url(#clip-5)" id="Group 1"><path d="M763.4416,477.30613c-12.39467,-23.95067 -24.608,-47.54933 -32.34267,-73.12533c-2.372,-7.84133 -4.85067,-15.67867 -4.81733,-24.00533c0.01067,-2.552 0.02267,-5.11333 1.4,-7.42667c1.368,-2.29733 2.77467,-3.07333 5.25333,-2.092c7.80667,3.09067 14.13333,7.65333 16.756,16.28667c4.252,13.99733 7.11067,28.276 9.22667,42.72c2.144,14.648 3.87067,29.34267 4.484,44.14667c0.04267,1.036 0.02533,2.07333 0.04,3.496" id="Path 1" fill="#fe900c"/></g><g clip-path="url(#clip-6)" id="Group 1"><path d="M730.5396,493.1092c-1.016,1.02533 -2.19467,1.268 -3.32933,1.57067c-9.70133,2.58267 -19.66667,3.636 -29.57867,4.904c-16.34,2.08933 -32.67467,4.16133 -48.73467,7.944c-2.708,0.63867 -5.39467,1.37467 -8.11333,1.97067c-5.372,1.17867 -8.136,-0.52267 -10.03467,-6.07733c-1.53067,-4.47467 0.17467,-8.78667 4.336,-10.84933c3.19467,-1.58267 6.62933,-2.43867 10.096,-3.15867c13.35333,-2.77333 26.908,-4.068 40.46,-5.30133c5.58533,-0.50933 11.04533,1.03467 16.504,2.03867c8.42,1.548 16.89867,2.84133 25.10133,5.40133c1.124,0.352 2.22533,0.74933 3.29333,1.55733" id="Path 1" fill="#fe900c"/></g><g clip-path="url(#clip-7)" id="Group 1"><path d="M745.5532,454.83627c-11.71733,-11.09467 -23.90133,-21.3 -37.13467,-30.244c-6.66667,-4.50667 -13.22533,-9.17067 -19.872,-13.71733c-4.11067,-2.812 -8.55467,-5.048 -12.984,-7.29733c-3.44533,-1.74533 -6.644,-3.83467 -9.46,-6.48933c-4.29467,-4.05067 -5.392,-10.028 -2.768,-15.04c2.41733,-4.62133 6.748,-6.13733 11.388,-3.76667c4.03067,2.064 7.504,5.00533 11.16267,7.63467c4.412,3.17067 8.516,6.788 12.90133,9.95067c7.32933,5.28667 14.12,11.19733 21.02533,16.976c4.98133,4.17333 9.78667,8.55467 14.62,12.9c0.63867,0.57333 1.07067,1.45067 1.43467,2.26267c1.99867,4.38667 3.47467,8.97733 5.06933,13.51867c1.56133,4.432 3.07867,8.87733 4.61733,13.312" id="Path 1" fill="#fe900c"/></g><g clip-path="url(#clip-8)" id="Group 1"><path d="M669.7568,468.91973c-4.05067,-2.26133 -7.924,-4.432 -11.292,-7.37467c-3.53467,-3.088 -3.09733,-5.61467 1.36667,-7.14933c3.532,-1.216 7.24933,-1.39733 10.928,-1.07867c4.636,0.40133 9.24667,1.092 13.868,1.66133c2.54667,0.31467 5.084,0.38133 7.644,0.06c3.55333,-0.44667 6.57067,1.31467 9.696,2.552c8.30933,3.29067 15.12,8.91067 22.072,14.30533c3.38533,2.628 6.76933,5.256 10.14533,7.89467c1.468,1.148 1.94267,5.292 0.78533,6.716c-0.56667,0.7 -1.38133,0.48667 -2.1,0.488c-3.756,0.01067 -7.24667,-1.24933 -10.736,-2.404c-9.58933,-3.172 -19.55467,-4.78 -29.32933,-7.17333c-8.06533,-1.97467 -15.828,-4.78667 -23.048,-8.49733" id="Path 1" fill="#fe900c"/></g><g clip-path="url(#clip-9)" id="Group 1"><path d="M733.8008,421.90893c-4.94533,-4.25333 -9.828,-8.584 -14.85067,-12.744c-12.152,-10.06667 -24.22667,-20.22 -35.65333,-31.11733c-1.02933,-0.98133 -1.97467,-2.06267 -2.876,-3.16667c-3.91333,-4.79067 -3.39067,-11.68133 1.17067,-15.868c2.55733,-2.348 6.28267,-2.57467 9.364,-0.54133c6.06933,4.00667 10.85733,9.456 16.1,14.38933c4.37333,4.11333 8.02667,9.08533 12.98933,12.44267c3.51467,2.37867 4.764,5.35467 5.84267,9.15067c2.58533,9.1 5.70667,18.04667 8.612,27.05467c-0.23333,0.13333 -0.46533,0.26667 -0.69867,0.4" id="Path 1" fill="#fe900c"/></g><g clip-path="url(#clip-10)" id="Group 1"><path d="M730.47227,497.05973c-0.83467,1.98533 -2.56933,3.09333 -4.24933,4.19067c-6.10133,3.98 -12.74133,6.86667 -19.568,9.32c-16.784,6.03067 -33.94267,10.84533 -51.13467,15.53733c-7.58267,2.06933 -12.184,0.532 -16.20533,-5.196c-0.34533,-0.49067 -0.67333,-1.00267 -0.92533,-1.544c-1.42533,-3.05733 -0.94533,-4.32667 2.36933,-4.99467c9.504,-1.916 19.04,-3.67467 28.56533,-5.48667c18.01733,-3.42667 36.15333,-6.22 54.07067,-10.17867c2.37067,-0.52267 4.648,-1.46533 7.10667,-1.59067z" id="Path 1" fill="#fe900c"/></g><g clip-path="url(#clip-11)" id="Group 1"><path d="M675.19253,478.60053c-4.63333,0.98933 -8.732,1.40267 -12.812,1.93333c-10.07733,1.312 -20.10533,2.85333 -29.61733,6.672c-1.812,0.728 -3.56,1.62267 -5.38533,2.31467c-3.84933,1.46133 -6.464,0.544 -8.67067,-2.92667c-1.524,-2.39733 -2.43867,-4.99467 -2.47867,-7.85067c-0.04267,-3.12933 1.168,-4.908 4.128,-5.99067c3.636,-1.328 7.49067,-1.596 11.276,-2.15067c7.74133,-1.13333 15.524,-1.776 23.36267,-1.42933c0.81733,0.036 1.66267,-0.09333 2.39733,0.424c4.9,3.44933 10.43867,5.628 15.88267,7.996c0.47067,0.20533 0.912,0.47733 1.91733,1.008" id="Path 1" fill="#fe900c"/></g><g clip-path="url(#clip-12)" id="Group 1"><path d="M723.99387,385.1236c-3.81733,-2.864 -6.732,-5.99067 -9.69867,-9.04c-5.54533,-5.69733 -11.52533,-10.96533 -16.71467,-17.01467c-2.632,-3.06667 -4.136,-6.4 -3.15467,-10.53733c1.17733,-4.96133 5.96933,-7.55067 10.78267,-5.83333c3.41733,1.22 5.67467,3.88 8.008,6.40933c3.568,3.86933 6.65867,8.12267 9.628,12.464c1.236,1.80933 1.74,3.73333 1.524,5.956c-0.552,5.66933 -0.608,11.36267 -0.37467,17.596" id="Path 1" fill="#fe900c"/></g><g clip-path="url(#clip-13)" id="Group 1"><path d="M657.74227,439.75333c-6.24267,-3.39467 -13.144,-6.26133 -19.456,-10.24667c-2.912,-1.83733 -3.24133,-4.58533 -0.87733,-7.152c3.30267,-3.58667 8.624,-4.40667 13.50533,-2.06533c6.42933,3.08533 11.93333,7.552 17.46133,11.93867c7.17733,5.696 14.196,11.59333 21.25333,17.44c0.54133,0.448 1.62267,0.80667 1.38933,1.58667c-0.28533,0.948 -1.44533,0.98533 -2.31333,1.012c-3.75733,0.12133 -7.268,-0.964 -10.69333,-2.372c-6.90267,-2.83733 -13.32533,-6.632 -20.26933,-10.14133" id="Path 1" fill="#fe900c"/></g><g clip-path="url(#clip-14)" id="Group 1"><path d="M706.34627,453.7152c-1.37867,0.076 -2.50133,-0.52667 -3.65467,-0.99733c-6.14133,-2.50267 -11.28267,-6.53067 -16.37733,-10.65467c-7.532,-6.096 -15.12133,-12.12 -22.68267,-18.17867c-0.468,-0.376 -0.91333,-0.78267 -1.34933,-1.196c-1.24667,-1.18133 -2.788,-2.25733 -2.28,-4.312c0.55333,-2.24533 2.17333,-3.60667 4.276,-4.25333c2.99867,-0.92133 5.96667,-0.53733 8.77067,0.82667c4.29733,2.09333 8.06533,4.94267 11.44267,8.30533c8.47333,8.43467 15.26133,18.132 21.21067,28.45067c0.22533,0.388 0.41067,0.804 0.57333,1.22267c0.07333,0.188 0.04267,0.41733 0.07067,0.78667" id="Path 1" fill="#fe900c"/></g><g clip-path="url(#clip-15)" id="Group 1"><path d="M668.55907,450.2876c-7.696,0.43467 -15.10933,3.332 -22.76933,1.81467c-6.32667,-1.252 -12.52,-3.22933 -18.728,-5.03733c-6.99867,-2.03867 -8.43067,-7.67067 -3.46933,-13.176c2.25467,-2.50267 5.01333,-2.78133 8.05067,-1.89867c5.15067,1.49733 10.03733,3.66 14.85067,5.98267c6.91733,3.33733 13.69333,6.95333 20.392,10.71067c0.55467,0.30933 1.29867,0.428 1.67333,1.604" id="Path 1" fill="#fe900c"/></g><g clip-path="url(#clip-16)" id="Group 1"><path d="M703.7276,428.58747c3.016,2.13067 5.63467,5.03733 8.30533,7.87733c8.24267,8.76667 15.79867,18.096 22.65733,27.984c0.72533,1.04667 1.24,2.24667 2.016,3.24933c1.892,2.448 1.40667,5.02267 0.62267,7.65867c-0.224,0.75467 -0.48,1.34 -1.31067,0.576c-9.368,-8.60133 -20.22267,-15.70667 -27.128,-26.788c-2.66667,-4.28133 -4.784,-8.856 -6.62933,-13.548c-0.776,-1.97467 -1.32,-4.03333 -0.83067,-6.16267c0.23867,-1.04133 0.68533,-2.204 2.29733,-0.84667" id="Path 1" fill="#fe900c"/></g><g clip-path="url(#clip-17)" id="Group 1"><path d="M734.27587,496.9396c0.524,6.30533 -1.84267,10.84 -6.00133,14.77467c-5.39333,5.104 -12.18667,7.06533 -19.07733,8.62133c-11.984,2.70533 -24.03733,5.10267 -36.076,7.55733c-6.548,1.33467 -13.14,2.432 -19.79067,3.148c-0.952,0.10267 -1.912,0.14133 -2.92533,0.012c2.23467,-1.50667 4.80533,-2.168 7.32933,-2.86c13.34133,-3.66 26.73467,-7.14133 39.86667,-11.51867c9.04267,-3.01333 18.00933,-6.22533 26.46267,-10.70267c3.97733,-2.108 7.464,-4.77067 10.212,-9.032" id="Path 1" fill="#fe900c"/></g><g clip-path="url(#clip-18)" id="Group 1"><path d="M652.68667,466.18413c-10.18133,0.128 -19.776,1.46933 -29.404,2.47467c-4.5,0.46933 -6.816,-0.81467 -8.41333,-4.116c-1.67333,-3.45733 -1.156,-8.79733 1.14133,-11.324c1.99733,-2.19733 4.612,-2.35333 7.28933,-1.96667c5.98,0.864 11.66667,2.788 17.276,4.964c3.54,1.37467 6.80267,3.06267 8.86133,6.52267c0.69733,1.172 1.89867,2.04267 3.24933,3.44533" id="Path 1" fill="#fe900c"/></g><g clip-path="url(#clip-19)" id="Group 1"><path d="M756.32893,486.01547c-1.404,2.57733 -6.39867,3.38533 -8.08,0.72133c-1.11733,-1.77733 -0.86667,-3.056 0.44933,-4.392c1.21333,-1.23067 2.50533,-2.38933 3.64,-3.68267c0.628,-0.716 1.26,-1.728 0.24133,-2.57867c-1.13467,-0.948 -1.72533,0.15733 -2.336,0.87867c-1.32133,1.552 -2.68267,3.06267 -4.52,4.02133c-2.96533,1.54667 -5.20667,0.14267 -5.092,-3.17867c0.096,-2.75733 0.90667,-5.31733 2.15733,-7.75067c0.232,-0.38933 0.47067,-0.77467 0.684,-1.168c0.69333,-1.29067 0.42667,-2.22 -1.14933,-1.85067c-1.79467,0.42267 -2.624,-0.48667 -3.45867,-1.74133c-1.788,-2.69467 -3.66933,-5.32133 -5.41067,-8.03733c-1.04133,-1.62933 -17.14267,-22.39333 -17.14267,-22.39333c2.04933,1.872 22.58533,20.20667 24.49733,22.21467c5.388,5.65733 10.78,11.33067 14.876,18.048c2.124,3.48133 2.712,7.10267 0.644,10.88933" id="Path 1" fill="#fe900c"/></g><g clip-path="url(#clip-20)" id="Group 1"><path d="M723.99733,318.08387c-1.79333,3.41867 -3.76533,3.864 -6.4,1.472c-5.232,-4.752 -9.564,-10.38267 -14.772,-15.176c-1.84533,-1.69733 -1.872,-4.212 -0.696,-5.78133c1.41733,-1.892 3.29333,-2.40933 5.84133,-1.13067c7.08,3.552 12.116,9.25333 16.108,15.94533c0.952,1.59733 0.76133,3.332 -0.08133,4.67067" id="Path 1" fill="#fe900c"/></g><g clip-path="url(#clip-21)" id="Group 1"><path d="M697.52747,305.61387c5,3.38933 9.42533,7.53333 12.752,12.73867c1.49733,2.34133 0.94,4.54933 -1.288,6.36933c-1.748,1.42667 -3.80133,1.45733 -5.68,-0.47333c-3.46667,-3.56133 -7.29067,-6.72533 -10.84533,-10.18267c-0.70533,-0.68667 -1.28533,-1.46533 -1.68267,-2.38c-1.02267,-2.35467 -0.636,-4.70933 1.128,-6.19067c1.82933,-1.53333 3.67333,-0.71733 5.616,0.11867" id="Path 1" fill="#fe900c"/></g><g clip-path="url(#clip-22)" id="Group 1"><path d="M712.5624,328.67227c0.12133,-0.17067 0.35467,-0.56133 0.64667,-0.90267c2.24,-2.616 3.48267,-2.65067 5.748,-0.13733c1.664,1.844 3.08133,3.86933 4.42,5.96133c0.888,1.38533 0.64,2.51733 -0.368,3.66267c-2.404,2.736 -6.23333,2.62667 -8.51467,-0.26933c-0.93067,-1.18 -1.824,-2.38533 -2.408,-3.788c-0.62533,-1.50133 -0.432,-2.93467 0.476,-4.52667" id="Path 1" fill="#ffffff"/></g><g clip-path="url(#clip-23)" id="Group 1"><path d="M730.15467,361.13573c-2.52533,-2.276 -4.76267,-5.33067 -5.644,-9.15467c-0.41067,-1.788 0.76267,-3.128 2.316,-3.98667c1.58533,-0.876 2.984,-0.30133 4.01867,0.92c2.44133,2.88267 4.18267,6.188 5.34133,9.77867c0.33867,1.05067 0.17867,2.10267 -0.864,2.78667c-1.584,1.04 -3.14267,0.61467 -5.168,-0.344" id="Path 1" fill="#ffffff"/></g><g clip-path="url(#clip-24)" id="Group 1"><path d="M697.77987,325.6344c0.832,0.59733 1.892,1.17733 2.656,2.14c1.344,1.69333 1.28,4.37733 -0.15067,5.76933c-1.74267,1.69867 -4.58267,1.888 -6.27867,0.4c-0.62,-0.54133 -1.23733,-1.09467 -1.79067,-1.70133c-1.86533,-2.05067 -1.93067,-4.01067 -0.24267,-6.028c1.46933,-1.756 3.35333,-1.97733 5.80667,-0.58" id="Path 1" fill="#ffffff"/></g><g clip-path="url(#clip-25)" id="Group 1"><path d="M679.65893,327.58253c2.16,1.476 4.104,3.24933 5.89867,5.16933c0.96,1.028 0.51733,5.72533 -0.548,6.60667c-0.672,0.55733 -1.45467,0.772 -2.24133,0.08933c-1.76,-1.524 -3.58267,-2.98133 -5.28267,-4.56933c-1.16,-1.08267 -0.868,-6.74933 0.304,-7.65867c0.72533,-0.56267 1.232,0.184 1.86933,0.36267" id="Path 1" fill="#ffffff"/></g><g clip-path="url(#clip-26)" id="Group 1"><path d="M684.30653,313.76187c0.95333,0.772 2.15333,1.576 3.14667,2.58267c1.71467,1.74 1.60933,4.096 -0.10933,5.84933c-1.32667,1.352 -2.636,1.20267 -4.696,-0.53067c-1.37733,-1.15867 -2.95467,-2.196 -3.36667,-4.096c-0.34533,-1.59333 -0.25867,-3.32933 1.01867,-4.41467c1.232,-1.048 2.52667,0.212 4.00667,0.60933" id="Path 1" fill="#ffffff"/></g><g clip-path="url(#clip-27)" id="Group 1"><path d="M734.05827,329.5328c-0.63733,0.948 -1.23867,1.80533 -2.13467,2.40533c-2.14667,1.43867 -3.408,1.17867 -4.82,-1.00267c-0.08133,-0.12533 -0.176,-0.24267 -0.256,-0.36933c-2.176,-3.50667 -2.17467,-3.50667 0.564,-6.47067c0.30533,-0.33067 0.57867,-0.69067 0.89867,-1.00533c0.62267,-0.61333 0.56267,-2.056 1.48,-2.008c0.93867,0.048 1.37867,1.27333 1.88533,2.08133c0.83333,1.33067 1.59867,2.70933 2.308,4.10933c0.37067,0.72933 0.644,1.55067 0.07467,2.26" id="Path 1" fill="#ffffff"/></g><g clip-path="url(#clip-28)" id="Group 1"><path d="M742.36187,344.6644c-1.93733,2.996 -4.276,3.064 -6.22533,0.184c-0.04267,-0.06267 -0.092,-0.12 -0.13333,-0.18267c-3.116,-4.652 -3.01067,-5.52667 1.01733,-9.49733c0.46,-0.45333 0.85867,-0.716 1.22133,-0.06267c1.49067,2.688 2.94667,5.396 4.38133,8.11333c0.25867,0.48933 0.188,1.028 -0.26133,1.44533" id="Path 1" fill="#ffffff"/></g><g clip-path="url(#clip-29)" id="Group 1"><path d="M688.46947,416.5344c2.65333,1.81333 5.07467,3.93867 7.46667,6.104c0.716,0.64933 0.864,1.304 -0.024,1.77867c-1.02,0.54533 -1.17867,3.00533 -2.95067,1.70133c-2.53067,-1.86133 -4.788,-4.07467 -6.776,-6.54c-1.04267,-1.29333 -0.15467,-2.22667 0.528,-3.192c0.63067,-0.89067 1.16133,-0.036 1.756,0.148" id="Path 1" fill="#ffffff"/></g><g clip-path="url(#clip-30)" id="Group 1"><path d="M672.95573,361.29027c-1.01733,0.852 -0.87733,3.40133 -3.27467,2.33467c-2.59067,-1.152 -3.652,-3.54533 -2.54267,-5.74933c0.652,-1.29733 1.05067,-3.43067 2.53733,-3.39333c1.728,0.04133 2.97333,1.83733 4.044,3.25867c1.012,1.344 -0.44533,2.32533 -0.764,3.54933" id="Path 1" fill="#ffffff"/></g><g clip-path="url(#clip-31)" id="Group 1"><path d="M679.11187,349.1948c-0.67467,1.48667 -1.93733,2.12 -3.69067,1.22667c-2.27733,-1.15867 -4.124,-4.45467 -3.36267,-5.852c1.11467,-2.04667 2.89333,-2.71467 4.576,-1.71867c3.168,1.87333 3.968,3.75067 2.47733,6.344" id="Path 1" fill="#ffffff"/></g><g clip-path="url(#clip-32)" id="Group 1"><path d="M618.61187,504.3764c-1.08933,-0.94 -2.05867,-2.284 -2.17333,-3.84667c-0.096,-1.31867 1.48533,-1.47467 2.40267,-2.024c0.568,-0.34133 1.228,-0.62667 1.87733,-0.71867c1.404,-0.2 3.17333,-1.592 4.10267,0.452c1.048,2.30267 -0.02667,4.53867 -2.224,5.49067c-2.54533,1.104 -2.964,1.18533 -3.98533,0.64667" id="Path 1" fill="#ffffff"/></g><g clip-path="url(#clip-33)" id="Group 1"><path d="M747.45133,368.5152c-0.31467,-0.16667 -0.71067,-0.26133 -0.93467,-0.51067c-2.87067,-3.20267 -4.83067,-6.87067 -5.47333,-11.15733c-0.14,-0.93467 -0.292,-2.05067 1.008,-2.424c1.224,-0.35333 1.54267,0.70667 1.96133,1.44c1.84667,3.22933 3.10533,6.67733 3.63067,10.37067c0.10133,0.712 0.408,1.464 -0.192,2.28133" id="Path 1" fill="#ffffff"/></g><g clip-path="url(#clip-34)" id="Group 1"><path d="M693.6752,295.21347c-2.34267,-1.328 -3.172,-2.85333 -2.35467,-4.33067c1.196,-2.16133 4.176,-3.11333 6.184,-1.79467c1.24133,0.816 2.91733,1.70533 2.132,3.648c-0.67733,1.67333 -4.688,3.19867 -5.96133,2.47733" id="Path 1" fill="#ffffff"/></g><g clip-path="url(#clip-35)" id="Group 1"><path d="M689.51027,302.2632c-1.92267,3.36133 -3.464,4.15733 -5.47867,2.99733c-1.76133,-1.01467 -2.16933,-3.616 -0.90533,-5.78c1.05867,-1.81333 3.08267,-2.12667 5.264,-0.824c1.60667,0.96 2.26267,2.15467 1.12,3.60667" id="Path 1" fill="#ffffff"/></g><g clip-path="url(#clip-36)" id="Group 1"><path d="M650.78547,414.09307c-1.14267,-0.852 -3.58667,-1.88267 -3.40267,-3.14533c0.22133,-1.52267 2.84267,-1.416 4.44133,-1.95733c2.27733,-0.772 3.86,0.66267 5.49467,1.85867c0.32933,0.24133 0.41333,0.56 0.24667,0.98133c-0.76267,1.92267 -4.77333,3.41333 -6.78,2.26267" id="Path 1" fill="#ffffff"/></g><g clip-path="url(#clip-37)" id="Group 1"><path d="M659.69333,370.01347c0.10533,-0.19867 0.18,-0.42 0.31867,-0.59067c0.828,-1.01067 1.24267,-2.90933 3.14667,-1.92c2.19867,1.14267 2.948,3.39333 1.95067,5.20133c-0.10667,0.196 -0.19733,0.424 -0.35867,0.56533c-1.11067,0.972 -1.152,3.69867 -3.70533,2.32c-2.42667,-1.31067 -2.79067,-2.87333 -1.352,-5.576" id="Path 1" fill="#ffffff"/></g><g clip-path="url(#clip-38)" id="Group 1"><path d="M706.07413,287.1924c1.172,-2.19733 1.48667,-2.28533 3.51067,-0.696c1.11867,0.87733 2.232,1.79333 3.196,2.832c1.42133,1.53333 0.86,2.992 -1.192,3.36533c-1.90667,0.34533 -5.09067,-1.276 -5.948,-2.97467c-0.49467,-0.98267 0.03067,-1.72933 0.43333,-2.52667" id="Path 1" fill="#ffffff"/></g><g clip-path="url(#clip-39)" id="Group 1"><path d="M664.13933,354.7472c-0.66133,0.76933 -0.688,2.57467 -2.59467,1.83733c-2.24933,-0.87067 -3.024,-2.212 -2.39867,-4.16c0.11333,-0.35467 0.12267,-0.79467 0.34533,-1.05333c0.92533,-1.07467 0.24267,-3.93333 2.61733,-3.22533c3.04667,0.908 3.68533,2.95467 2.45467,5.676c-0.12267,0.272 -0.248,0.54267 -0.424,0.92533" id="Path 1" fill="#ffffff"/></g><g clip-path="url(#clip-40)" id="Group 1"><path d="M666.24493,407.2252c2.71067,-2.03067 8.53467,-0.46133 12.03333,3.19067c-4.49867,2.128 -8.908,0.96 -12.03333,-3.19067" id="Path 1" fill="#ffffff"/></g><g clip-path="url(#clip-41)" id="Group 1"><path d="M625.74707,424.40693c-0.98533,-0.616 -2.364,-1.04133 -1.396,-2.82667c1.42533,-2.63067 3.18533,-3.56267 5.19333,-2.33067c1.12933,0.69333 3.16267,1.212 2.192,3.24133c-1.36533,2.856 -3.216,3.37733 -5.98933,1.916" id="Path 1" fill="#ffffff"/></g><g clip-path="url(#clip-42)" id="Group 1"><path d="M762.10307,400.3552c-0.52933,0.11467 -1.012,0.25867 -1.504,0.31333c-0.50133,0.056 -0.608,-0.37867 -0.64667,-0.73333c-0.48667,-4.56533 -1.62533,-9.00933 -2.50667,-13.50133c-0.17867,-0.91467 0.24533,-1.45333 1.084,-1.66667c0.96667,-0.24667 0.88133,0.64267 1.01867,1.12133c1.22267,4.268 1.972,8.632 2.516,13.03333c0.05467,0.44 0.02667,0.88933 0.03867,1.43333" id="Path 1" fill="#ffffff"/></g><g clip-path="url(#clip-43)" id="Group 1"><path d="M607.67973,484.0048c-0.63867,-0.368 -2.05733,-5.26667 -1.716,-5.92667c0.22667,-0.43867 4.12667,-1.68133 4.588,-1.46133c0.71333,0.33867 2.24667,5.104 1.884,5.85333c-0.34667,0.716 -4.084,1.92133 -4.756,1.53467" id="Path 1" fill="#ffffff"/></g><g clip-path="url(#clip-44)" id="Group 1"><path d="M670.26227,328.92533c-2.42133,-1.43733 -3.17467,-5.65067 -1.60667,-7.92533c0.244,-0.35467 0.44,-0.47067 0.89333,-0.36133c2.31867,0.55067 4.024,3.028 3.644,5.39733c-0.09333,0.59067 -0.27733,1.16533 -0.38267,1.75467c-0.33733,1.89467 -1.14933,2.48267 -2.548,1.13467" id="Path 1" fill="#ffffff"/></g><g clip-path="url(#clip-45)" id="Group 1"><path d="M611.0152,438.56827c0.92933,-1.12533 2.484,-0.59067 3.82533,-0.20533c1.28533,0.36933 1.64133,3.568 0.748,5.308c-0.436,0.85067 -4.17067,1.69733 -5.21067,1.18133c-0.85067,-0.42267 -0.58667,-4.14267 0.63733,-6.284" id="Path 1" fill="#ffffff"/></g><g clip-path="url(#clip-46)" id="Group 1"><path d="M611.06227,456.01027c-0.99067,1.26667 -2.57733,1.19467 -3.996,1.12c-1.336,-0.06933 -0.72667,-1.38 -0.824,-2.14533c-0.092,-0.72133 0.08,-1.48133 0.176,-2.22c0.30133,-2.31467 2.11733,-3.484 4.40267,-2.91067c0.54133,0.13733 0.76933,0.45333 0.80133,0.91333c0.11867,1.724 -0.148,3.41333 -0.56,5.24267" id="Path 1" fill="#ffffff"/></g><g clip-path="url(#clip-47)" id="Group 1"><path d="M626.7796,507.8604c0.72533,1.07733 2.152,2.08 1.42933,3.812c-0.60133,1.444 -3.832,2.30667 -5.228,1.52133c-1.088,-0.612 -2.45467,-3.29067 -2.04133,-3.99733c0.57333,-0.976 4.664,-1.99867 5.84,-1.336" id="Path 1" fill="#ffffff"/></g><g clip-path="url(#clip-48)" id="Group 1"><path d="M600.56307,465.52227c0.53467,0.16 0.55733,0.636 0.64667,1.064c0.228,1.09467 0.376,2.21067 0.68133,3.28267c0.528,1.86 -0.12133,2.59333 -2.02267,3.00133c-2.024,0.432 -2.95467,0.05333 -2.94267,-2.092c0.00533,-0.96667 -0.168,-1.93333 -0.15733,-2.89867c0.02,-1.736 2.17467,-3.05067 3.79467,-2.35733" id="Path 1" fill="#ffffff"/></g><g clip-path="url(#clip-49)" id="Group 1"><path d="M679.7848,296.32653c-0.3,0.568 -0.45867,0.908 -0.65333,1.228c-1.36133,2.25067 -2.268,2.31333 -4.23467,0.66533c-1.24267,-1.04133 -0.896,-2.152 -0.45733,-3.23733c0.45733,-1.12533 0.61733,-2.82267 2.08933,-2.91467c1.44933,-0.09067 3.07067,0.444 3.996,1.688c0.76667,1.032 -0.56133,1.86267 -0.74,2.57067" id="Path 1" fill="#ffffff"/></g><g clip-path="url(#clip-50)" id="Group 1"><path d="M657.2696,366.93307c-0.14133,0.264 -0.23467,0.57067 -0.42933,0.784c-0.66933,0.73467 -0.768,2.61467 -2.23733,1.81333c-1.34933,-0.736 -2.9,-1.896 -2.16,-3.91867c0.48533,-1.32533 1.23733,-2.55067 1.848,-3.83067c0.33467,-0.7 0.73867,-0.712 1.42267,-0.404c2.94133,1.328 3.248,2.344 1.556,5.556" id="Path 1" fill="#ffffff"/></g><g clip-path="url(#clip-51)" id="Group 1"><path d="M621.40533,419.23827c-0.50267,0.86133 -0.96267,1.66133 -1.85467,2.01733c-1.61733,0.64533 -3.232,0.616 -4.804,-0.16133c-0.39733,-0.196 -0.54933,-0.628 -0.27867,-0.93867c1.332,-1.528 1.70133,-3.99867 4.18133,-4.40667c1.116,-0.184 2.35067,-0.36533 3.15067,0.64933c0.80533,1.02133 -0.04267,1.976 -0.39467,2.84" id="Path 1" fill="#ffffff"/></g><g clip-path="url(#clip-52)" id="Group 1"><path d="M630.10773,522.47453c-1.22667,-0.97733 -2.2,-2.30133 -3.12,-3.66667c-0.288,-0.42933 -0.26133,-0.876 0.17867,-1.18c1.06133,-0.73467 2.23333,-1.516 3.52933,-1.04533c1.99333,0.724 2.94667,2.66933 4.26533,4.17067c0.096,0.108 0.04,0.432 -0.04667,0.60533c-0.484,0.968 -3.69867,1.748 -4.80667,1.116" id="Path 1" fill="#ffffff"/></g><g clip-path="url(#clip-53)" id="Group 1"><path d="M608.15893,497.7152c-1.276,0.79733 -2.556,1.27867 -3.872,1.46533c-0.96267,0.13733 -0.97333,-0.98533 -1.27467,-1.60133c-0.424,-0.86667 -0.69067,-1.812 -1.01867,-2.72667c-0.55067,-1.54133 0.18667,-2.31733 1.54933,-2.928c1.416,-0.632 2.09867,0.03333 2.67067,1.144c0.58133,1.13067 1.18,2.25333 1.71333,3.40667c0.17333,0.37467 0.16133,0.836 0.232,1.24" id="Path 1" fill="#ffffff"/></g><g clip-path="url(#clip-54)" id="Group 1"><path d="M688.8656,284.8128c-1.15867,2.29733 -3.352,3.708 -4.61333,2.75333c-1.084,-0.82 -3.22533,-1.296 -2.188,-3.45733c1.10267,-2.29467 3.10533,-3.24933 4.74667,-2.43333c2.48133,1.23467 2.78267,1.69333 2.05467,3.13733" id="Path 1" fill="#ffffff"/></g><g clip-path="url(#clip-55)" id="Group 1"><path d="M597.844,459.46253c-0.04267,-0.18133 -0.16933,-0.45867 -0.16533,-0.736c0.02133,-2.016 0.15733,-4.03333 0.744,-5.96533c0.42933,-1.416 1.77467,-1.144 2.84267,-1.164c1.12133,-0.02 0.98533,0.96667 1.00667,1.652c0.044,1.41333 0.02933,2.836 -0.072,4.24667c-0.09067,1.256 -3.324,2.76533 -4.356,1.96667" id="Path 1" fill="#ffffff"/></g><g clip-path="url(#clip-56)" id="Group 1"><path d="M634.65773,416.5708c-1.23067,-0.69067 -1.68533,-1.51867 -0.61333,-2.82933c2.17333,-2.66 4.272,-2.86 6.79333,-0.63467c0.95333,0.84133 1.14533,1.496 -0.00267,2.264c-1.89067,1.26533 -3.748,2.65467 -6.17733,1.2" id="Path 1" fill="#ffffff"/></g><g clip-path="url(#clip-57)" id="Group 1"><path d="M606.48693,470.922c-1.084,-0.69733 -1.736,-5.60133 -0.94133,-6.53467c0.88267,-1.036 2.152,-1.06267 3.29867,-0.65467c1.03067,0.36667 2.38133,5.31867 1.63333,5.94133c-1.168,0.972 -2.66133,1.184 -3.99067,1.248" id="Path 1" fill="#ffffff"/></g><g clip-path="url(#clip-58)" id="Group 1"><path d="M612.2368,495.54893c-1.096,-0.65467 -2.83867,-4.51333 -2.416,-5.348c0.38,-0.748 3.552,-1.928 4.19867,-1.56267c1.16,0.65867 2.724,4.228 2.232,5.09467c-0.67467,1.18933 -3.17333,2.31867 -4.01467,1.816" id="Path 1" fill="#ffffff"/></g><g clip-path="url(#clip-59)" id="Group 1"><path d="M667.56573,335.458c2.45867,1.42267 2.92533,5.19333 0.86933,7.17067c-0.18533,0.17867 -0.5,0.332 -0.748,0.32133c-1.77333,-0.07733 -3.648,-2.62533 -3.244,-4.37467c0.15067,-0.652 0.31867,-1.30133 0.48,-1.95067c0.584,-2.35733 0.584,-2.35733 2.64267,-1.16667" id="Path 1" fill="#ffffff"/></g><g clip-path="url(#clip-60)" id="Group 1"><path d="M673.72227,306.0732c2.48267,1.41733 3.02933,5.42267 1.10133,7.34933c-0.86133,0.86133 -3.25333,-0.248 -3.684,-1.824c-0.512,-1.876 -0.15467,-3.77867 0.51467,-5.52533c0.568,-1.48267 1.43733,-0.028 2.068,0" id="Path 1" fill="#ffffff"/></g><g clip-path="url(#clip-61)" id="Group 1"><path d="M629.6488,412.79293c-2.82667,1.11867 -4.592,-3.24 -1.796,-4.432c1.292,-0.54933 2.59333,-0.58267 3.868,-0.092c1.224,0.47067 1.748,0.92533 0.71333,2.23067c-0.90667,1.14533 -1.81733,1.91067 -2.78533,2.29333" id="Path 1" fill="#ffffff"/></g><g clip-path="url(#clip-62)" id="Group 1"><path d="M620.73307,430.0392c-1.82533,3.20133 -2.632,3.63467 -5.07867,2.68667c-0.328,-0.12667 -0.84933,-0.34533 -0.87467,-0.568c-0.2,-1.75333 0.88133,-3.096 1.588,-4.556c0.49733,-1.03067 1.40667,-1.288 2.43867,-1.21067c2.28933,0.17067 3.06267,1.656 1.92667,3.648" id="Path 1" fill="#ffffff"/></g><g clip-path="url(#clip-63)" id="Group 1"><path d="M720.50453,302.4052c-1.81867,-1.276 -3.136,-3.08133 -3.24667,-5.584c-0.024,-0.56267 0.00533,-1.276 0.61733,-1.584c0.644,-0.324 1.14133,0.14667 1.56,0.568c1.26,1.26533 2.564,2.49733 3.712,3.85867c0.664,0.788 1.77867,1.71733 0.65867,2.89333c-0.97067,1.01867 -2.06933,0.38267 -3.30133,-0.152" id="Path 1" fill="#ffffff"/></g><g clip-path="url(#clip-64)" id="Group 1"><path d="M608.69813,508.78187c-0.76,-0.452 -2.264,-3.968 -1.94133,-4.54133c0.54933,-0.97733 3.604,-2.26667 4.32133,-1.824c0.936,0.57867 2.36533,4.32533 1.90533,4.99467c-0.66533,0.968 -3.45867,1.86133 -4.28533,1.37067" id="Path 1" fill="#ffffff"/></g><g clip-path="url(#clip-65)" id="Group 1"><path d="M657.74427,406.02253c-2.73333,-0.284 -2.23867,-4.436 0.49867,-4.204c0.164,0.01467 0.328,0.03067 0.49333,0.04933c0.99067,0.10933 1.844,0.52133 2.612,1.20533c1.28667,1.148 0.90533,1.708 -0.504,2.352c-1.15333,0.528 -2.172,0.69333 -3.1,0.59733" id="Path 1" fill="#ffffff"/></g><g clip-path="url(#clip-66)" id="Group 1"><path d="M601.50693,440.48133c0.848,-1.828 2.98133,-2.744 4.34,-2.21467c0.20133,0.07733 0.42133,0.17733 0.56,0.33333c0.44933,0.50933 -0.488,5.08133 -1.308,5.72533c-1.23067,0.968 -2.696,0.65733 -4.056,0.29467c-0.63467,-0.16933 -0.44267,-0.89733 -0.32533,-1.37867c0.264,-1.088 0.61333,-2.156 0.78933,-2.76" id="Path 1" fill="#ffffff"/></g><g clip-path="url(#clip-67)" id="Group 1"><path d="M700.13107,279.9768c0.672,0.48667 1.86,0.872 1.41867,2.09333c-0.54667,1.51067 -1.912,2.05467 -3.42,2.00667c-1.70667,-0.05333 -4.24667,-2.44133 -4.63733,-4.128c-0.244,-1.05733 0.47733,-1.10133 1.144,-1.176c1.92267,-0.21867 3.68933,0.34133 5.49467,1.204" id="Path 1" fill="#ffffff"/></g><g clip-path="url(#clip-68)" id="Group 1"><path d="M599.65627,486.85173c-0.18267,-0.38133 -0.44933,-0.75867 -0.54533,-1.176c-0.284,-1.23333 -0.52933,-2.47733 -0.73467,-3.72533c-0.17867,-1.084 -0.232,-2.124 1.29467,-2.304c1.272,-0.15067 2.568,-0.50133 2.94533,1.33867c0.20933,1.02133 0.53067,2.02 0.78133,3.03467c0.16667,0.672 0.29467,1.36 -0.53867,1.716c-1.016,0.43333 -1.94,1.14133 -3.20267,1.116" id="Path 1" fill="#ffffff"/></g><g clip-path="url(#clip-69)" id="Group 1"><path d="M653.8128,396.73933c-0.044,0.4 -0.376,0.436 -0.656,0.444c-0.36933,0.012 -0.74267,-0.06267 -1.11467,-0.09333c-4.284,-0.35467 -4.43467,-0.592 -3.62133,-4.844c0.23467,-1.22533 0.58933,-1.80533 1.856,-1.016c0.63333,0.396 1.32933,0.688 1.98667,1.04667c1.65867,0.90133 2.33067,2.85467 1.54933,4.46267" id="Path 1" fill="#ffffff"/></g><g clip-path="url(#clip-70)" id="Group 1"><path d="M610.8192,430.28267c-0.244,0.46 -0.39733,1.00933 -0.74667,1.36533c-1.17333,1.19733 -2.808,1.50267 -4.08533,0.71467c-1.14133,-0.704 0.14267,-1.84667 0.49733,-2.68133c0.54267,-1.28133 1.23067,-2.60267 2.62667,-3.20933c0.83867,-0.364 1.8,-0.44267 2.556,0.16267c0.78667,0.62933 0.112,1.372 -0.088,2.03733c-0.17067,0.56667 -0.45333,1.09867 -0.68667,1.64667c-0.02533,-0.012 -0.04933,-0.024 -0.07333,-0.036" id="Path 1" fill="#ffffff"/></g><g clip-path="url(#clip-71)" id="Group 1"><path d="M650.3592,382.85293c-0.41333,1.13067 -0.96667,0.56933 -1.49733,0.132c-2.164,-1.78267 -1.404,-4.05733 -0.916,-6.20267c0.14667,-0.64667 -0.084,-2.33867 1.27333,-1.69333c1.092,0.52 2.96267,0.99467 2.62933,2.84667c-0.3,1.67467 -0.97867,3.28133 -1.48933,4.91733" id="Path 1" fill="#ffffff"/></g><g clip-path="url(#clip-72)" id="Group 1"><path d="M641.12907,407.04693c-1.536,-0.684 -1.292,-2.97067 0.35333,-3.31467c1.728,-0.36267 3.43333,-0.41067 5.204,0.02533c0.58,0.14267 1.32533,0.27467 1.48133,0.87733c0.18667,0.72133 -0.62667,0.89733 -1.096,1.19333c-2.60267,1.64 -3.92667,2.116 -5.94267,1.21867" id="Path 1" fill="#ffffff"/></g><g clip-path="url(#clip-73)" id="Group 1"><path d="M654.88853,381.04133c0.41333,-1.03867 0.84933,-1.18933 1.76667,-0.36267c1.78,1.60667 1.932,5.93733 0.16133,7.46133c-0.444,0.384 -0.83333,0.21467 -1.21733,0.01333c-0.95733,-0.50133 -1.78133,-1.152 -1.79333,-2.356c-0.01733,-1.66933 0.53733,-3.21867 1.08267,-4.756" id="Path 1" fill="#ffffff"/></g><g clip-path="url(#clip-74)" id="Group 1"><path d="M638.15387,525.1912c0.68533,0.572 1.428,1.088 2.04,1.73067c0.6,0.63067 2.004,1.10267 1.30133,2.18133c-0.63067,0.968 -1.896,1.53733 -3.16933,1.15333c-1.79467,-0.54 -2.96,-1.94933 -4.088,-3.34133c-0.47467,-0.58667 0.02,-0.95333 0.476,-1.232c1.06267,-0.65067 2.09733,-1.61867 3.44,-0.492" id="Path 1" fill="#ffffff"/></g><g clip-path="url(#clip-75)" id="Group 1"><path d="M618.114,515.61013c-1.332,2.04533 -3.80667,2.08667 -5.18,0.42c-2.02533,-2.45867 -1.90667,-2.90133 0.78667,-4.124c1.12267,-0.50933 1.81733,-0.284 2.40667,0.72133c0.63467,1.08267 1.76667,1.9 1.98667,2.98267" id="Path 1" fill="#ffffff"/></g><g clip-path="url(#clip-76)" id="Group 1"><path d="M620.8264,524.14093c-0.31467,-0.30133 -0.92667,-0.76133 -1.37067,-1.34933c-0.504,-0.66533 -1.896,-1.28267 -0.63467,-2.31333c0.99333,-0.81067 2.148,-1.868 3.528,-0.48c0.47333,0.476 1.044,0.88267 1.40667,1.42933c0.40267,0.60933 1.57867,1.22933 0.71467,2.028c-0.86667,0.79867 -1.952,1.792 -3.644,0.68533" id="Path 1" fill="#ffffff"/></g><g clip-path="url(#clip-77)" id="Group 1"><path d="M757.1208,376.2392c-0.77467,0.068 -1.444,0.12933 -2.11467,0.18667c-0.60533,0.05067 -0.71067,-0.452 -0.87467,-0.84133c-0.78667,-1.86267 -1.32133,-3.80133 -1.712,-5.78667c-0.184,-0.932 0.26267,-1.37467 1.044,-1.68533c1.072,-0.42933 1.084,0.51733 1.29467,1.04667c0.68933,1.73467 1.30933,3.496 1.93333,5.25333c0.144,0.404 0.20133,0.83733 0.42933,1.82667" id="Path 1" fill="#ffffff"/></g><g clip-path="url(#clip-78)" id="Group 1"><path d="M631.48587,530.28773c-2.35733,1.17467 -4.78533,0.49867 -6.19333,-1.67467c-0.30933,-0.476 -0.364,-0.86267 0.14667,-1.09867c0.83733,-0.388 1.60267,-1.22 2.68533,-0.50267c0.65467,0.43333 2.55467,2.2 3.36133,3.276" id="Path 1" fill="#ffffff"/></g><g clip-path="url(#clip-79)" id="Group 1"><path d="M747.91587,351.9492c1.96,2.496 2.528,5.23067 3.49867,7.78c0.1,0.26267 0.21067,0.63067 -0.18533,0.724c-0.24667,0.05733 -0.69733,0.00267 -0.79067,-0.156c-1.44267,-2.47067 -3.168,-4.868 -2.52267,-8.348" id="Path 1" fill="#ffffff"/></g><g clip-path="url(#clip-80)" id="Group 1"><path d="M730.5016,497.11693c-0.11867,-0.28 0.10533,-0.32533 0.28,-0.39333c0.01867,-0.008 0.12267,0.10133 0.11333,0.13333c-0.06533,0.20933 -0.17733,0.35467 -0.42267,0.20267l0.02933,0.05733" id="Path 1" fill="#fe900c"/></g><g clip-path="url(#clip-81)" id="Group 1"><path d="M768.18053,488.61c0,0 -13.44533,1.02533 -27.104,13.55067z" id="Path 1" fill="#fcf9f9"/></g><g clip-path="url(#clip-82)" id="Group 1"/><g clip-path="url(#clip-83)" id="Group 1"/><g clip-path="url(#clip-84)" id="Group 1"/><g clip-path="url(#clip-85)" id="Group 1"/><g clip-path="url(#clip-86)" id="Group 1"/><g clip-path="url(#clip-87)" id="Group 1"/><g clip-path="url(#clip-88)" id="Group 1"/><g clip-path="url(#clip-89)" id="Group 1"/><g clip-path="url(#clip-90)" id="Group 1"/><g clip-path="url(#clip-91)" id="Group 1"/><g clip-path="url(#clip-92)" id="Group 1"/><g clip-path="url(#clip-93)" id="Group 1"/></g></g></g></g></g></g></g></g></g></g></g></svg>